%TF.GenerationSoftware,KiCad,Pcbnew,9.0.4*%
%TF.CreationDate,2025-11-19T19:29:13-05:00*%
%TF.ProjectId,492Homework6,34393248-6f6d-4657-976f-726b362e6b69,1*%
%TF.SameCoordinates,Original*%
%TF.FileFunction,Soldermask,Top*%
%TF.FilePolarity,Negative*%
%FSLAX46Y46*%
G04 Gerber Fmt 4.6, Leading zero omitted, Abs format (unit mm)*
G04 Created by KiCad (PCBNEW 9.0.4) date 2025-11-19 19:29:13*
%MOMM*%
%LPD*%
G01*
G04 APERTURE LIST*
G04 Aperture macros list*
%AMRoundRect*
0 Rectangle with rounded corners*
0 $1 Rounding radius*
0 $2 $3 $4 $5 $6 $7 $8 $9 X,Y pos of 4 corners*
0 Add a 4 corners polygon primitive as box body*
4,1,4,$2,$3,$4,$5,$6,$7,$8,$9,$2,$3,0*
0 Add four circle primitives for the rounded corners*
1,1,$1+$1,$2,$3*
1,1,$1+$1,$4,$5*
1,1,$1+$1,$6,$7*
1,1,$1+$1,$8,$9*
0 Add four rect primitives between the rounded corners*
20,1,$1+$1,$2,$3,$4,$5,0*
20,1,$1+$1,$4,$5,$6,$7,0*
20,1,$1+$1,$6,$7,$8,$9,0*
20,1,$1+$1,$8,$9,$2,$3,0*%
G04 Aperture macros list end*
%ADD10C,6.400000*%
%ADD11C,6.477000*%
%ADD12RoundRect,0.225000X-0.225000X-0.250000X0.225000X-0.250000X0.225000X0.250000X-0.225000X0.250000X0*%
%ADD13C,3.000000*%
%ADD14RoundRect,0.200000X-0.275000X0.200000X-0.275000X-0.200000X0.275000X-0.200000X0.275000X0.200000X0*%
%ADD15RoundRect,0.102000X0.254000X-0.609600X0.254000X0.609600X-0.254000X0.609600X-0.254000X-0.609600X0*%
%ADD16R,1.700000X1.700000*%
%ADD17C,1.700000*%
%ADD18RoundRect,0.200000X-0.200000X-0.275000X0.200000X-0.275000X0.200000X0.275000X-0.200000X0.275000X0*%
%ADD19RoundRect,0.200000X0.275000X-0.200000X0.275000X0.200000X-0.275000X0.200000X-0.275000X-0.200000X0*%
%ADD20RoundRect,0.102000X-0.700000X1.800000X-0.700000X-1.800000X0.700000X-1.800000X0.700000X1.800000X0*%
%ADD21RoundRect,0.102000X-1.800000X0.700000X-1.800000X-0.700000X1.800000X-0.700000X1.800000X0.700000X0*%
%ADD22R,1.300000X1.550000*%
%ADD23C,2.770000*%
%ADD24RoundRect,0.225000X-0.250000X0.225000X-0.250000X-0.225000X0.250000X-0.225000X0.250000X0.225000X0*%
%ADD25O,3.500000X2.200000*%
%ADD26R,2.500000X1.500000*%
%ADD27O,2.500000X1.500000*%
%ADD28RoundRect,0.225000X0.250000X-0.225000X0.250000X0.225000X-0.250000X0.225000X-0.250000X-0.225000X0*%
%ADD29RoundRect,0.225000X0.225000X0.250000X-0.225000X0.250000X-0.225000X-0.250000X0.225000X-0.250000X0*%
%ADD30RoundRect,0.102000X-1.050000X0.700000X-1.050000X-0.700000X1.050000X-0.700000X1.050000X0.700000X0*%
%ADD31RoundRect,0.200000X0.200000X0.275000X-0.200000X0.275000X-0.200000X-0.275000X0.200000X-0.275000X0*%
%ADD32R,1.550000X1.300000*%
%ADD33RoundRect,0.102000X-0.400000X-0.400000X0.400000X-0.400000X0.400000X0.400000X-0.400000X0.400000X0*%
%ADD34R,4.622800X1.955800*%
%ADD35RoundRect,0.102000X0.400000X0.400000X-0.400000X0.400000X-0.400000X-0.400000X0.400000X-0.400000X0*%
%ADD36R,1.000000X1.000000*%
%ADD37C,1.000000*%
%ADD38RoundRect,0.102000X0.400000X-0.400000X0.400000X0.400000X-0.400000X0.400000X-0.400000X-0.400000X0*%
%ADD39RoundRect,0.060500X-0.181500X-0.821500X0.181500X-0.821500X0.181500X0.821500X-0.181500X0.821500X0*%
%ADD40RoundRect,0.060500X-0.821500X-0.181500X0.821500X-0.181500X0.821500X0.181500X-0.821500X0.181500X0*%
%ADD41R,1.955800X3.505200*%
%ADD42RoundRect,0.102000X-0.700000X-1.050000X0.700000X-1.050000X0.700000X1.050000X-0.700000X1.050000X0*%
G04 APERTURE END LIST*
D10*
%TO.C,H4*%
X68577200Y-43180000D03*
D11*
X68577200Y-43180000D03*
%TD*%
D12*
%TO.C,C9*%
X76428000Y-76708000D03*
X77978000Y-76708000D03*
%TD*%
D13*
%TO.C,FID3*%
X116840000Y-114300000D03*
%TD*%
D14*
%TO.C,R19*%
X104394000Y-57404000D03*
X104394000Y-59054000D03*
%TD*%
%TO.C,R3*%
X89916000Y-95441000D03*
X89916000Y-97091000D03*
%TD*%
D13*
%TO.C,J11*%
X82804000Y-41910000D03*
%TD*%
D15*
%TO.C,U1*%
X106324400Y-51714400D03*
X107264200Y-51714400D03*
X108204000Y-51714400D03*
X108204000Y-49276000D03*
X106324400Y-49276000D03*
%TD*%
D13*
%TO.C,J5*%
X87884000Y-41910000D03*
%TD*%
D16*
%TO.C,J4*%
X82296000Y-114046000D03*
D17*
X84836000Y-114046000D03*
X87376000Y-114046000D03*
X89916000Y-114046000D03*
%TD*%
D18*
%TO.C,R6*%
X97918000Y-93726000D03*
X99568000Y-93726000D03*
%TD*%
D19*
%TO.C,R24*%
X83312000Y-52196000D03*
X83312000Y-50546000D03*
%TD*%
D20*
%TO.C,L1*%
X97780000Y-56632000D03*
D21*
X93980000Y-52832000D03*
D20*
X90180000Y-56632000D03*
D21*
X93980000Y-60432000D03*
%TD*%
D13*
%TO.C,J21*%
X99060000Y-41910000D03*
%TD*%
D16*
%TO.C,J2*%
X114300000Y-52578000D03*
D17*
X114300000Y-55118000D03*
%TD*%
D22*
%TO.C,SW2*%
X70612000Y-52324000D03*
X70612000Y-60274000D03*
X66112000Y-52324000D03*
X66112000Y-60274000D03*
%TD*%
D10*
%TO.C,H2*%
X121920000Y-43180000D03*
D11*
X121920000Y-43180000D03*
%TD*%
D23*
%TO.C,FID2*%
X73660000Y-114300000D03*
%TD*%
D24*
%TO.C,C12*%
X109982000Y-98285000D03*
X109982000Y-99835000D03*
%TD*%
D25*
%TO.C,SW1*%
X123698000Y-65096000D03*
X123698000Y-56896000D03*
D26*
X123698000Y-62996000D03*
D27*
X123698000Y-60996000D03*
X123698000Y-58996000D03*
%TD*%
D28*
%TO.C,C16*%
X87376000Y-51842000D03*
X87376000Y-50292000D03*
%TD*%
D13*
%TO.C,J0*%
X119126000Y-49784000D03*
%TD*%
D29*
%TO.C,C14*%
X102362000Y-47498000D03*
X100812000Y-47498000D03*
%TD*%
D28*
%TO.C,C10*%
X112522000Y-74181000D03*
X112522000Y-72631000D03*
%TD*%
D24*
%TO.C,C7*%
X115316000Y-98272000D03*
X115316000Y-99822000D03*
%TD*%
D19*
%TO.C,R9*%
X67564000Y-87476000D03*
X67564000Y-85826000D03*
%TD*%
D14*
%TO.C,R7*%
X101600000Y-94679000D03*
X101600000Y-96329000D03*
%TD*%
D30*
%TO.C,D1*%
X108712000Y-63668000D03*
X108712000Y-59268000D03*
%TD*%
D31*
%TO.C,R2*%
X89408000Y-92456000D03*
X87758000Y-92456000D03*
%TD*%
D18*
%TO.C,R12*%
X75312000Y-91186000D03*
X76962000Y-91186000D03*
%TD*%
D24*
%TO.C,C3*%
X71120000Y-85826000D03*
X71120000Y-87376000D03*
%TD*%
D29*
%TO.C,C15*%
X102362000Y-63246000D03*
X100812000Y-63246000D03*
%TD*%
D32*
%TO.C,SW3*%
X102794000Y-110236000D03*
X110744000Y-110236000D03*
X102794000Y-114736000D03*
X110744000Y-114736000D03*
%TD*%
D33*
%TO.C,D8*%
X98552000Y-104648000D03*
X97052000Y-104648000D03*
%TD*%
D22*
%TO.C,SW4*%
X124460000Y-72314000D03*
X124460000Y-80264000D03*
X119960000Y-72314000D03*
X119960000Y-80264000D03*
%TD*%
D33*
%TO.C,D9*%
X102870000Y-101092000D03*
X101370000Y-101092000D03*
%TD*%
D34*
%TO.C,C19*%
X84836000Y-62464800D03*
X84836000Y-56267200D03*
%TD*%
D14*
%TO.C,R11*%
X74422000Y-68708000D03*
X74422000Y-70358000D03*
%TD*%
%TO.C,R5*%
X96012000Y-90552000D03*
X96012000Y-92202000D03*
%TD*%
D33*
%TO.C,D6*%
X93472000Y-101346000D03*
X91972000Y-101346000D03*
%TD*%
D24*
%TO.C,C6*%
X77470000Y-54102000D03*
X77470000Y-55652000D03*
%TD*%
D28*
%TO.C,C11*%
X76708000Y-102121000D03*
X76708000Y-100571000D03*
%TD*%
D35*
%TO.C,D10*%
X101878000Y-67310000D03*
X103378000Y-67310000D03*
%TD*%
D10*
%TO.C,H1*%
X68580000Y-111760000D03*
D11*
X68580000Y-111760000D03*
%TD*%
D31*
%TO.C,R10*%
X79120000Y-70104000D03*
X77470000Y-70104000D03*
%TD*%
D13*
%TO.C,J23*%
X93472000Y-41910000D03*
%TD*%
D24*
%TO.C,C2*%
X71120000Y-90906000D03*
X71120000Y-92456000D03*
%TD*%
D22*
%TO.C,SW5*%
X70358000Y-96012000D03*
X70358000Y-103962000D03*
X65858000Y-96012000D03*
X65858000Y-103962000D03*
%TD*%
D36*
%TO.C,J1*%
X66040000Y-70104000D03*
D37*
X66040000Y-71374000D03*
X66040000Y-72644000D03*
X66040000Y-73914000D03*
X66040000Y-75184000D03*
X66040000Y-76454000D03*
X66040000Y-77724000D03*
%TD*%
D10*
%TO.C,H3*%
X121920000Y-111760000D03*
D11*
X121920000Y-111760000D03*
%TD*%
D12*
%TO.C,C5*%
X107696000Y-66548000D03*
X109246000Y-66548000D03*
%TD*%
D19*
%TO.C,R8*%
X99060000Y-68389000D03*
X99060000Y-66739000D03*
%TD*%
D24*
%TO.C,C1*%
X67564000Y-90906000D03*
X67564000Y-92456000D03*
%TD*%
D38*
%TO.C,D7*%
X97028000Y-98818000D03*
X97028000Y-100318000D03*
%TD*%
D23*
%TO.C,FID1*%
X73660000Y-40640000D03*
%TD*%
D39*
%TO.C,U2*%
X96282000Y-77216000D03*
D40*
X90352000Y-78646000D03*
X90352000Y-79146000D03*
X90352000Y-79646000D03*
X90352000Y-80146000D03*
X90352000Y-80646000D03*
X90352000Y-81146000D03*
X90352000Y-81646000D03*
X90352000Y-82146000D03*
X90352000Y-82646000D03*
X90352000Y-83146000D03*
X90352000Y-83646000D03*
X90352000Y-84146000D03*
D39*
X91782000Y-85576000D03*
X92282000Y-85576000D03*
X92782000Y-85576000D03*
X93282000Y-85576000D03*
X93782000Y-85576000D03*
X94282000Y-85576000D03*
X94782000Y-85576000D03*
X95282000Y-85576000D03*
X95782000Y-85576000D03*
X96282000Y-85576000D03*
X96782000Y-85576000D03*
X97282000Y-85576000D03*
D40*
X98712000Y-84146000D03*
X98712000Y-83646000D03*
X98712000Y-83146000D03*
X98712000Y-82646000D03*
X98712000Y-82146000D03*
X98712000Y-81646000D03*
X98712000Y-81146000D03*
X98712000Y-80646000D03*
X98712000Y-80146000D03*
X98712000Y-79646000D03*
X98712000Y-79146000D03*
X98712000Y-78646000D03*
D39*
X97282000Y-77216000D03*
X96782000Y-77216000D03*
X95782000Y-77216000D03*
X95282000Y-77216000D03*
X94782000Y-77216000D03*
X94282000Y-77216000D03*
X93782000Y-77216000D03*
X93282000Y-77216000D03*
X92782000Y-77216000D03*
X92282000Y-77216000D03*
X91782000Y-77216000D03*
%TD*%
D38*
%TO.C,D2*%
X84074000Y-99568000D03*
X84074000Y-101068000D03*
%TD*%
D41*
%TO.C,C13*%
X91819600Y-48006000D03*
X97712400Y-48006000D03*
%TD*%
D18*
%TO.C,R26*%
X86488000Y-47498000D03*
X88138000Y-47498000D03*
%TD*%
D12*
%TO.C,C18*%
X77711000Y-44958000D03*
X79261000Y-44958000D03*
%TD*%
D16*
%TO.C,J6*%
X112771000Y-43501000D03*
D17*
X115311000Y-43501000D03*
%TD*%
D28*
%TO.C,C17*%
X102108000Y-54382000D03*
X102108000Y-52832000D03*
%TD*%
D42*
%TO.C,D4*%
X94234000Y-65532000D03*
X89834000Y-65532000D03*
%TD*%
D38*
%TO.C,D5*%
X88900000Y-100354000D03*
X88900000Y-101854000D03*
%TD*%
D16*
%TO.C,J3*%
X120650000Y-88646000D03*
D17*
X123190000Y-88646000D03*
X120650000Y-91186000D03*
X123190000Y-91186000D03*
X120650000Y-93726000D03*
X123190000Y-93726000D03*
X120650000Y-96266000D03*
X123190000Y-96266000D03*
X120650000Y-98806000D03*
X123190000Y-98806000D03*
%TD*%
D12*
%TO.C,C4*%
X107416000Y-46228000D03*
X108966000Y-46228000D03*
%TD*%
D18*
%TO.C,R1*%
X83566000Y-94996000D03*
X85216000Y-94996000D03*
%TD*%
D35*
%TO.C,D3*%
X84848000Y-104902000D03*
X86348000Y-104902000D03*
%TD*%
D31*
%TO.C,R4*%
X93980000Y-93980000D03*
X92330000Y-93980000D03*
%TD*%
D24*
%TO.C,C8*%
X91948000Y-104889000D03*
X91948000Y-106439000D03*
%TD*%
M02*
