%TF.GenerationSoftware,KiCad,Pcbnew,9.0.4*%
%TF.CreationDate,2025-11-19T19:29:13-05:00*%
%TF.ProjectId,492Homework6,34393248-6f6d-4657-976f-726b362e6b69,1*%
%TF.SameCoordinates,Original*%
%TF.FileFunction,Legend,Top*%
%TF.FilePolarity,Positive*%
%FSLAX46Y46*%
G04 Gerber Fmt 4.6, Leading zero omitted, Abs format (unit mm)*
G04 Created by KiCad (PCBNEW 9.0.4) date 2025-11-19 19:29:13*
%MOMM*%
%LPD*%
G01*
G04 APERTURE LIST*
%ADD10C,0.150000*%
%ADD11C,0.080005*%
%ADD12C,0.120000*%
%ADD13C,0.152400*%
%ADD14C,0.200000*%
%ADD15C,0.127000*%
G04 APERTURE END LIST*
D10*
X64770095Y-40332819D02*
X64770095Y-39332819D01*
X64770095Y-39809009D02*
X65341523Y-39809009D01*
X65341523Y-40332819D02*
X65341523Y-39332819D01*
X66246285Y-39666152D02*
X66246285Y-40332819D01*
X66008190Y-39285200D02*
X65770095Y-39999485D01*
X65770095Y-39999485D02*
X66389142Y-39999485D01*
X77036333Y-75637580D02*
X76988714Y-75685200D01*
X76988714Y-75685200D02*
X76845857Y-75732819D01*
X76845857Y-75732819D02*
X76750619Y-75732819D01*
X76750619Y-75732819D02*
X76607762Y-75685200D01*
X76607762Y-75685200D02*
X76512524Y-75589961D01*
X76512524Y-75589961D02*
X76464905Y-75494723D01*
X76464905Y-75494723D02*
X76417286Y-75304247D01*
X76417286Y-75304247D02*
X76417286Y-75161390D01*
X76417286Y-75161390D02*
X76464905Y-74970914D01*
X76464905Y-74970914D02*
X76512524Y-74875676D01*
X76512524Y-74875676D02*
X76607762Y-74780438D01*
X76607762Y-74780438D02*
X76750619Y-74732819D01*
X76750619Y-74732819D02*
X76845857Y-74732819D01*
X76845857Y-74732819D02*
X76988714Y-74780438D01*
X76988714Y-74780438D02*
X77036333Y-74828057D01*
X77512524Y-75732819D02*
X77703000Y-75732819D01*
X77703000Y-75732819D02*
X77798238Y-75685200D01*
X77798238Y-75685200D02*
X77845857Y-75637580D01*
X77845857Y-75637580D02*
X77941095Y-75494723D01*
X77941095Y-75494723D02*
X77988714Y-75304247D01*
X77988714Y-75304247D02*
X77988714Y-74923295D01*
X77988714Y-74923295D02*
X77941095Y-74828057D01*
X77941095Y-74828057D02*
X77893476Y-74780438D01*
X77893476Y-74780438D02*
X77798238Y-74732819D01*
X77798238Y-74732819D02*
X77607762Y-74732819D01*
X77607762Y-74732819D02*
X77512524Y-74780438D01*
X77512524Y-74780438D02*
X77464905Y-74828057D01*
X77464905Y-74828057D02*
X77417286Y-74923295D01*
X77417286Y-74923295D02*
X77417286Y-75161390D01*
X77417286Y-75161390D02*
X77464905Y-75256628D01*
X77464905Y-75256628D02*
X77512524Y-75304247D01*
X77512524Y-75304247D02*
X77607762Y-75351866D01*
X77607762Y-75351866D02*
X77798238Y-75351866D01*
X77798238Y-75351866D02*
X77893476Y-75304247D01*
X77893476Y-75304247D02*
X77941095Y-75256628D01*
X77941095Y-75256628D02*
X77988714Y-75161390D01*
X114752571Y-111691009D02*
X114419238Y-111691009D01*
X114419238Y-112214819D02*
X114419238Y-111214819D01*
X114419238Y-111214819D02*
X114895428Y-111214819D01*
X115276381Y-112214819D02*
X115276381Y-111214819D01*
X115752571Y-112214819D02*
X115752571Y-111214819D01*
X115752571Y-111214819D02*
X115990666Y-111214819D01*
X115990666Y-111214819D02*
X116133523Y-111262438D01*
X116133523Y-111262438D02*
X116228761Y-111357676D01*
X116228761Y-111357676D02*
X116276380Y-111452914D01*
X116276380Y-111452914D02*
X116323999Y-111643390D01*
X116323999Y-111643390D02*
X116323999Y-111786247D01*
X116323999Y-111786247D02*
X116276380Y-111976723D01*
X116276380Y-111976723D02*
X116228761Y-112071961D01*
X116228761Y-112071961D02*
X116133523Y-112167200D01*
X116133523Y-112167200D02*
X115990666Y-112214819D01*
X115990666Y-112214819D02*
X115752571Y-112214819D01*
X116657333Y-111214819D02*
X117276380Y-111214819D01*
X117276380Y-111214819D02*
X116943047Y-111595771D01*
X116943047Y-111595771D02*
X117085904Y-111595771D01*
X117085904Y-111595771D02*
X117181142Y-111643390D01*
X117181142Y-111643390D02*
X117228761Y-111691009D01*
X117228761Y-111691009D02*
X117276380Y-111786247D01*
X117276380Y-111786247D02*
X117276380Y-112024342D01*
X117276380Y-112024342D02*
X117228761Y-112119580D01*
X117228761Y-112119580D02*
X117181142Y-112167200D01*
X117181142Y-112167200D02*
X117085904Y-112214819D01*
X117085904Y-112214819D02*
X116800190Y-112214819D01*
X116800190Y-112214819D02*
X116704952Y-112167200D01*
X116704952Y-112167200D02*
X116657333Y-112119580D01*
X106278819Y-58871857D02*
X105802628Y-59205190D01*
X106278819Y-59443285D02*
X105278819Y-59443285D01*
X105278819Y-59443285D02*
X105278819Y-59062333D01*
X105278819Y-59062333D02*
X105326438Y-58967095D01*
X105326438Y-58967095D02*
X105374057Y-58919476D01*
X105374057Y-58919476D02*
X105469295Y-58871857D01*
X105469295Y-58871857D02*
X105612152Y-58871857D01*
X105612152Y-58871857D02*
X105707390Y-58919476D01*
X105707390Y-58919476D02*
X105755009Y-58967095D01*
X105755009Y-58967095D02*
X105802628Y-59062333D01*
X105802628Y-59062333D02*
X105802628Y-59443285D01*
X106278819Y-57919476D02*
X106278819Y-58490904D01*
X106278819Y-58205190D02*
X105278819Y-58205190D01*
X105278819Y-58205190D02*
X105421676Y-58300428D01*
X105421676Y-58300428D02*
X105516914Y-58395666D01*
X105516914Y-58395666D02*
X105564533Y-58490904D01*
X106278819Y-57443285D02*
X106278819Y-57252809D01*
X106278819Y-57252809D02*
X106231200Y-57157571D01*
X106231200Y-57157571D02*
X106183580Y-57109952D01*
X106183580Y-57109952D02*
X106040723Y-57014714D01*
X106040723Y-57014714D02*
X105850247Y-56967095D01*
X105850247Y-56967095D02*
X105469295Y-56967095D01*
X105469295Y-56967095D02*
X105374057Y-57014714D01*
X105374057Y-57014714D02*
X105326438Y-57062333D01*
X105326438Y-57062333D02*
X105278819Y-57157571D01*
X105278819Y-57157571D02*
X105278819Y-57348047D01*
X105278819Y-57348047D02*
X105326438Y-57443285D01*
X105326438Y-57443285D02*
X105374057Y-57490904D01*
X105374057Y-57490904D02*
X105469295Y-57538523D01*
X105469295Y-57538523D02*
X105707390Y-57538523D01*
X105707390Y-57538523D02*
X105802628Y-57490904D01*
X105802628Y-57490904D02*
X105850247Y-57443285D01*
X105850247Y-57443285D02*
X105897866Y-57348047D01*
X105897866Y-57348047D02*
X105897866Y-57157571D01*
X105897866Y-57157571D02*
X105850247Y-57062333D01*
X105850247Y-57062333D02*
X105802628Y-57014714D01*
X105802628Y-57014714D02*
X105707390Y-56967095D01*
X91800819Y-96432666D02*
X91324628Y-96765999D01*
X91800819Y-97004094D02*
X90800819Y-97004094D01*
X90800819Y-97004094D02*
X90800819Y-96623142D01*
X90800819Y-96623142D02*
X90848438Y-96527904D01*
X90848438Y-96527904D02*
X90896057Y-96480285D01*
X90896057Y-96480285D02*
X90991295Y-96432666D01*
X90991295Y-96432666D02*
X91134152Y-96432666D01*
X91134152Y-96432666D02*
X91229390Y-96480285D01*
X91229390Y-96480285D02*
X91277009Y-96527904D01*
X91277009Y-96527904D02*
X91324628Y-96623142D01*
X91324628Y-96623142D02*
X91324628Y-97004094D01*
X90800819Y-96099332D02*
X90800819Y-95480285D01*
X90800819Y-95480285D02*
X91181771Y-95813618D01*
X91181771Y-95813618D02*
X91181771Y-95670761D01*
X91181771Y-95670761D02*
X91229390Y-95575523D01*
X91229390Y-95575523D02*
X91277009Y-95527904D01*
X91277009Y-95527904D02*
X91372247Y-95480285D01*
X91372247Y-95480285D02*
X91610342Y-95480285D01*
X91610342Y-95480285D02*
X91705580Y-95527904D01*
X91705580Y-95527904D02*
X91753200Y-95575523D01*
X91753200Y-95575523D02*
X91800819Y-95670761D01*
X91800819Y-95670761D02*
X91800819Y-95956475D01*
X91800819Y-95956475D02*
X91753200Y-96051713D01*
X91753200Y-96051713D02*
X91705580Y-96099332D01*
X81994476Y-38966819D02*
X81994476Y-39681104D01*
X81994476Y-39681104D02*
X81946857Y-39823961D01*
X81946857Y-39823961D02*
X81851619Y-39919200D01*
X81851619Y-39919200D02*
X81708762Y-39966819D01*
X81708762Y-39966819D02*
X81613524Y-39966819D01*
X82994476Y-39966819D02*
X82423048Y-39966819D01*
X82708762Y-39966819D02*
X82708762Y-38966819D01*
X82708762Y-38966819D02*
X82613524Y-39109676D01*
X82613524Y-39109676D02*
X82518286Y-39204914D01*
X82518286Y-39204914D02*
X82423048Y-39252533D01*
X83946857Y-39966819D02*
X83375429Y-39966819D01*
X83661143Y-39966819D02*
X83661143Y-38966819D01*
X83661143Y-38966819D02*
X83565905Y-39109676D01*
X83565905Y-39109676D02*
X83470667Y-39204914D01*
X83470667Y-39204914D02*
X83375429Y-39252533D01*
X110000664Y-47115617D02*
X110000664Y-48445161D01*
X110000664Y-48445161D02*
X110078872Y-48601578D01*
X110078872Y-48601578D02*
X110157081Y-48679787D01*
X110157081Y-48679787D02*
X110313498Y-48757995D01*
X110313498Y-48757995D02*
X110626332Y-48757995D01*
X110626332Y-48757995D02*
X110782749Y-48679787D01*
X110782749Y-48679787D02*
X110860957Y-48601578D01*
X110860957Y-48601578D02*
X110939166Y-48445161D01*
X110939166Y-48445161D02*
X110939166Y-47115617D01*
X112581543Y-48757995D02*
X111643041Y-48757995D01*
X112112292Y-48757995D02*
X112112292Y-47115617D01*
X112112292Y-47115617D02*
X111955875Y-47350242D01*
X111955875Y-47350242D02*
X111799458Y-47506659D01*
X111799458Y-47506659D02*
X111643041Y-47584868D01*
X87550666Y-38966819D02*
X87550666Y-39681104D01*
X87550666Y-39681104D02*
X87503047Y-39823961D01*
X87503047Y-39823961D02*
X87407809Y-39919200D01*
X87407809Y-39919200D02*
X87264952Y-39966819D01*
X87264952Y-39966819D02*
X87169714Y-39966819D01*
X88503047Y-38966819D02*
X88026857Y-38966819D01*
X88026857Y-38966819D02*
X87979238Y-39443009D01*
X87979238Y-39443009D02*
X88026857Y-39395390D01*
X88026857Y-39395390D02*
X88122095Y-39347771D01*
X88122095Y-39347771D02*
X88360190Y-39347771D01*
X88360190Y-39347771D02*
X88455428Y-39395390D01*
X88455428Y-39395390D02*
X88503047Y-39443009D01*
X88503047Y-39443009D02*
X88550666Y-39538247D01*
X88550666Y-39538247D02*
X88550666Y-39776342D01*
X88550666Y-39776342D02*
X88503047Y-39871580D01*
X88503047Y-39871580D02*
X88455428Y-39919200D01*
X88455428Y-39919200D02*
X88360190Y-39966819D01*
X88360190Y-39966819D02*
X88122095Y-39966819D01*
X88122095Y-39966819D02*
X88026857Y-39919200D01*
X88026857Y-39919200D02*
X87979238Y-39871580D01*
X78980819Y-114379333D02*
X79695104Y-114379333D01*
X79695104Y-114379333D02*
X79837961Y-114426952D01*
X79837961Y-114426952D02*
X79933200Y-114522190D01*
X79933200Y-114522190D02*
X79980819Y-114665047D01*
X79980819Y-114665047D02*
X79980819Y-114760285D01*
X79314152Y-113474571D02*
X79980819Y-113474571D01*
X78933200Y-113712666D02*
X79647485Y-113950761D01*
X79647485Y-113950761D02*
X79647485Y-113331714D01*
X99147333Y-92750819D02*
X98814000Y-92274628D01*
X98575905Y-92750819D02*
X98575905Y-91750819D01*
X98575905Y-91750819D02*
X98956857Y-91750819D01*
X98956857Y-91750819D02*
X99052095Y-91798438D01*
X99052095Y-91798438D02*
X99099714Y-91846057D01*
X99099714Y-91846057D02*
X99147333Y-91941295D01*
X99147333Y-91941295D02*
X99147333Y-92084152D01*
X99147333Y-92084152D02*
X99099714Y-92179390D01*
X99099714Y-92179390D02*
X99052095Y-92227009D01*
X99052095Y-92227009D02*
X98956857Y-92274628D01*
X98956857Y-92274628D02*
X98575905Y-92274628D01*
X100004476Y-91750819D02*
X99814000Y-91750819D01*
X99814000Y-91750819D02*
X99718762Y-91798438D01*
X99718762Y-91798438D02*
X99671143Y-91846057D01*
X99671143Y-91846057D02*
X99575905Y-91988914D01*
X99575905Y-91988914D02*
X99528286Y-92179390D01*
X99528286Y-92179390D02*
X99528286Y-92560342D01*
X99528286Y-92560342D02*
X99575905Y-92655580D01*
X99575905Y-92655580D02*
X99623524Y-92703200D01*
X99623524Y-92703200D02*
X99718762Y-92750819D01*
X99718762Y-92750819D02*
X99909238Y-92750819D01*
X99909238Y-92750819D02*
X100004476Y-92703200D01*
X100004476Y-92703200D02*
X100052095Y-92655580D01*
X100052095Y-92655580D02*
X100099714Y-92560342D01*
X100099714Y-92560342D02*
X100099714Y-92322247D01*
X100099714Y-92322247D02*
X100052095Y-92227009D01*
X100052095Y-92227009D02*
X100004476Y-92179390D01*
X100004476Y-92179390D02*
X99909238Y-92131771D01*
X99909238Y-92131771D02*
X99718762Y-92131771D01*
X99718762Y-92131771D02*
X99623524Y-92179390D01*
X99623524Y-92179390D02*
X99575905Y-92227009D01*
X99575905Y-92227009D02*
X99528286Y-92322247D01*
X82336819Y-52013857D02*
X81860628Y-52347190D01*
X82336819Y-52585285D02*
X81336819Y-52585285D01*
X81336819Y-52585285D02*
X81336819Y-52204333D01*
X81336819Y-52204333D02*
X81384438Y-52109095D01*
X81384438Y-52109095D02*
X81432057Y-52061476D01*
X81432057Y-52061476D02*
X81527295Y-52013857D01*
X81527295Y-52013857D02*
X81670152Y-52013857D01*
X81670152Y-52013857D02*
X81765390Y-52061476D01*
X81765390Y-52061476D02*
X81813009Y-52109095D01*
X81813009Y-52109095D02*
X81860628Y-52204333D01*
X81860628Y-52204333D02*
X81860628Y-52585285D01*
X81432057Y-51632904D02*
X81384438Y-51585285D01*
X81384438Y-51585285D02*
X81336819Y-51490047D01*
X81336819Y-51490047D02*
X81336819Y-51251952D01*
X81336819Y-51251952D02*
X81384438Y-51156714D01*
X81384438Y-51156714D02*
X81432057Y-51109095D01*
X81432057Y-51109095D02*
X81527295Y-51061476D01*
X81527295Y-51061476D02*
X81622533Y-51061476D01*
X81622533Y-51061476D02*
X81765390Y-51109095D01*
X81765390Y-51109095D02*
X82336819Y-51680523D01*
X82336819Y-51680523D02*
X82336819Y-51061476D01*
X81670152Y-50204333D02*
X82336819Y-50204333D01*
X81289200Y-50442428D02*
X82003485Y-50680523D01*
X82003485Y-50680523D02*
X82003485Y-50061476D01*
X100250295Y-56725333D02*
X100250295Y-57106285D01*
X100250295Y-57106285D02*
X99450295Y-57106285D01*
X100250295Y-56039619D02*
X100250295Y-56496762D01*
X100250295Y-56268190D02*
X99450295Y-56268190D01*
X99450295Y-56268190D02*
X99564580Y-56344381D01*
X99564580Y-56344381D02*
X99640771Y-56420571D01*
X99640771Y-56420571D02*
X99678866Y-56496762D01*
X98250476Y-38966819D02*
X98250476Y-39681104D01*
X98250476Y-39681104D02*
X98202857Y-39823961D01*
X98202857Y-39823961D02*
X98107619Y-39919200D01*
X98107619Y-39919200D02*
X97964762Y-39966819D01*
X97964762Y-39966819D02*
X97869524Y-39966819D01*
X98679048Y-39062057D02*
X98726667Y-39014438D01*
X98726667Y-39014438D02*
X98821905Y-38966819D01*
X98821905Y-38966819D02*
X99060000Y-38966819D01*
X99060000Y-38966819D02*
X99155238Y-39014438D01*
X99155238Y-39014438D02*
X99202857Y-39062057D01*
X99202857Y-39062057D02*
X99250476Y-39157295D01*
X99250476Y-39157295D02*
X99250476Y-39252533D01*
X99250476Y-39252533D02*
X99202857Y-39395390D01*
X99202857Y-39395390D02*
X98631429Y-39966819D01*
X98631429Y-39966819D02*
X99250476Y-39966819D01*
X100202857Y-39966819D02*
X99631429Y-39966819D01*
X99917143Y-39966819D02*
X99917143Y-38966819D01*
X99917143Y-38966819D02*
X99821905Y-39109676D01*
X99821905Y-39109676D02*
X99726667Y-39204914D01*
X99726667Y-39204914D02*
X99631429Y-39252533D01*
X113966666Y-49262819D02*
X113966666Y-49977104D01*
X113966666Y-49977104D02*
X113919047Y-50119961D01*
X113919047Y-50119961D02*
X113823809Y-50215200D01*
X113823809Y-50215200D02*
X113680952Y-50262819D01*
X113680952Y-50262819D02*
X113585714Y-50262819D01*
X114395238Y-49358057D02*
X114442857Y-49310438D01*
X114442857Y-49310438D02*
X114538095Y-49262819D01*
X114538095Y-49262819D02*
X114776190Y-49262819D01*
X114776190Y-49262819D02*
X114871428Y-49310438D01*
X114871428Y-49310438D02*
X114919047Y-49358057D01*
X114919047Y-49358057D02*
X114966666Y-49453295D01*
X114966666Y-49453295D02*
X114966666Y-49548533D01*
X114966666Y-49548533D02*
X114919047Y-49691390D01*
X114919047Y-49691390D02*
X114347619Y-50262819D01*
X114347619Y-50262819D02*
X114966666Y-50262819D01*
X73269200Y-57632332D02*
X73316819Y-57489475D01*
X73316819Y-57489475D02*
X73316819Y-57251380D01*
X73316819Y-57251380D02*
X73269200Y-57156142D01*
X73269200Y-57156142D02*
X73221580Y-57108523D01*
X73221580Y-57108523D02*
X73126342Y-57060904D01*
X73126342Y-57060904D02*
X73031104Y-57060904D01*
X73031104Y-57060904D02*
X72935866Y-57108523D01*
X72935866Y-57108523D02*
X72888247Y-57156142D01*
X72888247Y-57156142D02*
X72840628Y-57251380D01*
X72840628Y-57251380D02*
X72793009Y-57441856D01*
X72793009Y-57441856D02*
X72745390Y-57537094D01*
X72745390Y-57537094D02*
X72697771Y-57584713D01*
X72697771Y-57584713D02*
X72602533Y-57632332D01*
X72602533Y-57632332D02*
X72507295Y-57632332D01*
X72507295Y-57632332D02*
X72412057Y-57584713D01*
X72412057Y-57584713D02*
X72364438Y-57537094D01*
X72364438Y-57537094D02*
X72316819Y-57441856D01*
X72316819Y-57441856D02*
X72316819Y-57203761D01*
X72316819Y-57203761D02*
X72364438Y-57060904D01*
X72316819Y-56727570D02*
X73316819Y-56489475D01*
X73316819Y-56489475D02*
X72602533Y-56298999D01*
X72602533Y-56298999D02*
X73316819Y-56108523D01*
X73316819Y-56108523D02*
X72316819Y-55870428D01*
X72412057Y-55537094D02*
X72364438Y-55489475D01*
X72364438Y-55489475D02*
X72316819Y-55394237D01*
X72316819Y-55394237D02*
X72316819Y-55156142D01*
X72316819Y-55156142D02*
X72364438Y-55060904D01*
X72364438Y-55060904D02*
X72412057Y-55013285D01*
X72412057Y-55013285D02*
X72507295Y-54965666D01*
X72507295Y-54965666D02*
X72602533Y-54965666D01*
X72602533Y-54965666D02*
X72745390Y-55013285D01*
X72745390Y-55013285D02*
X73316819Y-55584713D01*
X73316819Y-55584713D02*
X73316819Y-54965666D01*
X123952095Y-40078819D02*
X123952095Y-39078819D01*
X123952095Y-39555009D02*
X124523523Y-39555009D01*
X124523523Y-40078819D02*
X124523523Y-39078819D01*
X124952095Y-39174057D02*
X124999714Y-39126438D01*
X124999714Y-39126438D02*
X125094952Y-39078819D01*
X125094952Y-39078819D02*
X125333047Y-39078819D01*
X125333047Y-39078819D02*
X125428285Y-39126438D01*
X125428285Y-39126438D02*
X125475904Y-39174057D01*
X125475904Y-39174057D02*
X125523523Y-39269295D01*
X125523523Y-39269295D02*
X125523523Y-39364533D01*
X125523523Y-39364533D02*
X125475904Y-39507390D01*
X125475904Y-39507390D02*
X124904476Y-40078819D01*
X124904476Y-40078819D02*
X125523523Y-40078819D01*
X76144571Y-115501009D02*
X75811238Y-115501009D01*
X75811238Y-116024819D02*
X75811238Y-115024819D01*
X75811238Y-115024819D02*
X76287428Y-115024819D01*
X76668381Y-116024819D02*
X76668381Y-115024819D01*
X77144571Y-116024819D02*
X77144571Y-115024819D01*
X77144571Y-115024819D02*
X77382666Y-115024819D01*
X77382666Y-115024819D02*
X77525523Y-115072438D01*
X77525523Y-115072438D02*
X77620761Y-115167676D01*
X77620761Y-115167676D02*
X77668380Y-115262914D01*
X77668380Y-115262914D02*
X77715999Y-115453390D01*
X77715999Y-115453390D02*
X77715999Y-115596247D01*
X77715999Y-115596247D02*
X77668380Y-115786723D01*
X77668380Y-115786723D02*
X77620761Y-115881961D01*
X77620761Y-115881961D02*
X77525523Y-115977200D01*
X77525523Y-115977200D02*
X77382666Y-116024819D01*
X77382666Y-116024819D02*
X77144571Y-116024819D01*
X78096952Y-115120057D02*
X78144571Y-115072438D01*
X78144571Y-115072438D02*
X78239809Y-115024819D01*
X78239809Y-115024819D02*
X78477904Y-115024819D01*
X78477904Y-115024819D02*
X78573142Y-115072438D01*
X78573142Y-115072438D02*
X78620761Y-115120057D01*
X78620761Y-115120057D02*
X78668380Y-115215295D01*
X78668380Y-115215295D02*
X78668380Y-115310533D01*
X78668380Y-115310533D02*
X78620761Y-115453390D01*
X78620761Y-115453390D02*
X78049333Y-116024819D01*
X78049333Y-116024819D02*
X78668380Y-116024819D01*
X111771580Y-99702857D02*
X111819200Y-99750476D01*
X111819200Y-99750476D02*
X111866819Y-99893333D01*
X111866819Y-99893333D02*
X111866819Y-99988571D01*
X111866819Y-99988571D02*
X111819200Y-100131428D01*
X111819200Y-100131428D02*
X111723961Y-100226666D01*
X111723961Y-100226666D02*
X111628723Y-100274285D01*
X111628723Y-100274285D02*
X111438247Y-100321904D01*
X111438247Y-100321904D02*
X111295390Y-100321904D01*
X111295390Y-100321904D02*
X111104914Y-100274285D01*
X111104914Y-100274285D02*
X111009676Y-100226666D01*
X111009676Y-100226666D02*
X110914438Y-100131428D01*
X110914438Y-100131428D02*
X110866819Y-99988571D01*
X110866819Y-99988571D02*
X110866819Y-99893333D01*
X110866819Y-99893333D02*
X110914438Y-99750476D01*
X110914438Y-99750476D02*
X110962057Y-99702857D01*
X111866819Y-98750476D02*
X111866819Y-99321904D01*
X111866819Y-99036190D02*
X110866819Y-99036190D01*
X110866819Y-99036190D02*
X111009676Y-99131428D01*
X111009676Y-99131428D02*
X111104914Y-99226666D01*
X111104914Y-99226666D02*
X111152533Y-99321904D01*
X110962057Y-98369523D02*
X110914438Y-98321904D01*
X110914438Y-98321904D02*
X110866819Y-98226666D01*
X110866819Y-98226666D02*
X110866819Y-97988571D01*
X110866819Y-97988571D02*
X110914438Y-97893333D01*
X110914438Y-97893333D02*
X110962057Y-97845714D01*
X110962057Y-97845714D02*
X111057295Y-97798095D01*
X111057295Y-97798095D02*
X111152533Y-97798095D01*
X111152533Y-97798095D02*
X111295390Y-97845714D01*
X111295390Y-97845714D02*
X111866819Y-98417142D01*
X111866819Y-98417142D02*
X111866819Y-97798095D01*
X120505200Y-62929332D02*
X120552819Y-62786475D01*
X120552819Y-62786475D02*
X120552819Y-62548380D01*
X120552819Y-62548380D02*
X120505200Y-62453142D01*
X120505200Y-62453142D02*
X120457580Y-62405523D01*
X120457580Y-62405523D02*
X120362342Y-62357904D01*
X120362342Y-62357904D02*
X120267104Y-62357904D01*
X120267104Y-62357904D02*
X120171866Y-62405523D01*
X120171866Y-62405523D02*
X120124247Y-62453142D01*
X120124247Y-62453142D02*
X120076628Y-62548380D01*
X120076628Y-62548380D02*
X120029009Y-62738856D01*
X120029009Y-62738856D02*
X119981390Y-62834094D01*
X119981390Y-62834094D02*
X119933771Y-62881713D01*
X119933771Y-62881713D02*
X119838533Y-62929332D01*
X119838533Y-62929332D02*
X119743295Y-62929332D01*
X119743295Y-62929332D02*
X119648057Y-62881713D01*
X119648057Y-62881713D02*
X119600438Y-62834094D01*
X119600438Y-62834094D02*
X119552819Y-62738856D01*
X119552819Y-62738856D02*
X119552819Y-62500761D01*
X119552819Y-62500761D02*
X119600438Y-62357904D01*
X119552819Y-62024570D02*
X120552819Y-61786475D01*
X120552819Y-61786475D02*
X119838533Y-61595999D01*
X119838533Y-61595999D02*
X120552819Y-61405523D01*
X120552819Y-61405523D02*
X119552819Y-61167428D01*
X120552819Y-60262666D02*
X120552819Y-60834094D01*
X120552819Y-60548380D02*
X119552819Y-60548380D01*
X119552819Y-60548380D02*
X119695676Y-60643618D01*
X119695676Y-60643618D02*
X119790914Y-60738856D01*
X119790914Y-60738856D02*
X119838533Y-60834094D01*
X86305580Y-51709857D02*
X86353200Y-51757476D01*
X86353200Y-51757476D02*
X86400819Y-51900333D01*
X86400819Y-51900333D02*
X86400819Y-51995571D01*
X86400819Y-51995571D02*
X86353200Y-52138428D01*
X86353200Y-52138428D02*
X86257961Y-52233666D01*
X86257961Y-52233666D02*
X86162723Y-52281285D01*
X86162723Y-52281285D02*
X85972247Y-52328904D01*
X85972247Y-52328904D02*
X85829390Y-52328904D01*
X85829390Y-52328904D02*
X85638914Y-52281285D01*
X85638914Y-52281285D02*
X85543676Y-52233666D01*
X85543676Y-52233666D02*
X85448438Y-52138428D01*
X85448438Y-52138428D02*
X85400819Y-51995571D01*
X85400819Y-51995571D02*
X85400819Y-51900333D01*
X85400819Y-51900333D02*
X85448438Y-51757476D01*
X85448438Y-51757476D02*
X85496057Y-51709857D01*
X86400819Y-50757476D02*
X86400819Y-51328904D01*
X86400819Y-51043190D02*
X85400819Y-51043190D01*
X85400819Y-51043190D02*
X85543676Y-51138428D01*
X85543676Y-51138428D02*
X85638914Y-51233666D01*
X85638914Y-51233666D02*
X85686533Y-51328904D01*
X85400819Y-49900333D02*
X85400819Y-50090809D01*
X85400819Y-50090809D02*
X85448438Y-50186047D01*
X85448438Y-50186047D02*
X85496057Y-50233666D01*
X85496057Y-50233666D02*
X85638914Y-50328904D01*
X85638914Y-50328904D02*
X85829390Y-50376523D01*
X85829390Y-50376523D02*
X86210342Y-50376523D01*
X86210342Y-50376523D02*
X86305580Y-50328904D01*
X86305580Y-50328904D02*
X86353200Y-50281285D01*
X86353200Y-50281285D02*
X86400819Y-50186047D01*
X86400819Y-50186047D02*
X86400819Y-49995571D01*
X86400819Y-49995571D02*
X86353200Y-49900333D01*
X86353200Y-49900333D02*
X86305580Y-49852714D01*
X86305580Y-49852714D02*
X86210342Y-49805095D01*
X86210342Y-49805095D02*
X85972247Y-49805095D01*
X85972247Y-49805095D02*
X85877009Y-49852714D01*
X85877009Y-49852714D02*
X85829390Y-49900333D01*
X85829390Y-49900333D02*
X85781771Y-49995571D01*
X85781771Y-49995571D02*
X85781771Y-50186047D01*
X85781771Y-50186047D02*
X85829390Y-50281285D01*
X85829390Y-50281285D02*
X85877009Y-50328904D01*
X85877009Y-50328904D02*
X85972247Y-50376523D01*
X118792666Y-46840819D02*
X118792666Y-47555104D01*
X118792666Y-47555104D02*
X118745047Y-47697961D01*
X118745047Y-47697961D02*
X118649809Y-47793200D01*
X118649809Y-47793200D02*
X118506952Y-47840819D01*
X118506952Y-47840819D02*
X118411714Y-47840819D01*
X119459333Y-46840819D02*
X119554571Y-46840819D01*
X119554571Y-46840819D02*
X119649809Y-46888438D01*
X119649809Y-46888438D02*
X119697428Y-46936057D01*
X119697428Y-46936057D02*
X119745047Y-47031295D01*
X119745047Y-47031295D02*
X119792666Y-47221771D01*
X119792666Y-47221771D02*
X119792666Y-47459866D01*
X119792666Y-47459866D02*
X119745047Y-47650342D01*
X119745047Y-47650342D02*
X119697428Y-47745580D01*
X119697428Y-47745580D02*
X119649809Y-47793200D01*
X119649809Y-47793200D02*
X119554571Y-47840819D01*
X119554571Y-47840819D02*
X119459333Y-47840819D01*
X119459333Y-47840819D02*
X119364095Y-47793200D01*
X119364095Y-47793200D02*
X119316476Y-47745580D01*
X119316476Y-47745580D02*
X119268857Y-47650342D01*
X119268857Y-47650342D02*
X119221238Y-47459866D01*
X119221238Y-47459866D02*
X119221238Y-47221771D01*
X119221238Y-47221771D02*
X119268857Y-47031295D01*
X119268857Y-47031295D02*
X119316476Y-46936057D01*
X119316476Y-46936057D02*
X119364095Y-46888438D01*
X119364095Y-46888438D02*
X119459333Y-46840819D01*
X100944142Y-49287580D02*
X100896523Y-49335200D01*
X100896523Y-49335200D02*
X100753666Y-49382819D01*
X100753666Y-49382819D02*
X100658428Y-49382819D01*
X100658428Y-49382819D02*
X100515571Y-49335200D01*
X100515571Y-49335200D02*
X100420333Y-49239961D01*
X100420333Y-49239961D02*
X100372714Y-49144723D01*
X100372714Y-49144723D02*
X100325095Y-48954247D01*
X100325095Y-48954247D02*
X100325095Y-48811390D01*
X100325095Y-48811390D02*
X100372714Y-48620914D01*
X100372714Y-48620914D02*
X100420333Y-48525676D01*
X100420333Y-48525676D02*
X100515571Y-48430438D01*
X100515571Y-48430438D02*
X100658428Y-48382819D01*
X100658428Y-48382819D02*
X100753666Y-48382819D01*
X100753666Y-48382819D02*
X100896523Y-48430438D01*
X100896523Y-48430438D02*
X100944142Y-48478057D01*
X101896523Y-49382819D02*
X101325095Y-49382819D01*
X101610809Y-49382819D02*
X101610809Y-48382819D01*
X101610809Y-48382819D02*
X101515571Y-48525676D01*
X101515571Y-48525676D02*
X101420333Y-48620914D01*
X101420333Y-48620914D02*
X101325095Y-48668533D01*
X102753666Y-48716152D02*
X102753666Y-49382819D01*
X102515571Y-48335200D02*
X102277476Y-49049485D01*
X102277476Y-49049485D02*
X102896523Y-49049485D01*
X111451580Y-74048857D02*
X111499200Y-74096476D01*
X111499200Y-74096476D02*
X111546819Y-74239333D01*
X111546819Y-74239333D02*
X111546819Y-74334571D01*
X111546819Y-74334571D02*
X111499200Y-74477428D01*
X111499200Y-74477428D02*
X111403961Y-74572666D01*
X111403961Y-74572666D02*
X111308723Y-74620285D01*
X111308723Y-74620285D02*
X111118247Y-74667904D01*
X111118247Y-74667904D02*
X110975390Y-74667904D01*
X110975390Y-74667904D02*
X110784914Y-74620285D01*
X110784914Y-74620285D02*
X110689676Y-74572666D01*
X110689676Y-74572666D02*
X110594438Y-74477428D01*
X110594438Y-74477428D02*
X110546819Y-74334571D01*
X110546819Y-74334571D02*
X110546819Y-74239333D01*
X110546819Y-74239333D02*
X110594438Y-74096476D01*
X110594438Y-74096476D02*
X110642057Y-74048857D01*
X111546819Y-73096476D02*
X111546819Y-73667904D01*
X111546819Y-73382190D02*
X110546819Y-73382190D01*
X110546819Y-73382190D02*
X110689676Y-73477428D01*
X110689676Y-73477428D02*
X110784914Y-73572666D01*
X110784914Y-73572666D02*
X110832533Y-73667904D01*
X110546819Y-72477428D02*
X110546819Y-72382190D01*
X110546819Y-72382190D02*
X110594438Y-72286952D01*
X110594438Y-72286952D02*
X110642057Y-72239333D01*
X110642057Y-72239333D02*
X110737295Y-72191714D01*
X110737295Y-72191714D02*
X110927771Y-72144095D01*
X110927771Y-72144095D02*
X111165866Y-72144095D01*
X111165866Y-72144095D02*
X111356342Y-72191714D01*
X111356342Y-72191714D02*
X111451580Y-72239333D01*
X111451580Y-72239333D02*
X111499200Y-72286952D01*
X111499200Y-72286952D02*
X111546819Y-72382190D01*
X111546819Y-72382190D02*
X111546819Y-72477428D01*
X111546819Y-72477428D02*
X111499200Y-72572666D01*
X111499200Y-72572666D02*
X111451580Y-72620285D01*
X111451580Y-72620285D02*
X111356342Y-72667904D01*
X111356342Y-72667904D02*
X111165866Y-72715523D01*
X111165866Y-72715523D02*
X110927771Y-72715523D01*
X110927771Y-72715523D02*
X110737295Y-72667904D01*
X110737295Y-72667904D02*
X110642057Y-72620285D01*
X110642057Y-72620285D02*
X110594438Y-72572666D01*
X110594438Y-72572666D02*
X110546819Y-72477428D01*
X117105580Y-99213666D02*
X117153200Y-99261285D01*
X117153200Y-99261285D02*
X117200819Y-99404142D01*
X117200819Y-99404142D02*
X117200819Y-99499380D01*
X117200819Y-99499380D02*
X117153200Y-99642237D01*
X117153200Y-99642237D02*
X117057961Y-99737475D01*
X117057961Y-99737475D02*
X116962723Y-99785094D01*
X116962723Y-99785094D02*
X116772247Y-99832713D01*
X116772247Y-99832713D02*
X116629390Y-99832713D01*
X116629390Y-99832713D02*
X116438914Y-99785094D01*
X116438914Y-99785094D02*
X116343676Y-99737475D01*
X116343676Y-99737475D02*
X116248438Y-99642237D01*
X116248438Y-99642237D02*
X116200819Y-99499380D01*
X116200819Y-99499380D02*
X116200819Y-99404142D01*
X116200819Y-99404142D02*
X116248438Y-99261285D01*
X116248438Y-99261285D02*
X116296057Y-99213666D01*
X116200819Y-98880332D02*
X116200819Y-98213666D01*
X116200819Y-98213666D02*
X117200819Y-98642237D01*
X66588819Y-86817666D02*
X66112628Y-87150999D01*
X66588819Y-87389094D02*
X65588819Y-87389094D01*
X65588819Y-87389094D02*
X65588819Y-87008142D01*
X65588819Y-87008142D02*
X65636438Y-86912904D01*
X65636438Y-86912904D02*
X65684057Y-86865285D01*
X65684057Y-86865285D02*
X65779295Y-86817666D01*
X65779295Y-86817666D02*
X65922152Y-86817666D01*
X65922152Y-86817666D02*
X66017390Y-86865285D01*
X66017390Y-86865285D02*
X66065009Y-86912904D01*
X66065009Y-86912904D02*
X66112628Y-87008142D01*
X66112628Y-87008142D02*
X66112628Y-87389094D01*
X66588819Y-86341475D02*
X66588819Y-86150999D01*
X66588819Y-86150999D02*
X66541200Y-86055761D01*
X66541200Y-86055761D02*
X66493580Y-86008142D01*
X66493580Y-86008142D02*
X66350723Y-85912904D01*
X66350723Y-85912904D02*
X66160247Y-85865285D01*
X66160247Y-85865285D02*
X65779295Y-85865285D01*
X65779295Y-85865285D02*
X65684057Y-85912904D01*
X65684057Y-85912904D02*
X65636438Y-85960523D01*
X65636438Y-85960523D02*
X65588819Y-86055761D01*
X65588819Y-86055761D02*
X65588819Y-86246237D01*
X65588819Y-86246237D02*
X65636438Y-86341475D01*
X65636438Y-86341475D02*
X65684057Y-86389094D01*
X65684057Y-86389094D02*
X65779295Y-86436713D01*
X65779295Y-86436713D02*
X66017390Y-86436713D01*
X66017390Y-86436713D02*
X66112628Y-86389094D01*
X66112628Y-86389094D02*
X66160247Y-86341475D01*
X66160247Y-86341475D02*
X66207866Y-86246237D01*
X66207866Y-86246237D02*
X66207866Y-86055761D01*
X66207866Y-86055761D02*
X66160247Y-85960523D01*
X66160247Y-85960523D02*
X66112628Y-85912904D01*
X66112628Y-85912904D02*
X66017390Y-85865285D01*
X103484819Y-95670666D02*
X103008628Y-96003999D01*
X103484819Y-96242094D02*
X102484819Y-96242094D01*
X102484819Y-96242094D02*
X102484819Y-95861142D01*
X102484819Y-95861142D02*
X102532438Y-95765904D01*
X102532438Y-95765904D02*
X102580057Y-95718285D01*
X102580057Y-95718285D02*
X102675295Y-95670666D01*
X102675295Y-95670666D02*
X102818152Y-95670666D01*
X102818152Y-95670666D02*
X102913390Y-95718285D01*
X102913390Y-95718285D02*
X102961009Y-95765904D01*
X102961009Y-95765904D02*
X103008628Y-95861142D01*
X103008628Y-95861142D02*
X103008628Y-96242094D01*
X102484819Y-95337332D02*
X102484819Y-94670666D01*
X102484819Y-94670666D02*
X103484819Y-95099237D01*
X111706819Y-62206094D02*
X110706819Y-62206094D01*
X110706819Y-62206094D02*
X110706819Y-61967999D01*
X110706819Y-61967999D02*
X110754438Y-61825142D01*
X110754438Y-61825142D02*
X110849676Y-61729904D01*
X110849676Y-61729904D02*
X110944914Y-61682285D01*
X110944914Y-61682285D02*
X111135390Y-61634666D01*
X111135390Y-61634666D02*
X111278247Y-61634666D01*
X111278247Y-61634666D02*
X111468723Y-61682285D01*
X111468723Y-61682285D02*
X111563961Y-61729904D01*
X111563961Y-61729904D02*
X111659200Y-61825142D01*
X111659200Y-61825142D02*
X111706819Y-61967999D01*
X111706819Y-61967999D02*
X111706819Y-62206094D01*
X111706819Y-60682285D02*
X111706819Y-61253713D01*
X111706819Y-60967999D02*
X110706819Y-60967999D01*
X110706819Y-60967999D02*
X110849676Y-61063237D01*
X110849676Y-61063237D02*
X110944914Y-61158475D01*
X110944914Y-61158475D02*
X110992533Y-61253713D01*
X88416333Y-94340819D02*
X88083000Y-93864628D01*
X87844905Y-94340819D02*
X87844905Y-93340819D01*
X87844905Y-93340819D02*
X88225857Y-93340819D01*
X88225857Y-93340819D02*
X88321095Y-93388438D01*
X88321095Y-93388438D02*
X88368714Y-93436057D01*
X88368714Y-93436057D02*
X88416333Y-93531295D01*
X88416333Y-93531295D02*
X88416333Y-93674152D01*
X88416333Y-93674152D02*
X88368714Y-93769390D01*
X88368714Y-93769390D02*
X88321095Y-93817009D01*
X88321095Y-93817009D02*
X88225857Y-93864628D01*
X88225857Y-93864628D02*
X87844905Y-93864628D01*
X88797286Y-93436057D02*
X88844905Y-93388438D01*
X88844905Y-93388438D02*
X88940143Y-93340819D01*
X88940143Y-93340819D02*
X89178238Y-93340819D01*
X89178238Y-93340819D02*
X89273476Y-93388438D01*
X89273476Y-93388438D02*
X89321095Y-93436057D01*
X89321095Y-93436057D02*
X89368714Y-93531295D01*
X89368714Y-93531295D02*
X89368714Y-93626533D01*
X89368714Y-93626533D02*
X89321095Y-93769390D01*
X89321095Y-93769390D02*
X88749667Y-94340819D01*
X88749667Y-94340819D02*
X89368714Y-94340819D01*
X75494142Y-90210819D02*
X75160809Y-89734628D01*
X74922714Y-90210819D02*
X74922714Y-89210819D01*
X74922714Y-89210819D02*
X75303666Y-89210819D01*
X75303666Y-89210819D02*
X75398904Y-89258438D01*
X75398904Y-89258438D02*
X75446523Y-89306057D01*
X75446523Y-89306057D02*
X75494142Y-89401295D01*
X75494142Y-89401295D02*
X75494142Y-89544152D01*
X75494142Y-89544152D02*
X75446523Y-89639390D01*
X75446523Y-89639390D02*
X75398904Y-89687009D01*
X75398904Y-89687009D02*
X75303666Y-89734628D01*
X75303666Y-89734628D02*
X74922714Y-89734628D01*
X76446523Y-90210819D02*
X75875095Y-90210819D01*
X76160809Y-90210819D02*
X76160809Y-89210819D01*
X76160809Y-89210819D02*
X76065571Y-89353676D01*
X76065571Y-89353676D02*
X75970333Y-89448914D01*
X75970333Y-89448914D02*
X75875095Y-89496533D01*
X76827476Y-89306057D02*
X76875095Y-89258438D01*
X76875095Y-89258438D02*
X76970333Y-89210819D01*
X76970333Y-89210819D02*
X77208428Y-89210819D01*
X77208428Y-89210819D02*
X77303666Y-89258438D01*
X77303666Y-89258438D02*
X77351285Y-89306057D01*
X77351285Y-89306057D02*
X77398904Y-89401295D01*
X77398904Y-89401295D02*
X77398904Y-89496533D01*
X77398904Y-89496533D02*
X77351285Y-89639390D01*
X77351285Y-89639390D02*
X76779857Y-90210819D01*
X76779857Y-90210819D02*
X77398904Y-90210819D01*
X72909580Y-86767666D02*
X72957200Y-86815285D01*
X72957200Y-86815285D02*
X73004819Y-86958142D01*
X73004819Y-86958142D02*
X73004819Y-87053380D01*
X73004819Y-87053380D02*
X72957200Y-87196237D01*
X72957200Y-87196237D02*
X72861961Y-87291475D01*
X72861961Y-87291475D02*
X72766723Y-87339094D01*
X72766723Y-87339094D02*
X72576247Y-87386713D01*
X72576247Y-87386713D02*
X72433390Y-87386713D01*
X72433390Y-87386713D02*
X72242914Y-87339094D01*
X72242914Y-87339094D02*
X72147676Y-87291475D01*
X72147676Y-87291475D02*
X72052438Y-87196237D01*
X72052438Y-87196237D02*
X72004819Y-87053380D01*
X72004819Y-87053380D02*
X72004819Y-86958142D01*
X72004819Y-86958142D02*
X72052438Y-86815285D01*
X72052438Y-86815285D02*
X72100057Y-86767666D01*
X72004819Y-86434332D02*
X72004819Y-85815285D01*
X72004819Y-85815285D02*
X72385771Y-86148618D01*
X72385771Y-86148618D02*
X72385771Y-86005761D01*
X72385771Y-86005761D02*
X72433390Y-85910523D01*
X72433390Y-85910523D02*
X72481009Y-85862904D01*
X72481009Y-85862904D02*
X72576247Y-85815285D01*
X72576247Y-85815285D02*
X72814342Y-85815285D01*
X72814342Y-85815285D02*
X72909580Y-85862904D01*
X72909580Y-85862904D02*
X72957200Y-85910523D01*
X72957200Y-85910523D02*
X73004819Y-86005761D01*
X73004819Y-86005761D02*
X73004819Y-86291475D01*
X73004819Y-86291475D02*
X72957200Y-86386713D01*
X72957200Y-86386713D02*
X72909580Y-86434332D01*
X100944142Y-65035580D02*
X100896523Y-65083200D01*
X100896523Y-65083200D02*
X100753666Y-65130819D01*
X100753666Y-65130819D02*
X100658428Y-65130819D01*
X100658428Y-65130819D02*
X100515571Y-65083200D01*
X100515571Y-65083200D02*
X100420333Y-64987961D01*
X100420333Y-64987961D02*
X100372714Y-64892723D01*
X100372714Y-64892723D02*
X100325095Y-64702247D01*
X100325095Y-64702247D02*
X100325095Y-64559390D01*
X100325095Y-64559390D02*
X100372714Y-64368914D01*
X100372714Y-64368914D02*
X100420333Y-64273676D01*
X100420333Y-64273676D02*
X100515571Y-64178438D01*
X100515571Y-64178438D02*
X100658428Y-64130819D01*
X100658428Y-64130819D02*
X100753666Y-64130819D01*
X100753666Y-64130819D02*
X100896523Y-64178438D01*
X100896523Y-64178438D02*
X100944142Y-64226057D01*
X101896523Y-65130819D02*
X101325095Y-65130819D01*
X101610809Y-65130819D02*
X101610809Y-64130819D01*
X101610809Y-64130819D02*
X101515571Y-64273676D01*
X101515571Y-64273676D02*
X101420333Y-64368914D01*
X101420333Y-64368914D02*
X101325095Y-64416533D01*
X102801285Y-64130819D02*
X102325095Y-64130819D01*
X102325095Y-64130819D02*
X102277476Y-64607009D01*
X102277476Y-64607009D02*
X102325095Y-64559390D01*
X102325095Y-64559390D02*
X102420333Y-64511771D01*
X102420333Y-64511771D02*
X102658428Y-64511771D01*
X102658428Y-64511771D02*
X102753666Y-64559390D01*
X102753666Y-64559390D02*
X102801285Y-64607009D01*
X102801285Y-64607009D02*
X102848904Y-64702247D01*
X102848904Y-64702247D02*
X102848904Y-64940342D01*
X102848904Y-64940342D02*
X102801285Y-65035580D01*
X102801285Y-65035580D02*
X102753666Y-65083200D01*
X102753666Y-65083200D02*
X102658428Y-65130819D01*
X102658428Y-65130819D02*
X102420333Y-65130819D01*
X102420333Y-65130819D02*
X102325095Y-65083200D01*
X102325095Y-65083200D02*
X102277476Y-65035580D01*
X105435667Y-108393200D02*
X105578524Y-108440819D01*
X105578524Y-108440819D02*
X105816619Y-108440819D01*
X105816619Y-108440819D02*
X105911857Y-108393200D01*
X105911857Y-108393200D02*
X105959476Y-108345580D01*
X105959476Y-108345580D02*
X106007095Y-108250342D01*
X106007095Y-108250342D02*
X106007095Y-108155104D01*
X106007095Y-108155104D02*
X105959476Y-108059866D01*
X105959476Y-108059866D02*
X105911857Y-108012247D01*
X105911857Y-108012247D02*
X105816619Y-107964628D01*
X105816619Y-107964628D02*
X105626143Y-107917009D01*
X105626143Y-107917009D02*
X105530905Y-107869390D01*
X105530905Y-107869390D02*
X105483286Y-107821771D01*
X105483286Y-107821771D02*
X105435667Y-107726533D01*
X105435667Y-107726533D02*
X105435667Y-107631295D01*
X105435667Y-107631295D02*
X105483286Y-107536057D01*
X105483286Y-107536057D02*
X105530905Y-107488438D01*
X105530905Y-107488438D02*
X105626143Y-107440819D01*
X105626143Y-107440819D02*
X105864238Y-107440819D01*
X105864238Y-107440819D02*
X106007095Y-107488438D01*
X106340429Y-107440819D02*
X106578524Y-108440819D01*
X106578524Y-108440819D02*
X106769000Y-107726533D01*
X106769000Y-107726533D02*
X106959476Y-108440819D01*
X106959476Y-108440819D02*
X107197572Y-107440819D01*
X107483286Y-107440819D02*
X108102333Y-107440819D01*
X108102333Y-107440819D02*
X107769000Y-107821771D01*
X107769000Y-107821771D02*
X107911857Y-107821771D01*
X107911857Y-107821771D02*
X108007095Y-107869390D01*
X108007095Y-107869390D02*
X108054714Y-107917009D01*
X108054714Y-107917009D02*
X108102333Y-108012247D01*
X108102333Y-108012247D02*
X108102333Y-108250342D01*
X108102333Y-108250342D02*
X108054714Y-108345580D01*
X108054714Y-108345580D02*
X108007095Y-108393200D01*
X108007095Y-108393200D02*
X107911857Y-108440819D01*
X107911857Y-108440819D02*
X107626143Y-108440819D01*
X107626143Y-108440819D02*
X107530905Y-108393200D01*
X107530905Y-108393200D02*
X107483286Y-108345580D01*
D11*
X97045794Y-103775887D02*
X97045794Y-103455866D01*
X97045794Y-103455866D02*
X97121989Y-103455866D01*
X97121989Y-103455866D02*
X97167707Y-103471105D01*
X97167707Y-103471105D02*
X97198185Y-103501583D01*
X97198185Y-103501583D02*
X97213424Y-103532061D01*
X97213424Y-103532061D02*
X97228663Y-103593017D01*
X97228663Y-103593017D02*
X97228663Y-103638735D01*
X97228663Y-103638735D02*
X97213424Y-103699691D01*
X97213424Y-103699691D02*
X97198185Y-103730169D01*
X97198185Y-103730169D02*
X97167707Y-103760648D01*
X97167707Y-103760648D02*
X97121989Y-103775887D01*
X97121989Y-103775887D02*
X97045794Y-103775887D01*
X97411532Y-103593017D02*
X97381054Y-103577778D01*
X97381054Y-103577778D02*
X97365815Y-103562539D01*
X97365815Y-103562539D02*
X97350576Y-103532061D01*
X97350576Y-103532061D02*
X97350576Y-103516822D01*
X97350576Y-103516822D02*
X97365815Y-103486344D01*
X97365815Y-103486344D02*
X97381054Y-103471105D01*
X97381054Y-103471105D02*
X97411532Y-103455866D01*
X97411532Y-103455866D02*
X97472489Y-103455866D01*
X97472489Y-103455866D02*
X97502967Y-103471105D01*
X97502967Y-103471105D02*
X97518206Y-103486344D01*
X97518206Y-103486344D02*
X97533445Y-103516822D01*
X97533445Y-103516822D02*
X97533445Y-103532061D01*
X97533445Y-103532061D02*
X97518206Y-103562539D01*
X97518206Y-103562539D02*
X97502967Y-103577778D01*
X97502967Y-103577778D02*
X97472489Y-103593017D01*
X97472489Y-103593017D02*
X97411532Y-103593017D01*
X97411532Y-103593017D02*
X97381054Y-103608257D01*
X97381054Y-103608257D02*
X97365815Y-103623496D01*
X97365815Y-103623496D02*
X97350576Y-103653974D01*
X97350576Y-103653974D02*
X97350576Y-103714930D01*
X97350576Y-103714930D02*
X97365815Y-103745408D01*
X97365815Y-103745408D02*
X97381054Y-103760648D01*
X97381054Y-103760648D02*
X97411532Y-103775887D01*
X97411532Y-103775887D02*
X97472489Y-103775887D01*
X97472489Y-103775887D02*
X97502967Y-103760648D01*
X97502967Y-103760648D02*
X97518206Y-103745408D01*
X97518206Y-103745408D02*
X97533445Y-103714930D01*
X97533445Y-103714930D02*
X97533445Y-103653974D01*
X97533445Y-103653974D02*
X97518206Y-103623496D01*
X97518206Y-103623496D02*
X97502967Y-103608257D01*
X97502967Y-103608257D02*
X97472489Y-103593017D01*
D10*
X118009200Y-77622332D02*
X118056819Y-77479475D01*
X118056819Y-77479475D02*
X118056819Y-77241380D01*
X118056819Y-77241380D02*
X118009200Y-77146142D01*
X118009200Y-77146142D02*
X117961580Y-77098523D01*
X117961580Y-77098523D02*
X117866342Y-77050904D01*
X117866342Y-77050904D02*
X117771104Y-77050904D01*
X117771104Y-77050904D02*
X117675866Y-77098523D01*
X117675866Y-77098523D02*
X117628247Y-77146142D01*
X117628247Y-77146142D02*
X117580628Y-77241380D01*
X117580628Y-77241380D02*
X117533009Y-77431856D01*
X117533009Y-77431856D02*
X117485390Y-77527094D01*
X117485390Y-77527094D02*
X117437771Y-77574713D01*
X117437771Y-77574713D02*
X117342533Y-77622332D01*
X117342533Y-77622332D02*
X117247295Y-77622332D01*
X117247295Y-77622332D02*
X117152057Y-77574713D01*
X117152057Y-77574713D02*
X117104438Y-77527094D01*
X117104438Y-77527094D02*
X117056819Y-77431856D01*
X117056819Y-77431856D02*
X117056819Y-77193761D01*
X117056819Y-77193761D02*
X117104438Y-77050904D01*
X117056819Y-76717570D02*
X118056819Y-76479475D01*
X118056819Y-76479475D02*
X117342533Y-76288999D01*
X117342533Y-76288999D02*
X118056819Y-76098523D01*
X118056819Y-76098523D02*
X117056819Y-75860428D01*
X117390152Y-75050904D02*
X118056819Y-75050904D01*
X117009200Y-75288999D02*
X117723485Y-75527094D01*
X117723485Y-75527094D02*
X117723485Y-74908047D01*
D11*
X101379761Y-100347627D02*
X101379761Y-100027606D01*
X101379761Y-100027606D02*
X101455956Y-100027606D01*
X101455956Y-100027606D02*
X101501674Y-100042845D01*
X101501674Y-100042845D02*
X101532152Y-100073323D01*
X101532152Y-100073323D02*
X101547391Y-100103801D01*
X101547391Y-100103801D02*
X101562630Y-100164757D01*
X101562630Y-100164757D02*
X101562630Y-100210475D01*
X101562630Y-100210475D02*
X101547391Y-100271431D01*
X101547391Y-100271431D02*
X101532152Y-100301909D01*
X101532152Y-100301909D02*
X101501674Y-100332388D01*
X101501674Y-100332388D02*
X101455956Y-100347627D01*
X101455956Y-100347627D02*
X101379761Y-100347627D01*
X101715021Y-100347627D02*
X101775977Y-100347627D01*
X101775977Y-100347627D02*
X101806456Y-100332388D01*
X101806456Y-100332388D02*
X101821695Y-100317148D01*
X101821695Y-100317148D02*
X101852173Y-100271431D01*
X101852173Y-100271431D02*
X101867412Y-100210475D01*
X101867412Y-100210475D02*
X101867412Y-100088562D01*
X101867412Y-100088562D02*
X101852173Y-100058084D01*
X101852173Y-100058084D02*
X101836934Y-100042845D01*
X101836934Y-100042845D02*
X101806456Y-100027606D01*
X101806456Y-100027606D02*
X101745499Y-100027606D01*
X101745499Y-100027606D02*
X101715021Y-100042845D01*
X101715021Y-100042845D02*
X101699782Y-100058084D01*
X101699782Y-100058084D02*
X101684543Y-100088562D01*
X101684543Y-100088562D02*
X101684543Y-100164757D01*
X101684543Y-100164757D02*
X101699782Y-100195236D01*
X101699782Y-100195236D02*
X101715021Y-100210475D01*
X101715021Y-100210475D02*
X101745499Y-100225714D01*
X101745499Y-100225714D02*
X101806456Y-100225714D01*
X101806456Y-100225714D02*
X101836934Y-100210475D01*
X101836934Y-100210475D02*
X101852173Y-100195236D01*
X101852173Y-100195236D02*
X101867412Y-100164757D01*
D10*
X80877580Y-63634857D02*
X80925200Y-63682476D01*
X80925200Y-63682476D02*
X80972819Y-63825333D01*
X80972819Y-63825333D02*
X80972819Y-63920571D01*
X80972819Y-63920571D02*
X80925200Y-64063428D01*
X80925200Y-64063428D02*
X80829961Y-64158666D01*
X80829961Y-64158666D02*
X80734723Y-64206285D01*
X80734723Y-64206285D02*
X80544247Y-64253904D01*
X80544247Y-64253904D02*
X80401390Y-64253904D01*
X80401390Y-64253904D02*
X80210914Y-64206285D01*
X80210914Y-64206285D02*
X80115676Y-64158666D01*
X80115676Y-64158666D02*
X80020438Y-64063428D01*
X80020438Y-64063428D02*
X79972819Y-63920571D01*
X79972819Y-63920571D02*
X79972819Y-63825333D01*
X79972819Y-63825333D02*
X80020438Y-63682476D01*
X80020438Y-63682476D02*
X80068057Y-63634857D01*
X80972819Y-62682476D02*
X80972819Y-63253904D01*
X80972819Y-62968190D02*
X79972819Y-62968190D01*
X79972819Y-62968190D02*
X80115676Y-63063428D01*
X80115676Y-63063428D02*
X80210914Y-63158666D01*
X80210914Y-63158666D02*
X80258533Y-63253904D01*
X80972819Y-62206285D02*
X80972819Y-62015809D01*
X80972819Y-62015809D02*
X80925200Y-61920571D01*
X80925200Y-61920571D02*
X80877580Y-61872952D01*
X80877580Y-61872952D02*
X80734723Y-61777714D01*
X80734723Y-61777714D02*
X80544247Y-61730095D01*
X80544247Y-61730095D02*
X80163295Y-61730095D01*
X80163295Y-61730095D02*
X80068057Y-61777714D01*
X80068057Y-61777714D02*
X80020438Y-61825333D01*
X80020438Y-61825333D02*
X79972819Y-61920571D01*
X79972819Y-61920571D02*
X79972819Y-62111047D01*
X79972819Y-62111047D02*
X80020438Y-62206285D01*
X80020438Y-62206285D02*
X80068057Y-62253904D01*
X80068057Y-62253904D02*
X80163295Y-62301523D01*
X80163295Y-62301523D02*
X80401390Y-62301523D01*
X80401390Y-62301523D02*
X80496628Y-62253904D01*
X80496628Y-62253904D02*
X80544247Y-62206285D01*
X80544247Y-62206285D02*
X80591866Y-62111047D01*
X80591866Y-62111047D02*
X80591866Y-61920571D01*
X80591866Y-61920571D02*
X80544247Y-61825333D01*
X80544247Y-61825333D02*
X80496628Y-61777714D01*
X80496628Y-61777714D02*
X80401390Y-61730095D01*
X76306819Y-70175857D02*
X75830628Y-70509190D01*
X76306819Y-70747285D02*
X75306819Y-70747285D01*
X75306819Y-70747285D02*
X75306819Y-70366333D01*
X75306819Y-70366333D02*
X75354438Y-70271095D01*
X75354438Y-70271095D02*
X75402057Y-70223476D01*
X75402057Y-70223476D02*
X75497295Y-70175857D01*
X75497295Y-70175857D02*
X75640152Y-70175857D01*
X75640152Y-70175857D02*
X75735390Y-70223476D01*
X75735390Y-70223476D02*
X75783009Y-70271095D01*
X75783009Y-70271095D02*
X75830628Y-70366333D01*
X75830628Y-70366333D02*
X75830628Y-70747285D01*
X76306819Y-69223476D02*
X76306819Y-69794904D01*
X76306819Y-69509190D02*
X75306819Y-69509190D01*
X75306819Y-69509190D02*
X75449676Y-69604428D01*
X75449676Y-69604428D02*
X75544914Y-69699666D01*
X75544914Y-69699666D02*
X75592533Y-69794904D01*
X76306819Y-68271095D02*
X76306819Y-68842523D01*
X76306819Y-68556809D02*
X75306819Y-68556809D01*
X75306819Y-68556809D02*
X75449676Y-68652047D01*
X75449676Y-68652047D02*
X75544914Y-68747285D01*
X75544914Y-68747285D02*
X75592533Y-68842523D01*
X97896819Y-91543666D02*
X97420628Y-91876999D01*
X97896819Y-92115094D02*
X96896819Y-92115094D01*
X96896819Y-92115094D02*
X96896819Y-91734142D01*
X96896819Y-91734142D02*
X96944438Y-91638904D01*
X96944438Y-91638904D02*
X96992057Y-91591285D01*
X96992057Y-91591285D02*
X97087295Y-91543666D01*
X97087295Y-91543666D02*
X97230152Y-91543666D01*
X97230152Y-91543666D02*
X97325390Y-91591285D01*
X97325390Y-91591285D02*
X97373009Y-91638904D01*
X97373009Y-91638904D02*
X97420628Y-91734142D01*
X97420628Y-91734142D02*
X97420628Y-92115094D01*
X96896819Y-90638904D02*
X96896819Y-91115094D01*
X96896819Y-91115094D02*
X97373009Y-91162713D01*
X97373009Y-91162713D02*
X97325390Y-91115094D01*
X97325390Y-91115094D02*
X97277771Y-91019856D01*
X97277771Y-91019856D02*
X97277771Y-90781761D01*
X97277771Y-90781761D02*
X97325390Y-90686523D01*
X97325390Y-90686523D02*
X97373009Y-90638904D01*
X97373009Y-90638904D02*
X97468247Y-90591285D01*
X97468247Y-90591285D02*
X97706342Y-90591285D01*
X97706342Y-90591285D02*
X97801580Y-90638904D01*
X97801580Y-90638904D02*
X97849200Y-90686523D01*
X97849200Y-90686523D02*
X97896819Y-90781761D01*
X97896819Y-90781761D02*
X97896819Y-91019856D01*
X97896819Y-91019856D02*
X97849200Y-91115094D01*
X97849200Y-91115094D02*
X97801580Y-91162713D01*
D11*
X91965794Y-100473887D02*
X91965794Y-100153866D01*
X91965794Y-100153866D02*
X92041989Y-100153866D01*
X92041989Y-100153866D02*
X92087707Y-100169105D01*
X92087707Y-100169105D02*
X92118185Y-100199583D01*
X92118185Y-100199583D02*
X92133424Y-100230061D01*
X92133424Y-100230061D02*
X92148663Y-100291017D01*
X92148663Y-100291017D02*
X92148663Y-100336735D01*
X92148663Y-100336735D02*
X92133424Y-100397691D01*
X92133424Y-100397691D02*
X92118185Y-100428169D01*
X92118185Y-100428169D02*
X92087707Y-100458648D01*
X92087707Y-100458648D02*
X92041989Y-100473887D01*
X92041989Y-100473887D02*
X91965794Y-100473887D01*
X92422967Y-100153866D02*
X92362010Y-100153866D01*
X92362010Y-100153866D02*
X92331532Y-100169105D01*
X92331532Y-100169105D02*
X92316293Y-100184344D01*
X92316293Y-100184344D02*
X92285815Y-100230061D01*
X92285815Y-100230061D02*
X92270576Y-100291017D01*
X92270576Y-100291017D02*
X92270576Y-100412930D01*
X92270576Y-100412930D02*
X92285815Y-100443408D01*
X92285815Y-100443408D02*
X92301054Y-100458648D01*
X92301054Y-100458648D02*
X92331532Y-100473887D01*
X92331532Y-100473887D02*
X92392489Y-100473887D01*
X92392489Y-100473887D02*
X92422967Y-100458648D01*
X92422967Y-100458648D02*
X92438206Y-100443408D01*
X92438206Y-100443408D02*
X92453445Y-100412930D01*
X92453445Y-100412930D02*
X92453445Y-100336735D01*
X92453445Y-100336735D02*
X92438206Y-100306257D01*
X92438206Y-100306257D02*
X92422967Y-100291017D01*
X92422967Y-100291017D02*
X92392489Y-100275778D01*
X92392489Y-100275778D02*
X92331532Y-100275778D01*
X92331532Y-100275778D02*
X92301054Y-100291017D01*
X92301054Y-100291017D02*
X92285815Y-100306257D01*
X92285815Y-100306257D02*
X92270576Y-100336735D01*
D10*
X79259580Y-55043666D02*
X79307200Y-55091285D01*
X79307200Y-55091285D02*
X79354819Y-55234142D01*
X79354819Y-55234142D02*
X79354819Y-55329380D01*
X79354819Y-55329380D02*
X79307200Y-55472237D01*
X79307200Y-55472237D02*
X79211961Y-55567475D01*
X79211961Y-55567475D02*
X79116723Y-55615094D01*
X79116723Y-55615094D02*
X78926247Y-55662713D01*
X78926247Y-55662713D02*
X78783390Y-55662713D01*
X78783390Y-55662713D02*
X78592914Y-55615094D01*
X78592914Y-55615094D02*
X78497676Y-55567475D01*
X78497676Y-55567475D02*
X78402438Y-55472237D01*
X78402438Y-55472237D02*
X78354819Y-55329380D01*
X78354819Y-55329380D02*
X78354819Y-55234142D01*
X78354819Y-55234142D02*
X78402438Y-55091285D01*
X78402438Y-55091285D02*
X78450057Y-55043666D01*
X78354819Y-54186523D02*
X78354819Y-54376999D01*
X78354819Y-54376999D02*
X78402438Y-54472237D01*
X78402438Y-54472237D02*
X78450057Y-54519856D01*
X78450057Y-54519856D02*
X78592914Y-54615094D01*
X78592914Y-54615094D02*
X78783390Y-54662713D01*
X78783390Y-54662713D02*
X79164342Y-54662713D01*
X79164342Y-54662713D02*
X79259580Y-54615094D01*
X79259580Y-54615094D02*
X79307200Y-54567475D01*
X79307200Y-54567475D02*
X79354819Y-54472237D01*
X79354819Y-54472237D02*
X79354819Y-54281761D01*
X79354819Y-54281761D02*
X79307200Y-54186523D01*
X79307200Y-54186523D02*
X79259580Y-54138904D01*
X79259580Y-54138904D02*
X79164342Y-54091285D01*
X79164342Y-54091285D02*
X78926247Y-54091285D01*
X78926247Y-54091285D02*
X78831009Y-54138904D01*
X78831009Y-54138904D02*
X78783390Y-54186523D01*
X78783390Y-54186523D02*
X78735771Y-54281761D01*
X78735771Y-54281761D02*
X78735771Y-54472237D01*
X78735771Y-54472237D02*
X78783390Y-54567475D01*
X78783390Y-54567475D02*
X78831009Y-54615094D01*
X78831009Y-54615094D02*
X78926247Y-54662713D01*
X75637580Y-101988857D02*
X75685200Y-102036476D01*
X75685200Y-102036476D02*
X75732819Y-102179333D01*
X75732819Y-102179333D02*
X75732819Y-102274571D01*
X75732819Y-102274571D02*
X75685200Y-102417428D01*
X75685200Y-102417428D02*
X75589961Y-102512666D01*
X75589961Y-102512666D02*
X75494723Y-102560285D01*
X75494723Y-102560285D02*
X75304247Y-102607904D01*
X75304247Y-102607904D02*
X75161390Y-102607904D01*
X75161390Y-102607904D02*
X74970914Y-102560285D01*
X74970914Y-102560285D02*
X74875676Y-102512666D01*
X74875676Y-102512666D02*
X74780438Y-102417428D01*
X74780438Y-102417428D02*
X74732819Y-102274571D01*
X74732819Y-102274571D02*
X74732819Y-102179333D01*
X74732819Y-102179333D02*
X74780438Y-102036476D01*
X74780438Y-102036476D02*
X74828057Y-101988857D01*
X75732819Y-101036476D02*
X75732819Y-101607904D01*
X75732819Y-101322190D02*
X74732819Y-101322190D01*
X74732819Y-101322190D02*
X74875676Y-101417428D01*
X74875676Y-101417428D02*
X74970914Y-101512666D01*
X74970914Y-101512666D02*
X75018533Y-101607904D01*
X75732819Y-100084095D02*
X75732819Y-100655523D01*
X75732819Y-100369809D02*
X74732819Y-100369809D01*
X74732819Y-100369809D02*
X74875676Y-100465047D01*
X74875676Y-100465047D02*
X74970914Y-100560285D01*
X74970914Y-100560285D02*
X75018533Y-100655523D01*
D11*
X102743436Y-68342147D02*
X102743436Y-68022126D01*
X102743436Y-68022126D02*
X102819631Y-68022126D01*
X102819631Y-68022126D02*
X102865349Y-68037365D01*
X102865349Y-68037365D02*
X102895827Y-68067843D01*
X102895827Y-68067843D02*
X102911066Y-68098321D01*
X102911066Y-68098321D02*
X102926305Y-68159277D01*
X102926305Y-68159277D02*
X102926305Y-68204995D01*
X102926305Y-68204995D02*
X102911066Y-68265951D01*
X102911066Y-68265951D02*
X102895827Y-68296429D01*
X102895827Y-68296429D02*
X102865349Y-68326908D01*
X102865349Y-68326908D02*
X102819631Y-68342147D01*
X102819631Y-68342147D02*
X102743436Y-68342147D01*
X103231087Y-68342147D02*
X103048218Y-68342147D01*
X103139652Y-68342147D02*
X103139652Y-68022126D01*
X103139652Y-68022126D02*
X103109174Y-68067843D01*
X103109174Y-68067843D02*
X103078696Y-68098321D01*
X103078696Y-68098321D02*
X103048218Y-68113560D01*
X103429195Y-68022126D02*
X103459674Y-68022126D01*
X103459674Y-68022126D02*
X103490152Y-68037365D01*
X103490152Y-68037365D02*
X103505391Y-68052604D01*
X103505391Y-68052604D02*
X103520630Y-68083082D01*
X103520630Y-68083082D02*
X103535869Y-68144038D01*
X103535869Y-68144038D02*
X103535869Y-68220234D01*
X103535869Y-68220234D02*
X103520630Y-68281190D01*
X103520630Y-68281190D02*
X103505391Y-68311668D01*
X103505391Y-68311668D02*
X103490152Y-68326908D01*
X103490152Y-68326908D02*
X103459674Y-68342147D01*
X103459674Y-68342147D02*
X103429195Y-68342147D01*
X103429195Y-68342147D02*
X103398717Y-68326908D01*
X103398717Y-68326908D02*
X103383478Y-68311668D01*
X103383478Y-68311668D02*
X103368239Y-68281190D01*
X103368239Y-68281190D02*
X103353000Y-68220234D01*
X103353000Y-68220234D02*
X103353000Y-68144038D01*
X103353000Y-68144038D02*
X103368239Y-68083082D01*
X103368239Y-68083082D02*
X103383478Y-68052604D01*
X103383478Y-68052604D02*
X103398717Y-68037365D01*
X103398717Y-68037365D02*
X103429195Y-68022126D01*
D10*
X64516095Y-108404819D02*
X64516095Y-107404819D01*
X64516095Y-107881009D02*
X65087523Y-107881009D01*
X65087523Y-108404819D02*
X65087523Y-107404819D01*
X66087523Y-108404819D02*
X65516095Y-108404819D01*
X65801809Y-108404819D02*
X65801809Y-107404819D01*
X65801809Y-107404819D02*
X65706571Y-107547676D01*
X65706571Y-107547676D02*
X65611333Y-107642914D01*
X65611333Y-107642914D02*
X65516095Y-107690533D01*
X77652142Y-71988819D02*
X77318809Y-71512628D01*
X77080714Y-71988819D02*
X77080714Y-70988819D01*
X77080714Y-70988819D02*
X77461666Y-70988819D01*
X77461666Y-70988819D02*
X77556904Y-71036438D01*
X77556904Y-71036438D02*
X77604523Y-71084057D01*
X77604523Y-71084057D02*
X77652142Y-71179295D01*
X77652142Y-71179295D02*
X77652142Y-71322152D01*
X77652142Y-71322152D02*
X77604523Y-71417390D01*
X77604523Y-71417390D02*
X77556904Y-71465009D01*
X77556904Y-71465009D02*
X77461666Y-71512628D01*
X77461666Y-71512628D02*
X77080714Y-71512628D01*
X78604523Y-71988819D02*
X78033095Y-71988819D01*
X78318809Y-71988819D02*
X78318809Y-70988819D01*
X78318809Y-70988819D02*
X78223571Y-71131676D01*
X78223571Y-71131676D02*
X78128333Y-71226914D01*
X78128333Y-71226914D02*
X78033095Y-71274533D01*
X79223571Y-70988819D02*
X79318809Y-70988819D01*
X79318809Y-70988819D02*
X79414047Y-71036438D01*
X79414047Y-71036438D02*
X79461666Y-71084057D01*
X79461666Y-71084057D02*
X79509285Y-71179295D01*
X79509285Y-71179295D02*
X79556904Y-71369771D01*
X79556904Y-71369771D02*
X79556904Y-71607866D01*
X79556904Y-71607866D02*
X79509285Y-71798342D01*
X79509285Y-71798342D02*
X79461666Y-71893580D01*
X79461666Y-71893580D02*
X79414047Y-71941200D01*
X79414047Y-71941200D02*
X79318809Y-71988819D01*
X79318809Y-71988819D02*
X79223571Y-71988819D01*
X79223571Y-71988819D02*
X79128333Y-71941200D01*
X79128333Y-71941200D02*
X79080714Y-71893580D01*
X79080714Y-71893580D02*
X79033095Y-71798342D01*
X79033095Y-71798342D02*
X78985476Y-71607866D01*
X78985476Y-71607866D02*
X78985476Y-71369771D01*
X78985476Y-71369771D02*
X79033095Y-71179295D01*
X79033095Y-71179295D02*
X79080714Y-71084057D01*
X79080714Y-71084057D02*
X79128333Y-71036438D01*
X79128333Y-71036438D02*
X79223571Y-70988819D01*
X92662476Y-38966819D02*
X92662476Y-39681104D01*
X92662476Y-39681104D02*
X92614857Y-39823961D01*
X92614857Y-39823961D02*
X92519619Y-39919200D01*
X92519619Y-39919200D02*
X92376762Y-39966819D01*
X92376762Y-39966819D02*
X92281524Y-39966819D01*
X93091048Y-39062057D02*
X93138667Y-39014438D01*
X93138667Y-39014438D02*
X93233905Y-38966819D01*
X93233905Y-38966819D02*
X93472000Y-38966819D01*
X93472000Y-38966819D02*
X93567238Y-39014438D01*
X93567238Y-39014438D02*
X93614857Y-39062057D01*
X93614857Y-39062057D02*
X93662476Y-39157295D01*
X93662476Y-39157295D02*
X93662476Y-39252533D01*
X93662476Y-39252533D02*
X93614857Y-39395390D01*
X93614857Y-39395390D02*
X93043429Y-39966819D01*
X93043429Y-39966819D02*
X93662476Y-39966819D01*
X93995810Y-38966819D02*
X94614857Y-38966819D01*
X94614857Y-38966819D02*
X94281524Y-39347771D01*
X94281524Y-39347771D02*
X94424381Y-39347771D01*
X94424381Y-39347771D02*
X94519619Y-39395390D01*
X94519619Y-39395390D02*
X94567238Y-39443009D01*
X94567238Y-39443009D02*
X94614857Y-39538247D01*
X94614857Y-39538247D02*
X94614857Y-39776342D01*
X94614857Y-39776342D02*
X94567238Y-39871580D01*
X94567238Y-39871580D02*
X94519619Y-39919200D01*
X94519619Y-39919200D02*
X94424381Y-39966819D01*
X94424381Y-39966819D02*
X94138667Y-39966819D01*
X94138667Y-39966819D02*
X94043429Y-39919200D01*
X94043429Y-39919200D02*
X93995810Y-39871580D01*
X72909580Y-91847666D02*
X72957200Y-91895285D01*
X72957200Y-91895285D02*
X73004819Y-92038142D01*
X73004819Y-92038142D02*
X73004819Y-92133380D01*
X73004819Y-92133380D02*
X72957200Y-92276237D01*
X72957200Y-92276237D02*
X72861961Y-92371475D01*
X72861961Y-92371475D02*
X72766723Y-92419094D01*
X72766723Y-92419094D02*
X72576247Y-92466713D01*
X72576247Y-92466713D02*
X72433390Y-92466713D01*
X72433390Y-92466713D02*
X72242914Y-92419094D01*
X72242914Y-92419094D02*
X72147676Y-92371475D01*
X72147676Y-92371475D02*
X72052438Y-92276237D01*
X72052438Y-92276237D02*
X72004819Y-92133380D01*
X72004819Y-92133380D02*
X72004819Y-92038142D01*
X72004819Y-92038142D02*
X72052438Y-91895285D01*
X72052438Y-91895285D02*
X72100057Y-91847666D01*
X72100057Y-91466713D02*
X72052438Y-91419094D01*
X72052438Y-91419094D02*
X72004819Y-91323856D01*
X72004819Y-91323856D02*
X72004819Y-91085761D01*
X72004819Y-91085761D02*
X72052438Y-90990523D01*
X72052438Y-90990523D02*
X72100057Y-90942904D01*
X72100057Y-90942904D02*
X72195295Y-90895285D01*
X72195295Y-90895285D02*
X72290533Y-90895285D01*
X72290533Y-90895285D02*
X72433390Y-90942904D01*
X72433390Y-90942904D02*
X73004819Y-91514332D01*
X73004819Y-91514332D02*
X73004819Y-90895285D01*
X73015200Y-101320332D02*
X73062819Y-101177475D01*
X73062819Y-101177475D02*
X73062819Y-100939380D01*
X73062819Y-100939380D02*
X73015200Y-100844142D01*
X73015200Y-100844142D02*
X72967580Y-100796523D01*
X72967580Y-100796523D02*
X72872342Y-100748904D01*
X72872342Y-100748904D02*
X72777104Y-100748904D01*
X72777104Y-100748904D02*
X72681866Y-100796523D01*
X72681866Y-100796523D02*
X72634247Y-100844142D01*
X72634247Y-100844142D02*
X72586628Y-100939380D01*
X72586628Y-100939380D02*
X72539009Y-101129856D01*
X72539009Y-101129856D02*
X72491390Y-101225094D01*
X72491390Y-101225094D02*
X72443771Y-101272713D01*
X72443771Y-101272713D02*
X72348533Y-101320332D01*
X72348533Y-101320332D02*
X72253295Y-101320332D01*
X72253295Y-101320332D02*
X72158057Y-101272713D01*
X72158057Y-101272713D02*
X72110438Y-101225094D01*
X72110438Y-101225094D02*
X72062819Y-101129856D01*
X72062819Y-101129856D02*
X72062819Y-100891761D01*
X72062819Y-100891761D02*
X72110438Y-100748904D01*
X72062819Y-100415570D02*
X73062819Y-100177475D01*
X73062819Y-100177475D02*
X72348533Y-99986999D01*
X72348533Y-99986999D02*
X73062819Y-99796523D01*
X73062819Y-99796523D02*
X72062819Y-99558428D01*
X72062819Y-98701285D02*
X72062819Y-99177475D01*
X72062819Y-99177475D02*
X72539009Y-99225094D01*
X72539009Y-99225094D02*
X72491390Y-99177475D01*
X72491390Y-99177475D02*
X72443771Y-99082237D01*
X72443771Y-99082237D02*
X72443771Y-98844142D01*
X72443771Y-98844142D02*
X72491390Y-98748904D01*
X72491390Y-98748904D02*
X72539009Y-98701285D01*
X72539009Y-98701285D02*
X72634247Y-98653666D01*
X72634247Y-98653666D02*
X72872342Y-98653666D01*
X72872342Y-98653666D02*
X72967580Y-98701285D01*
X72967580Y-98701285D02*
X73015200Y-98748904D01*
X73015200Y-98748904D02*
X73062819Y-98844142D01*
X73062819Y-98844142D02*
X73062819Y-99082237D01*
X73062819Y-99082237D02*
X73015200Y-99177475D01*
X73015200Y-99177475D02*
X72967580Y-99225094D01*
X65706666Y-67813819D02*
X65706666Y-68528104D01*
X65706666Y-68528104D02*
X65659047Y-68670961D01*
X65659047Y-68670961D02*
X65563809Y-68766200D01*
X65563809Y-68766200D02*
X65420952Y-68813819D01*
X65420952Y-68813819D02*
X65325714Y-68813819D01*
X66706666Y-68813819D02*
X66135238Y-68813819D01*
X66420952Y-68813819D02*
X66420952Y-67813819D01*
X66420952Y-67813819D02*
X66325714Y-67956676D01*
X66325714Y-67956676D02*
X66230476Y-68051914D01*
X66230476Y-68051914D02*
X66135238Y-68099533D01*
X124206095Y-108404819D02*
X124206095Y-107404819D01*
X124206095Y-107881009D02*
X124777523Y-107881009D01*
X124777523Y-108404819D02*
X124777523Y-107404819D01*
X125158476Y-107404819D02*
X125777523Y-107404819D01*
X125777523Y-107404819D02*
X125444190Y-107785771D01*
X125444190Y-107785771D02*
X125587047Y-107785771D01*
X125587047Y-107785771D02*
X125682285Y-107833390D01*
X125682285Y-107833390D02*
X125729904Y-107881009D01*
X125729904Y-107881009D02*
X125777523Y-107976247D01*
X125777523Y-107976247D02*
X125777523Y-108214342D01*
X125777523Y-108214342D02*
X125729904Y-108309580D01*
X125729904Y-108309580D02*
X125682285Y-108357200D01*
X125682285Y-108357200D02*
X125587047Y-108404819D01*
X125587047Y-108404819D02*
X125301333Y-108404819D01*
X125301333Y-108404819D02*
X125206095Y-108357200D01*
X125206095Y-108357200D02*
X125158476Y-108309580D01*
X108304333Y-65477580D02*
X108256714Y-65525200D01*
X108256714Y-65525200D02*
X108113857Y-65572819D01*
X108113857Y-65572819D02*
X108018619Y-65572819D01*
X108018619Y-65572819D02*
X107875762Y-65525200D01*
X107875762Y-65525200D02*
X107780524Y-65429961D01*
X107780524Y-65429961D02*
X107732905Y-65334723D01*
X107732905Y-65334723D02*
X107685286Y-65144247D01*
X107685286Y-65144247D02*
X107685286Y-65001390D01*
X107685286Y-65001390D02*
X107732905Y-64810914D01*
X107732905Y-64810914D02*
X107780524Y-64715676D01*
X107780524Y-64715676D02*
X107875762Y-64620438D01*
X107875762Y-64620438D02*
X108018619Y-64572819D01*
X108018619Y-64572819D02*
X108113857Y-64572819D01*
X108113857Y-64572819D02*
X108256714Y-64620438D01*
X108256714Y-64620438D02*
X108304333Y-64668057D01*
X109209095Y-64572819D02*
X108732905Y-64572819D01*
X108732905Y-64572819D02*
X108685286Y-65049009D01*
X108685286Y-65049009D02*
X108732905Y-65001390D01*
X108732905Y-65001390D02*
X108828143Y-64953771D01*
X108828143Y-64953771D02*
X109066238Y-64953771D01*
X109066238Y-64953771D02*
X109161476Y-65001390D01*
X109161476Y-65001390D02*
X109209095Y-65049009D01*
X109209095Y-65049009D02*
X109256714Y-65144247D01*
X109256714Y-65144247D02*
X109256714Y-65382342D01*
X109256714Y-65382342D02*
X109209095Y-65477580D01*
X109209095Y-65477580D02*
X109161476Y-65525200D01*
X109161476Y-65525200D02*
X109066238Y-65572819D01*
X109066238Y-65572819D02*
X108828143Y-65572819D01*
X108828143Y-65572819D02*
X108732905Y-65525200D01*
X108732905Y-65525200D02*
X108685286Y-65477580D01*
X98084819Y-67730666D02*
X97608628Y-68063999D01*
X98084819Y-68302094D02*
X97084819Y-68302094D01*
X97084819Y-68302094D02*
X97084819Y-67921142D01*
X97084819Y-67921142D02*
X97132438Y-67825904D01*
X97132438Y-67825904D02*
X97180057Y-67778285D01*
X97180057Y-67778285D02*
X97275295Y-67730666D01*
X97275295Y-67730666D02*
X97418152Y-67730666D01*
X97418152Y-67730666D02*
X97513390Y-67778285D01*
X97513390Y-67778285D02*
X97561009Y-67825904D01*
X97561009Y-67825904D02*
X97608628Y-67921142D01*
X97608628Y-67921142D02*
X97608628Y-68302094D01*
X97513390Y-67159237D02*
X97465771Y-67254475D01*
X97465771Y-67254475D02*
X97418152Y-67302094D01*
X97418152Y-67302094D02*
X97322914Y-67349713D01*
X97322914Y-67349713D02*
X97275295Y-67349713D01*
X97275295Y-67349713D02*
X97180057Y-67302094D01*
X97180057Y-67302094D02*
X97132438Y-67254475D01*
X97132438Y-67254475D02*
X97084819Y-67159237D01*
X97084819Y-67159237D02*
X97084819Y-66968761D01*
X97084819Y-66968761D02*
X97132438Y-66873523D01*
X97132438Y-66873523D02*
X97180057Y-66825904D01*
X97180057Y-66825904D02*
X97275295Y-66778285D01*
X97275295Y-66778285D02*
X97322914Y-66778285D01*
X97322914Y-66778285D02*
X97418152Y-66825904D01*
X97418152Y-66825904D02*
X97465771Y-66873523D01*
X97465771Y-66873523D02*
X97513390Y-66968761D01*
X97513390Y-66968761D02*
X97513390Y-67159237D01*
X97513390Y-67159237D02*
X97561009Y-67254475D01*
X97561009Y-67254475D02*
X97608628Y-67302094D01*
X97608628Y-67302094D02*
X97703866Y-67349713D01*
X97703866Y-67349713D02*
X97894342Y-67349713D01*
X97894342Y-67349713D02*
X97989580Y-67302094D01*
X97989580Y-67302094D02*
X98037200Y-67254475D01*
X98037200Y-67254475D02*
X98084819Y-67159237D01*
X98084819Y-67159237D02*
X98084819Y-66968761D01*
X98084819Y-66968761D02*
X98037200Y-66873523D01*
X98037200Y-66873523D02*
X97989580Y-66825904D01*
X97989580Y-66825904D02*
X97894342Y-66778285D01*
X97894342Y-66778285D02*
X97703866Y-66778285D01*
X97703866Y-66778285D02*
X97608628Y-66825904D01*
X97608628Y-66825904D02*
X97561009Y-66873523D01*
X97561009Y-66873523D02*
X97513390Y-66968761D01*
X69353580Y-91847666D02*
X69401200Y-91895285D01*
X69401200Y-91895285D02*
X69448819Y-92038142D01*
X69448819Y-92038142D02*
X69448819Y-92133380D01*
X69448819Y-92133380D02*
X69401200Y-92276237D01*
X69401200Y-92276237D02*
X69305961Y-92371475D01*
X69305961Y-92371475D02*
X69210723Y-92419094D01*
X69210723Y-92419094D02*
X69020247Y-92466713D01*
X69020247Y-92466713D02*
X68877390Y-92466713D01*
X68877390Y-92466713D02*
X68686914Y-92419094D01*
X68686914Y-92419094D02*
X68591676Y-92371475D01*
X68591676Y-92371475D02*
X68496438Y-92276237D01*
X68496438Y-92276237D02*
X68448819Y-92133380D01*
X68448819Y-92133380D02*
X68448819Y-92038142D01*
X68448819Y-92038142D02*
X68496438Y-91895285D01*
X68496438Y-91895285D02*
X68544057Y-91847666D01*
X69448819Y-90895285D02*
X69448819Y-91466713D01*
X69448819Y-91180999D02*
X68448819Y-91180999D01*
X68448819Y-91180999D02*
X68591676Y-91276237D01*
X68591676Y-91276237D02*
X68686914Y-91371475D01*
X68686914Y-91371475D02*
X68734533Y-91466713D01*
D11*
X96155887Y-100308238D02*
X95835866Y-100308238D01*
X95835866Y-100308238D02*
X95835866Y-100232043D01*
X95835866Y-100232043D02*
X95851105Y-100186325D01*
X95851105Y-100186325D02*
X95881583Y-100155847D01*
X95881583Y-100155847D02*
X95912061Y-100140608D01*
X95912061Y-100140608D02*
X95973017Y-100125369D01*
X95973017Y-100125369D02*
X96018735Y-100125369D01*
X96018735Y-100125369D02*
X96079691Y-100140608D01*
X96079691Y-100140608D02*
X96110169Y-100155847D01*
X96110169Y-100155847D02*
X96140648Y-100186325D01*
X96140648Y-100186325D02*
X96155887Y-100232043D01*
X96155887Y-100232043D02*
X96155887Y-100308238D01*
X95835866Y-100018695D02*
X95835866Y-99805348D01*
X95835866Y-99805348D02*
X96155887Y-99942500D01*
D10*
X76144571Y-40063009D02*
X75811238Y-40063009D01*
X75811238Y-40586819D02*
X75811238Y-39586819D01*
X75811238Y-39586819D02*
X76287428Y-39586819D01*
X76668381Y-40586819D02*
X76668381Y-39586819D01*
X77144571Y-40586819D02*
X77144571Y-39586819D01*
X77144571Y-39586819D02*
X77382666Y-39586819D01*
X77382666Y-39586819D02*
X77525523Y-39634438D01*
X77525523Y-39634438D02*
X77620761Y-39729676D01*
X77620761Y-39729676D02*
X77668380Y-39824914D01*
X77668380Y-39824914D02*
X77715999Y-40015390D01*
X77715999Y-40015390D02*
X77715999Y-40158247D01*
X77715999Y-40158247D02*
X77668380Y-40348723D01*
X77668380Y-40348723D02*
X77620761Y-40443961D01*
X77620761Y-40443961D02*
X77525523Y-40539200D01*
X77525523Y-40539200D02*
X77382666Y-40586819D01*
X77382666Y-40586819D02*
X77144571Y-40586819D01*
X78668380Y-40586819D02*
X78096952Y-40586819D01*
X78382666Y-40586819D02*
X78382666Y-39586819D01*
X78382666Y-39586819D02*
X78287428Y-39729676D01*
X78287428Y-39729676D02*
X78192190Y-39824914D01*
X78192190Y-39824914D02*
X78096952Y-39872533D01*
X91285095Y-74505819D02*
X91285095Y-75315342D01*
X91285095Y-75315342D02*
X91332714Y-75410580D01*
X91332714Y-75410580D02*
X91380333Y-75458200D01*
X91380333Y-75458200D02*
X91475571Y-75505819D01*
X91475571Y-75505819D02*
X91666047Y-75505819D01*
X91666047Y-75505819D02*
X91761285Y-75458200D01*
X91761285Y-75458200D02*
X91808904Y-75410580D01*
X91808904Y-75410580D02*
X91856523Y-75315342D01*
X91856523Y-75315342D02*
X91856523Y-74505819D01*
X92285095Y-74601057D02*
X92332714Y-74553438D01*
X92332714Y-74553438D02*
X92427952Y-74505819D01*
X92427952Y-74505819D02*
X92666047Y-74505819D01*
X92666047Y-74505819D02*
X92761285Y-74553438D01*
X92761285Y-74553438D02*
X92808904Y-74601057D01*
X92808904Y-74601057D02*
X92856523Y-74696295D01*
X92856523Y-74696295D02*
X92856523Y-74791533D01*
X92856523Y-74791533D02*
X92808904Y-74934390D01*
X92808904Y-74934390D02*
X92237476Y-75505819D01*
X92237476Y-75505819D02*
X92856523Y-75505819D01*
D11*
X83201887Y-101058238D02*
X82881866Y-101058238D01*
X82881866Y-101058238D02*
X82881866Y-100982043D01*
X82881866Y-100982043D02*
X82897105Y-100936325D01*
X82897105Y-100936325D02*
X82927583Y-100905847D01*
X82927583Y-100905847D02*
X82958061Y-100890608D01*
X82958061Y-100890608D02*
X83019017Y-100875369D01*
X83019017Y-100875369D02*
X83064735Y-100875369D01*
X83064735Y-100875369D02*
X83125691Y-100890608D01*
X83125691Y-100890608D02*
X83156169Y-100905847D01*
X83156169Y-100905847D02*
X83186648Y-100936325D01*
X83186648Y-100936325D02*
X83201887Y-100982043D01*
X83201887Y-100982043D02*
X83201887Y-101058238D01*
X82912344Y-100753456D02*
X82897105Y-100738217D01*
X82897105Y-100738217D02*
X82881866Y-100707739D01*
X82881866Y-100707739D02*
X82881866Y-100631543D01*
X82881866Y-100631543D02*
X82897105Y-100601065D01*
X82897105Y-100601065D02*
X82912344Y-100585826D01*
X82912344Y-100585826D02*
X82942822Y-100570587D01*
X82942822Y-100570587D02*
X82973300Y-100570587D01*
X82973300Y-100570587D02*
X83019017Y-100585826D01*
X83019017Y-100585826D02*
X83201887Y-100768695D01*
X83201887Y-100768695D02*
X83201887Y-100570587D01*
D10*
X92462192Y-45571580D02*
X92414573Y-45619200D01*
X92414573Y-45619200D02*
X92271716Y-45666819D01*
X92271716Y-45666819D02*
X92176478Y-45666819D01*
X92176478Y-45666819D02*
X92033621Y-45619200D01*
X92033621Y-45619200D02*
X91938383Y-45523961D01*
X91938383Y-45523961D02*
X91890764Y-45428723D01*
X91890764Y-45428723D02*
X91843145Y-45238247D01*
X91843145Y-45238247D02*
X91843145Y-45095390D01*
X91843145Y-45095390D02*
X91890764Y-44904914D01*
X91890764Y-44904914D02*
X91938383Y-44809676D01*
X91938383Y-44809676D02*
X92033621Y-44714438D01*
X92033621Y-44714438D02*
X92176478Y-44666819D01*
X92176478Y-44666819D02*
X92271716Y-44666819D01*
X92271716Y-44666819D02*
X92414573Y-44714438D01*
X92414573Y-44714438D02*
X92462192Y-44762057D01*
X93414573Y-45666819D02*
X92843145Y-45666819D01*
X93128859Y-45666819D02*
X93128859Y-44666819D01*
X93128859Y-44666819D02*
X93033621Y-44809676D01*
X93033621Y-44809676D02*
X92938383Y-44904914D01*
X92938383Y-44904914D02*
X92843145Y-44952533D01*
X93747907Y-44666819D02*
X94366954Y-44666819D01*
X94366954Y-44666819D02*
X94033621Y-45047771D01*
X94033621Y-45047771D02*
X94176478Y-45047771D01*
X94176478Y-45047771D02*
X94271716Y-45095390D01*
X94271716Y-45095390D02*
X94319335Y-45143009D01*
X94319335Y-45143009D02*
X94366954Y-45238247D01*
X94366954Y-45238247D02*
X94366954Y-45476342D01*
X94366954Y-45476342D02*
X94319335Y-45571580D01*
X94319335Y-45571580D02*
X94271716Y-45619200D01*
X94271716Y-45619200D02*
X94176478Y-45666819D01*
X94176478Y-45666819D02*
X93890764Y-45666819D01*
X93890764Y-45666819D02*
X93795526Y-45619200D01*
X93795526Y-45619200D02*
X93747907Y-45571580D01*
X86670142Y-46522819D02*
X86336809Y-46046628D01*
X86098714Y-46522819D02*
X86098714Y-45522819D01*
X86098714Y-45522819D02*
X86479666Y-45522819D01*
X86479666Y-45522819D02*
X86574904Y-45570438D01*
X86574904Y-45570438D02*
X86622523Y-45618057D01*
X86622523Y-45618057D02*
X86670142Y-45713295D01*
X86670142Y-45713295D02*
X86670142Y-45856152D01*
X86670142Y-45856152D02*
X86622523Y-45951390D01*
X86622523Y-45951390D02*
X86574904Y-45999009D01*
X86574904Y-45999009D02*
X86479666Y-46046628D01*
X86479666Y-46046628D02*
X86098714Y-46046628D01*
X87051095Y-45618057D02*
X87098714Y-45570438D01*
X87098714Y-45570438D02*
X87193952Y-45522819D01*
X87193952Y-45522819D02*
X87432047Y-45522819D01*
X87432047Y-45522819D02*
X87527285Y-45570438D01*
X87527285Y-45570438D02*
X87574904Y-45618057D01*
X87574904Y-45618057D02*
X87622523Y-45713295D01*
X87622523Y-45713295D02*
X87622523Y-45808533D01*
X87622523Y-45808533D02*
X87574904Y-45951390D01*
X87574904Y-45951390D02*
X87003476Y-46522819D01*
X87003476Y-46522819D02*
X87622523Y-46522819D01*
X88479666Y-45522819D02*
X88289190Y-45522819D01*
X88289190Y-45522819D02*
X88193952Y-45570438D01*
X88193952Y-45570438D02*
X88146333Y-45618057D01*
X88146333Y-45618057D02*
X88051095Y-45760914D01*
X88051095Y-45760914D02*
X88003476Y-45951390D01*
X88003476Y-45951390D02*
X88003476Y-46332342D01*
X88003476Y-46332342D02*
X88051095Y-46427580D01*
X88051095Y-46427580D02*
X88098714Y-46475200D01*
X88098714Y-46475200D02*
X88193952Y-46522819D01*
X88193952Y-46522819D02*
X88384428Y-46522819D01*
X88384428Y-46522819D02*
X88479666Y-46475200D01*
X88479666Y-46475200D02*
X88527285Y-46427580D01*
X88527285Y-46427580D02*
X88574904Y-46332342D01*
X88574904Y-46332342D02*
X88574904Y-46094247D01*
X88574904Y-46094247D02*
X88527285Y-45999009D01*
X88527285Y-45999009D02*
X88479666Y-45951390D01*
X88479666Y-45951390D02*
X88384428Y-45903771D01*
X88384428Y-45903771D02*
X88193952Y-45903771D01*
X88193952Y-45903771D02*
X88098714Y-45951390D01*
X88098714Y-45951390D02*
X88051095Y-45999009D01*
X88051095Y-45999009D02*
X88003476Y-46094247D01*
X77843142Y-43887580D02*
X77795523Y-43935200D01*
X77795523Y-43935200D02*
X77652666Y-43982819D01*
X77652666Y-43982819D02*
X77557428Y-43982819D01*
X77557428Y-43982819D02*
X77414571Y-43935200D01*
X77414571Y-43935200D02*
X77319333Y-43839961D01*
X77319333Y-43839961D02*
X77271714Y-43744723D01*
X77271714Y-43744723D02*
X77224095Y-43554247D01*
X77224095Y-43554247D02*
X77224095Y-43411390D01*
X77224095Y-43411390D02*
X77271714Y-43220914D01*
X77271714Y-43220914D02*
X77319333Y-43125676D01*
X77319333Y-43125676D02*
X77414571Y-43030438D01*
X77414571Y-43030438D02*
X77557428Y-42982819D01*
X77557428Y-42982819D02*
X77652666Y-42982819D01*
X77652666Y-42982819D02*
X77795523Y-43030438D01*
X77795523Y-43030438D02*
X77843142Y-43078057D01*
X78795523Y-43982819D02*
X78224095Y-43982819D01*
X78509809Y-43982819D02*
X78509809Y-42982819D01*
X78509809Y-42982819D02*
X78414571Y-43125676D01*
X78414571Y-43125676D02*
X78319333Y-43220914D01*
X78319333Y-43220914D02*
X78224095Y-43268533D01*
X79366952Y-43411390D02*
X79271714Y-43363771D01*
X79271714Y-43363771D02*
X79224095Y-43316152D01*
X79224095Y-43316152D02*
X79176476Y-43220914D01*
X79176476Y-43220914D02*
X79176476Y-43173295D01*
X79176476Y-43173295D02*
X79224095Y-43078057D01*
X79224095Y-43078057D02*
X79271714Y-43030438D01*
X79271714Y-43030438D02*
X79366952Y-42982819D01*
X79366952Y-42982819D02*
X79557428Y-42982819D01*
X79557428Y-42982819D02*
X79652666Y-43030438D01*
X79652666Y-43030438D02*
X79700285Y-43078057D01*
X79700285Y-43078057D02*
X79747904Y-43173295D01*
X79747904Y-43173295D02*
X79747904Y-43220914D01*
X79747904Y-43220914D02*
X79700285Y-43316152D01*
X79700285Y-43316152D02*
X79652666Y-43363771D01*
X79652666Y-43363771D02*
X79557428Y-43411390D01*
X79557428Y-43411390D02*
X79366952Y-43411390D01*
X79366952Y-43411390D02*
X79271714Y-43459009D01*
X79271714Y-43459009D02*
X79224095Y-43506628D01*
X79224095Y-43506628D02*
X79176476Y-43601866D01*
X79176476Y-43601866D02*
X79176476Y-43792342D01*
X79176476Y-43792342D02*
X79224095Y-43887580D01*
X79224095Y-43887580D02*
X79271714Y-43935200D01*
X79271714Y-43935200D02*
X79366952Y-43982819D01*
X79366952Y-43982819D02*
X79557428Y-43982819D01*
X79557428Y-43982819D02*
X79652666Y-43935200D01*
X79652666Y-43935200D02*
X79700285Y-43887580D01*
X79700285Y-43887580D02*
X79747904Y-43792342D01*
X79747904Y-43792342D02*
X79747904Y-43601866D01*
X79747904Y-43601866D02*
X79700285Y-43506628D01*
X79700285Y-43506628D02*
X79652666Y-43459009D01*
X79652666Y-43459009D02*
X79557428Y-43411390D01*
X109955819Y-39449333D02*
X110670104Y-39449333D01*
X110670104Y-39449333D02*
X110812961Y-39496952D01*
X110812961Y-39496952D02*
X110908200Y-39592190D01*
X110908200Y-39592190D02*
X110955819Y-39735047D01*
X110955819Y-39735047D02*
X110955819Y-39830285D01*
X109955819Y-38544571D02*
X109955819Y-38735047D01*
X109955819Y-38735047D02*
X110003438Y-38830285D01*
X110003438Y-38830285D02*
X110051057Y-38877904D01*
X110051057Y-38877904D02*
X110193914Y-38973142D01*
X110193914Y-38973142D02*
X110384390Y-39020761D01*
X110384390Y-39020761D02*
X110765342Y-39020761D01*
X110765342Y-39020761D02*
X110860580Y-38973142D01*
X110860580Y-38973142D02*
X110908200Y-38925523D01*
X110908200Y-38925523D02*
X110955819Y-38830285D01*
X110955819Y-38830285D02*
X110955819Y-38639809D01*
X110955819Y-38639809D02*
X110908200Y-38544571D01*
X110908200Y-38544571D02*
X110860580Y-38496952D01*
X110860580Y-38496952D02*
X110765342Y-38449333D01*
X110765342Y-38449333D02*
X110527247Y-38449333D01*
X110527247Y-38449333D02*
X110432009Y-38496952D01*
X110432009Y-38496952D02*
X110384390Y-38544571D01*
X110384390Y-38544571D02*
X110336771Y-38639809D01*
X110336771Y-38639809D02*
X110336771Y-38830285D01*
X110336771Y-38830285D02*
X110384390Y-38925523D01*
X110384390Y-38925523D02*
X110432009Y-38973142D01*
X110432009Y-38973142D02*
X110527247Y-39020761D01*
X101037580Y-54249857D02*
X101085200Y-54297476D01*
X101085200Y-54297476D02*
X101132819Y-54440333D01*
X101132819Y-54440333D02*
X101132819Y-54535571D01*
X101132819Y-54535571D02*
X101085200Y-54678428D01*
X101085200Y-54678428D02*
X100989961Y-54773666D01*
X100989961Y-54773666D02*
X100894723Y-54821285D01*
X100894723Y-54821285D02*
X100704247Y-54868904D01*
X100704247Y-54868904D02*
X100561390Y-54868904D01*
X100561390Y-54868904D02*
X100370914Y-54821285D01*
X100370914Y-54821285D02*
X100275676Y-54773666D01*
X100275676Y-54773666D02*
X100180438Y-54678428D01*
X100180438Y-54678428D02*
X100132819Y-54535571D01*
X100132819Y-54535571D02*
X100132819Y-54440333D01*
X100132819Y-54440333D02*
X100180438Y-54297476D01*
X100180438Y-54297476D02*
X100228057Y-54249857D01*
X101132819Y-53297476D02*
X101132819Y-53868904D01*
X101132819Y-53583190D02*
X100132819Y-53583190D01*
X100132819Y-53583190D02*
X100275676Y-53678428D01*
X100275676Y-53678428D02*
X100370914Y-53773666D01*
X100370914Y-53773666D02*
X100418533Y-53868904D01*
X100132819Y-52964142D02*
X100132819Y-52297476D01*
X100132819Y-52297476D02*
X101132819Y-52726047D01*
X91295905Y-63446819D02*
X91295905Y-62446819D01*
X91295905Y-62446819D02*
X91534000Y-62446819D01*
X91534000Y-62446819D02*
X91676857Y-62494438D01*
X91676857Y-62494438D02*
X91772095Y-62589676D01*
X91772095Y-62589676D02*
X91819714Y-62684914D01*
X91819714Y-62684914D02*
X91867333Y-62875390D01*
X91867333Y-62875390D02*
X91867333Y-63018247D01*
X91867333Y-63018247D02*
X91819714Y-63208723D01*
X91819714Y-63208723D02*
X91772095Y-63303961D01*
X91772095Y-63303961D02*
X91676857Y-63399200D01*
X91676857Y-63399200D02*
X91534000Y-63446819D01*
X91534000Y-63446819D02*
X91295905Y-63446819D01*
X92724476Y-62780152D02*
X92724476Y-63446819D01*
X92486381Y-62399200D02*
X92248286Y-63113485D01*
X92248286Y-63113485D02*
X92867333Y-63113485D01*
D11*
X88027887Y-101836205D02*
X87707866Y-101836205D01*
X87707866Y-101836205D02*
X87707866Y-101760010D01*
X87707866Y-101760010D02*
X87723105Y-101714292D01*
X87723105Y-101714292D02*
X87753583Y-101683814D01*
X87753583Y-101683814D02*
X87784061Y-101668575D01*
X87784061Y-101668575D02*
X87845017Y-101653336D01*
X87845017Y-101653336D02*
X87890735Y-101653336D01*
X87890735Y-101653336D02*
X87951691Y-101668575D01*
X87951691Y-101668575D02*
X87982169Y-101683814D01*
X87982169Y-101683814D02*
X88012648Y-101714292D01*
X88012648Y-101714292D02*
X88027887Y-101760010D01*
X88027887Y-101760010D02*
X88027887Y-101836205D01*
X87707866Y-101363793D02*
X87707866Y-101516184D01*
X87707866Y-101516184D02*
X87860257Y-101531423D01*
X87860257Y-101531423D02*
X87845017Y-101516184D01*
X87845017Y-101516184D02*
X87829778Y-101485706D01*
X87829778Y-101485706D02*
X87829778Y-101409510D01*
X87829778Y-101409510D02*
X87845017Y-101379032D01*
X87845017Y-101379032D02*
X87860257Y-101363793D01*
X87860257Y-101363793D02*
X87890735Y-101348554D01*
X87890735Y-101348554D02*
X87966930Y-101348554D01*
X87966930Y-101348554D02*
X87997408Y-101363793D01*
X87997408Y-101363793D02*
X88012648Y-101379032D01*
X88012648Y-101379032D02*
X88027887Y-101409510D01*
X88027887Y-101409510D02*
X88027887Y-101485706D01*
X88027887Y-101485706D02*
X88012648Y-101516184D01*
X88012648Y-101516184D02*
X87997408Y-101531423D01*
D10*
X121078666Y-85560819D02*
X121078666Y-86275104D01*
X121078666Y-86275104D02*
X121031047Y-86417961D01*
X121031047Y-86417961D02*
X120935809Y-86513200D01*
X120935809Y-86513200D02*
X120792952Y-86560819D01*
X120792952Y-86560819D02*
X120697714Y-86560819D01*
X121459619Y-85560819D02*
X122078666Y-85560819D01*
X122078666Y-85560819D02*
X121745333Y-85941771D01*
X121745333Y-85941771D02*
X121888190Y-85941771D01*
X121888190Y-85941771D02*
X121983428Y-85989390D01*
X121983428Y-85989390D02*
X122031047Y-86037009D01*
X122031047Y-86037009D02*
X122078666Y-86132247D01*
X122078666Y-86132247D02*
X122078666Y-86370342D01*
X122078666Y-86370342D02*
X122031047Y-86465580D01*
X122031047Y-86465580D02*
X121983428Y-86513200D01*
X121983428Y-86513200D02*
X121888190Y-86560819D01*
X121888190Y-86560819D02*
X121602476Y-86560819D01*
X121602476Y-86560819D02*
X121507238Y-86513200D01*
X121507238Y-86513200D02*
X121459619Y-86465580D01*
X105497333Y-45571580D02*
X105449714Y-45619200D01*
X105449714Y-45619200D02*
X105306857Y-45666819D01*
X105306857Y-45666819D02*
X105211619Y-45666819D01*
X105211619Y-45666819D02*
X105068762Y-45619200D01*
X105068762Y-45619200D02*
X104973524Y-45523961D01*
X104973524Y-45523961D02*
X104925905Y-45428723D01*
X104925905Y-45428723D02*
X104878286Y-45238247D01*
X104878286Y-45238247D02*
X104878286Y-45095390D01*
X104878286Y-45095390D02*
X104925905Y-44904914D01*
X104925905Y-44904914D02*
X104973524Y-44809676D01*
X104973524Y-44809676D02*
X105068762Y-44714438D01*
X105068762Y-44714438D02*
X105211619Y-44666819D01*
X105211619Y-44666819D02*
X105306857Y-44666819D01*
X105306857Y-44666819D02*
X105449714Y-44714438D01*
X105449714Y-44714438D02*
X105497333Y-44762057D01*
X106354476Y-45000152D02*
X106354476Y-45666819D01*
X106116381Y-44619200D02*
X105878286Y-45333485D01*
X105878286Y-45333485D02*
X106497333Y-45333485D01*
X84224333Y-94020819D02*
X83891000Y-93544628D01*
X83652905Y-94020819D02*
X83652905Y-93020819D01*
X83652905Y-93020819D02*
X84033857Y-93020819D01*
X84033857Y-93020819D02*
X84129095Y-93068438D01*
X84129095Y-93068438D02*
X84176714Y-93116057D01*
X84176714Y-93116057D02*
X84224333Y-93211295D01*
X84224333Y-93211295D02*
X84224333Y-93354152D01*
X84224333Y-93354152D02*
X84176714Y-93449390D01*
X84176714Y-93449390D02*
X84129095Y-93497009D01*
X84129095Y-93497009D02*
X84033857Y-93544628D01*
X84033857Y-93544628D02*
X83652905Y-93544628D01*
X85176714Y-94020819D02*
X84605286Y-94020819D01*
X84891000Y-94020819D02*
X84891000Y-93020819D01*
X84891000Y-93020819D02*
X84795762Y-93163676D01*
X84795762Y-93163676D02*
X84700524Y-93258914D01*
X84700524Y-93258914D02*
X84605286Y-93306533D01*
D11*
X85865827Y-106061887D02*
X85865827Y-105741866D01*
X85865827Y-105741866D02*
X85942022Y-105741866D01*
X85942022Y-105741866D02*
X85987740Y-105757105D01*
X85987740Y-105757105D02*
X86018218Y-105787583D01*
X86018218Y-105787583D02*
X86033457Y-105818061D01*
X86033457Y-105818061D02*
X86048696Y-105879017D01*
X86048696Y-105879017D02*
X86048696Y-105924735D01*
X86048696Y-105924735D02*
X86033457Y-105985691D01*
X86033457Y-105985691D02*
X86018218Y-106016169D01*
X86018218Y-106016169D02*
X85987740Y-106046648D01*
X85987740Y-106046648D02*
X85942022Y-106061887D01*
X85942022Y-106061887D02*
X85865827Y-106061887D01*
X86155370Y-105741866D02*
X86353478Y-105741866D01*
X86353478Y-105741866D02*
X86246804Y-105863778D01*
X86246804Y-105863778D02*
X86292522Y-105863778D01*
X86292522Y-105863778D02*
X86323000Y-105879017D01*
X86323000Y-105879017D02*
X86338239Y-105894257D01*
X86338239Y-105894257D02*
X86353478Y-105924735D01*
X86353478Y-105924735D02*
X86353478Y-106000930D01*
X86353478Y-106000930D02*
X86338239Y-106031408D01*
X86338239Y-106031408D02*
X86323000Y-106046648D01*
X86323000Y-106046648D02*
X86292522Y-106061887D01*
X86292522Y-106061887D02*
X86201087Y-106061887D01*
X86201087Y-106061887D02*
X86170609Y-106046648D01*
X86170609Y-106046648D02*
X86155370Y-106031408D01*
D10*
X92988333Y-95864819D02*
X92655000Y-95388628D01*
X92416905Y-95864819D02*
X92416905Y-94864819D01*
X92416905Y-94864819D02*
X92797857Y-94864819D01*
X92797857Y-94864819D02*
X92893095Y-94912438D01*
X92893095Y-94912438D02*
X92940714Y-94960057D01*
X92940714Y-94960057D02*
X92988333Y-95055295D01*
X92988333Y-95055295D02*
X92988333Y-95198152D01*
X92988333Y-95198152D02*
X92940714Y-95293390D01*
X92940714Y-95293390D02*
X92893095Y-95341009D01*
X92893095Y-95341009D02*
X92797857Y-95388628D01*
X92797857Y-95388628D02*
X92416905Y-95388628D01*
X93845476Y-95198152D02*
X93845476Y-95864819D01*
X93607381Y-94817200D02*
X93369286Y-95531485D01*
X93369286Y-95531485D02*
X93988333Y-95531485D01*
X93737580Y-105830666D02*
X93785200Y-105878285D01*
X93785200Y-105878285D02*
X93832819Y-106021142D01*
X93832819Y-106021142D02*
X93832819Y-106116380D01*
X93832819Y-106116380D02*
X93785200Y-106259237D01*
X93785200Y-106259237D02*
X93689961Y-106354475D01*
X93689961Y-106354475D02*
X93594723Y-106402094D01*
X93594723Y-106402094D02*
X93404247Y-106449713D01*
X93404247Y-106449713D02*
X93261390Y-106449713D01*
X93261390Y-106449713D02*
X93070914Y-106402094D01*
X93070914Y-106402094D02*
X92975676Y-106354475D01*
X92975676Y-106354475D02*
X92880438Y-106259237D01*
X92880438Y-106259237D02*
X92832819Y-106116380D01*
X92832819Y-106116380D02*
X92832819Y-106021142D01*
X92832819Y-106021142D02*
X92880438Y-105878285D01*
X92880438Y-105878285D02*
X92928057Y-105830666D01*
X93261390Y-105259237D02*
X93213771Y-105354475D01*
X93213771Y-105354475D02*
X93166152Y-105402094D01*
X93166152Y-105402094D02*
X93070914Y-105449713D01*
X93070914Y-105449713D02*
X93023295Y-105449713D01*
X93023295Y-105449713D02*
X92928057Y-105402094D01*
X92928057Y-105402094D02*
X92880438Y-105354475D01*
X92880438Y-105354475D02*
X92832819Y-105259237D01*
X92832819Y-105259237D02*
X92832819Y-105068761D01*
X92832819Y-105068761D02*
X92880438Y-104973523D01*
X92880438Y-104973523D02*
X92928057Y-104925904D01*
X92928057Y-104925904D02*
X93023295Y-104878285D01*
X93023295Y-104878285D02*
X93070914Y-104878285D01*
X93070914Y-104878285D02*
X93166152Y-104925904D01*
X93166152Y-104925904D02*
X93213771Y-104973523D01*
X93213771Y-104973523D02*
X93261390Y-105068761D01*
X93261390Y-105068761D02*
X93261390Y-105259237D01*
X93261390Y-105259237D02*
X93309009Y-105354475D01*
X93309009Y-105354475D02*
X93356628Y-105402094D01*
X93356628Y-105402094D02*
X93451866Y-105449713D01*
X93451866Y-105449713D02*
X93642342Y-105449713D01*
X93642342Y-105449713D02*
X93737580Y-105402094D01*
X93737580Y-105402094D02*
X93785200Y-105354475D01*
X93785200Y-105354475D02*
X93832819Y-105259237D01*
X93832819Y-105259237D02*
X93832819Y-105068761D01*
X93832819Y-105068761D02*
X93785200Y-104973523D01*
X93785200Y-104973523D02*
X93737580Y-104925904D01*
X93737580Y-104925904D02*
X93642342Y-104878285D01*
X93642342Y-104878285D02*
X93451866Y-104878285D01*
X93451866Y-104878285D02*
X93356628Y-104925904D01*
X93356628Y-104925904D02*
X93309009Y-104973523D01*
X93309009Y-104973523D02*
X93261390Y-105068761D01*
D12*
%TO.C,C9*%
X77062420Y-76198000D02*
X77343580Y-76198000D01*
X77062420Y-77218000D02*
X77343580Y-77218000D01*
%TO.C,R19*%
X103871500Y-57991742D02*
X103871500Y-58466258D01*
X104916500Y-57991742D02*
X104916500Y-58466258D01*
%TO.C,R3*%
X89393500Y-96028742D02*
X89393500Y-96503258D01*
X90438500Y-96028742D02*
X90438500Y-96503258D01*
%TO.C,J11*%
X84554000Y-41910000D02*
G75*
G02*
X81054000Y-41910000I-1750000J0D01*
G01*
X81054000Y-41910000D02*
G75*
G02*
X84554000Y-41910000I1750000J0D01*
G01*
D13*
%TO.C,U1*%
X105816400Y-50088800D02*
X105816400Y-50190400D01*
X105816400Y-50190400D02*
X105816400Y-50800000D01*
X105816400Y-50800000D02*
X105816400Y-50901600D01*
X105816400Y-50190400D02*
G75*
G02*
X105816400Y-50800000I0J-304800D01*
G01*
D12*
%TO.C,J5*%
X89634000Y-41910000D02*
G75*
G02*
X86134000Y-41910000I-1750000J0D01*
G01*
X86134000Y-41910000D02*
G75*
G02*
X89634000Y-41910000I1750000J0D01*
G01*
%TO.C,J4*%
X80966000Y-112716000D02*
X82296000Y-112716000D01*
X80966000Y-114046000D02*
X80966000Y-112716000D01*
X83566000Y-112716000D02*
X91246000Y-112716000D01*
X83566000Y-115376000D02*
X83566000Y-112716000D01*
X83566000Y-115376000D02*
X91246000Y-115376000D01*
X91246000Y-115376000D02*
X91246000Y-112716000D01*
%TO.C,R6*%
X98505742Y-93203500D02*
X98980258Y-93203500D01*
X98505742Y-94248500D02*
X98980258Y-94248500D01*
%TO.C,R24*%
X82789500Y-51608258D02*
X82789500Y-51133742D01*
X83834500Y-51608258D02*
X83834500Y-51133742D01*
D14*
%TO.C,L1*%
X89930000Y-58732000D02*
X91880000Y-60682000D01*
X91880000Y-52582000D02*
X89930000Y-54532000D01*
X98030000Y-54532000D02*
X96080000Y-52582000D01*
X98030000Y-58732000D02*
X96080000Y-60682000D01*
X97080000Y-54332000D02*
G75*
G02*
X96880000Y-54332000I-100000J0D01*
G01*
X96880000Y-54332000D02*
G75*
G02*
X97080000Y-54332000I100000J0D01*
G01*
D12*
%TO.C,J21*%
X100810000Y-41910000D02*
G75*
G02*
X97310000Y-41910000I-1750000J0D01*
G01*
X97310000Y-41910000D02*
G75*
G02*
X100810000Y-41910000I1750000J0D01*
G01*
%TO.C,J2*%
X112970000Y-53848000D02*
X112970000Y-56448000D01*
X112970000Y-53848000D02*
X115630000Y-53848000D01*
X112970000Y-56448000D02*
X115630000Y-56448000D01*
X114300000Y-51248000D02*
X115630000Y-51248000D01*
X115630000Y-51248000D02*
X115630000Y-52578000D01*
X115630000Y-53848000D02*
X115630000Y-56448000D01*
%TO.C,SW2*%
X64912000Y-53149000D02*
X65162000Y-53149000D01*
X64912000Y-59449000D02*
X64912000Y-53149000D01*
X65162000Y-59449000D02*
X64912000Y-59449000D01*
X67062000Y-53149000D02*
X69662000Y-53149000D01*
X69662000Y-59449000D02*
X67062000Y-59449000D01*
X71562000Y-53149000D02*
X71812000Y-53149000D01*
X71812000Y-53149000D02*
X71812000Y-59449000D01*
X71812000Y-59449000D02*
X71562000Y-59449000D01*
%TO.C,C12*%
X109472000Y-98919420D02*
X109472000Y-99200580D01*
X110492000Y-98919420D02*
X110492000Y-99200580D01*
%TO.C,SW1*%
X121398000Y-65296000D02*
X121398000Y-56696000D01*
X125998000Y-58996000D02*
X125998000Y-56696000D01*
X125998000Y-65296000D02*
X125998000Y-63096000D01*
%TO.C,C16*%
X86866000Y-51207580D02*
X86866000Y-50926420D01*
X87886000Y-51207580D02*
X87886000Y-50926420D01*
%TO.C,J0*%
X120876000Y-49784000D02*
G75*
G02*
X117376000Y-49784000I-1750000J0D01*
G01*
X117376000Y-49784000D02*
G75*
G02*
X120876000Y-49784000I1750000J0D01*
G01*
%TO.C,C14*%
X101727580Y-46988000D02*
X101446420Y-46988000D01*
X101727580Y-48008000D02*
X101446420Y-48008000D01*
%TO.C,C10*%
X112012000Y-73546580D02*
X112012000Y-73265420D01*
X113032000Y-73546580D02*
X113032000Y-73265420D01*
%TO.C,C7*%
X114806000Y-98906420D02*
X114806000Y-99187580D01*
X115826000Y-98906420D02*
X115826000Y-99187580D01*
%TO.C,R9*%
X67041500Y-86888258D02*
X67041500Y-86413742D01*
X68086500Y-86888258D02*
X68086500Y-86413742D01*
%TO.C,R7*%
X101077500Y-95266742D02*
X101077500Y-95741258D01*
X102122500Y-95266742D02*
X102122500Y-95741258D01*
D15*
%TO.C,D1*%
X107462000Y-62648000D02*
X107462000Y-60288000D01*
X109962000Y-60288000D02*
X109962000Y-62648000D01*
D14*
X109812000Y-57968000D02*
G75*
G02*
X109612000Y-57968000I-100000J0D01*
G01*
X109612000Y-57968000D02*
G75*
G02*
X109812000Y-57968000I100000J0D01*
G01*
D12*
%TO.C,R2*%
X88820258Y-91933500D02*
X88345742Y-91933500D01*
X88820258Y-92978500D02*
X88345742Y-92978500D01*
%TO.C,R12*%
X75899742Y-90663500D02*
X76374258Y-90663500D01*
X75899742Y-91708500D02*
X76374258Y-91708500D01*
%TO.C,C3*%
X70610000Y-86460420D02*
X70610000Y-86741580D01*
X71630000Y-86460420D02*
X71630000Y-86741580D01*
%TO.C,C15*%
X101727580Y-62736000D02*
X101446420Y-62736000D01*
X101727580Y-63756000D02*
X101446420Y-63756000D01*
%TO.C,SW3*%
X103619000Y-109036000D02*
X109919000Y-109036000D01*
X103619000Y-109286000D02*
X103619000Y-109036000D01*
X103619000Y-113786000D02*
X103619000Y-111186000D01*
X103619000Y-115936000D02*
X103619000Y-115686000D01*
X109919000Y-109036000D02*
X109919000Y-109286000D01*
X109919000Y-111186000D02*
X109919000Y-113786000D01*
X109919000Y-115686000D02*
X109919000Y-115936000D01*
X109919000Y-115936000D02*
X103619000Y-115936000D01*
%TO.C,D8*%
D15*
X96165500Y-104248000D02*
G75*
G02*
X96038500Y-104248000I-63500J0D01*
G01*
X96038500Y-104248000D02*
G75*
G02*
X96165500Y-104248000I63500J0D01*
G01*
D12*
%TO.C,SW4*%
X118760000Y-73139000D02*
X119010000Y-73139000D01*
X118760000Y-79439000D02*
X118760000Y-73139000D01*
X119010000Y-79439000D02*
X118760000Y-79439000D01*
X120910000Y-73139000D02*
X123510000Y-73139000D01*
X123510000Y-79439000D02*
X120910000Y-79439000D01*
X125410000Y-73139000D02*
X125660000Y-73139000D01*
X125660000Y-73139000D02*
X125660000Y-79439000D01*
X125660000Y-79439000D02*
X125410000Y-79439000D01*
%TO.C,D9*%
D15*
X100483500Y-100692000D02*
G75*
G02*
X100356500Y-100692000I-63500J0D01*
G01*
X100356500Y-100692000D02*
G75*
G02*
X100483500Y-100692000I63500J0D01*
G01*
D13*
%TO.C,C19*%
X82397600Y-57552650D02*
X82397600Y-61179350D01*
X87274400Y-61179350D02*
X87274400Y-57552650D01*
D12*
%TO.C,R11*%
X73899500Y-69295742D02*
X73899500Y-69770258D01*
X74944500Y-69295742D02*
X74944500Y-69770258D01*
%TO.C,R5*%
X95489500Y-91139742D02*
X95489500Y-91614258D01*
X96534500Y-91139742D02*
X96534500Y-91614258D01*
%TO.C,D6*%
D15*
X91085500Y-100946000D02*
G75*
G02*
X90958500Y-100946000I-63500J0D01*
G01*
X90958500Y-100946000D02*
G75*
G02*
X91085500Y-100946000I63500J0D01*
G01*
D12*
%TO.C,C6*%
X76960000Y-54736420D02*
X76960000Y-55017580D01*
X77980000Y-54736420D02*
X77980000Y-55017580D01*
%TO.C,C11*%
X76198000Y-101486580D02*
X76198000Y-101205420D01*
X77218000Y-101486580D02*
X77218000Y-101205420D01*
%TO.C,D10*%
D15*
X104391500Y-67710000D02*
G75*
G02*
X104264500Y-67710000I-63500J0D01*
G01*
X104264500Y-67710000D02*
G75*
G02*
X104391500Y-67710000I63500J0D01*
G01*
D12*
%TO.C,R10*%
X78532258Y-69581500D02*
X78057742Y-69581500D01*
X78532258Y-70626500D02*
X78057742Y-70626500D01*
%TO.C,J23*%
X95222000Y-41910000D02*
G75*
G02*
X91722000Y-41910000I-1750000J0D01*
G01*
X91722000Y-41910000D02*
G75*
G02*
X95222000Y-41910000I1750000J0D01*
G01*
%TO.C,C2*%
X70610000Y-91540420D02*
X70610000Y-91821580D01*
X71630000Y-91540420D02*
X71630000Y-91821580D01*
%TO.C,SW5*%
X64658000Y-96837000D02*
X64908000Y-96837000D01*
X64658000Y-103137000D02*
X64658000Y-96837000D01*
X64908000Y-103137000D02*
X64658000Y-103137000D01*
X66808000Y-96837000D02*
X69408000Y-96837000D01*
X69408000Y-103137000D02*
X66808000Y-103137000D01*
X71308000Y-96837000D02*
X71558000Y-96837000D01*
X71558000Y-96837000D02*
X71558000Y-103137000D01*
X71558000Y-103137000D02*
X71308000Y-103137000D01*
%TO.C,J1*%
X64880000Y-69294000D02*
X66040000Y-69294000D01*
X64880000Y-70104000D02*
X64880000Y-69294000D01*
X64880000Y-70914000D02*
X64880000Y-78469000D01*
X64880000Y-70914000D02*
X65373292Y-70914000D01*
X64880000Y-78469000D02*
X65722077Y-78469000D01*
X66357923Y-78469000D02*
X67200000Y-78469000D01*
X66706708Y-70914000D02*
X67200000Y-70914000D01*
X67200000Y-70914000D02*
X67200000Y-78469000D01*
%TO.C,C5*%
X108330420Y-66038000D02*
X108611580Y-66038000D01*
X108330420Y-67058000D02*
X108611580Y-67058000D01*
%TO.C,R8*%
X98537500Y-67801258D02*
X98537500Y-67326742D01*
X99582500Y-67801258D02*
X99582500Y-67326742D01*
%TO.C,C1*%
X67054000Y-91540420D02*
X67054000Y-91821580D01*
X68074000Y-91540420D02*
X68074000Y-91821580D01*
%TO.C,D7*%
D15*
X96691500Y-101268000D02*
G75*
G02*
X96564500Y-101268000I-63500J0D01*
G01*
X96564500Y-101268000D02*
G75*
G02*
X96691500Y-101268000I63500J0D01*
G01*
%TO.C,U2*%
X91032000Y-77896000D02*
X91032000Y-78186000D01*
X91032000Y-77896000D02*
X91322000Y-77896000D01*
X91032000Y-84896000D02*
X91032000Y-84606000D01*
X91032000Y-84896000D02*
X91322000Y-84896000D01*
X98032000Y-77896000D02*
X97742000Y-77896000D01*
X98032000Y-77896000D02*
X98032000Y-78186000D01*
X98032000Y-84896000D02*
X97742000Y-84896000D01*
X98032000Y-84896000D02*
X98032000Y-84606000D01*
D14*
X88692000Y-78646000D02*
G75*
G02*
X88492000Y-78646000I-100000J0D01*
G01*
X88492000Y-78646000D02*
G75*
G02*
X88692000Y-78646000I100000J0D01*
G01*
%TO.C,D2*%
D15*
X83737500Y-102018000D02*
G75*
G02*
X83610500Y-102018000I-63500J0D01*
G01*
X83610500Y-102018000D02*
G75*
G02*
X83737500Y-102018000I63500J0D01*
G01*
D13*
%TO.C,C13*%
X93105050Y-49885600D02*
X96426950Y-49885600D01*
X96426950Y-46126400D02*
X93105050Y-46126400D01*
D12*
%TO.C,R26*%
X87075742Y-46975500D02*
X87550258Y-46975500D01*
X87075742Y-48020500D02*
X87550258Y-48020500D01*
%TO.C,C18*%
X78345420Y-44448000D02*
X78626580Y-44448000D01*
X78345420Y-45468000D02*
X78626580Y-45468000D01*
%TO.C,J6*%
X111391000Y-39351000D02*
X111391000Y-42111000D01*
X111391000Y-42111000D02*
X116691000Y-42111000D01*
X111501000Y-44771000D02*
X111501000Y-43501000D01*
X112341000Y-42341000D02*
X112341000Y-42111000D01*
X112771000Y-44771000D02*
X111501000Y-44771000D01*
X113201000Y-42341000D02*
X113201000Y-42111000D01*
X114041000Y-42111000D02*
X114041000Y-39351000D01*
X114881000Y-33351000D02*
X115741000Y-33351000D01*
X114881000Y-39351000D02*
X114881000Y-33351000D01*
X114881000Y-42423642D02*
X114881000Y-42111000D01*
X115741000Y-33351000D02*
X115741000Y-39351000D01*
X115741000Y-42423642D02*
X115741000Y-42111000D01*
X116691000Y-39351000D02*
X111391000Y-39351000D01*
X116691000Y-42111000D02*
X116691000Y-39351000D01*
X112341000Y-39351000D02*
X113201000Y-39351000D01*
X113201000Y-33351000D01*
X112341000Y-33351000D01*
X112341000Y-39351000D01*
G36*
X112341000Y-39351000D02*
G01*
X113201000Y-39351000D01*
X113201000Y-33351000D01*
X112341000Y-33351000D01*
X112341000Y-39351000D01*
G37*
%TO.C,C17*%
X101598000Y-53747580D02*
X101598000Y-53466420D01*
X102618000Y-53747580D02*
X102618000Y-53466420D01*
D15*
%TO.C,D4*%
X90854000Y-64282000D02*
X93214000Y-64282000D01*
X93214000Y-66782000D02*
X90854000Y-66782000D01*
D14*
X88634000Y-64532000D02*
G75*
G02*
X88434000Y-64532000I-100000J0D01*
G01*
X88434000Y-64532000D02*
G75*
G02*
X88634000Y-64532000I100000J0D01*
G01*
%TO.C,D5*%
D15*
X88563500Y-102804000D02*
G75*
G02*
X88436500Y-102804000I-63500J0D01*
G01*
X88436500Y-102804000D02*
G75*
G02*
X88563500Y-102804000I63500J0D01*
G01*
D12*
%TO.C,J3*%
X119380000Y-87376000D02*
X120650000Y-87376000D01*
X119380000Y-88646000D02*
X119380000Y-87376000D01*
X121727358Y-90756000D02*
X122112642Y-90756000D01*
X121727358Y-91616000D02*
X122112642Y-91616000D01*
X121727358Y-93296000D02*
X122112642Y-93296000D01*
X121727358Y-94156000D02*
X122112642Y-94156000D01*
X121727358Y-95836000D02*
X122112642Y-95836000D01*
X121727358Y-96696000D02*
X122112642Y-96696000D01*
X121727358Y-98376000D02*
X122112642Y-98376000D01*
X121727358Y-99236000D02*
X122112642Y-99236000D01*
X121810000Y-88216000D02*
X122112642Y-88216000D01*
X121810000Y-89076000D02*
X122112642Y-89076000D01*
X124267358Y-88216000D02*
X124580000Y-88216000D01*
X124267358Y-89076000D02*
X124580000Y-89076000D01*
X124267358Y-90756000D02*
X124580000Y-90756000D01*
X124267358Y-91616000D02*
X124580000Y-91616000D01*
X124267358Y-93296000D02*
X124580000Y-93296000D01*
X124267358Y-94156000D02*
X124580000Y-94156000D01*
X124267358Y-95836000D02*
X124580000Y-95836000D01*
X124267358Y-96696000D02*
X124580000Y-96696000D01*
X124267358Y-98376000D02*
X124580000Y-98376000D01*
X124267358Y-99236000D02*
X124580000Y-99236000D01*
X124580000Y-87266000D02*
X124580000Y-100186000D01*
X124580000Y-89916000D02*
X127340000Y-89916000D01*
X124580000Y-92456000D02*
X127340000Y-92456000D01*
X124580000Y-94996000D02*
X127340000Y-94996000D01*
X124580000Y-97536000D02*
X127340000Y-97536000D01*
X124580000Y-100186000D02*
X127340000Y-100186000D01*
X127340000Y-87266000D02*
X124580000Y-87266000D01*
X127340000Y-90756000D02*
X133340000Y-90756000D01*
X127340000Y-93296000D02*
X133340000Y-93296000D01*
X127340000Y-95836000D02*
X133340000Y-95836000D01*
X127340000Y-98376000D02*
X133340000Y-98376000D01*
X127340000Y-100186000D02*
X127340000Y-87266000D01*
X133340000Y-90756000D02*
X133340000Y-91616000D01*
X133340000Y-91616000D02*
X127340000Y-91616000D01*
X133340000Y-93296000D02*
X133340000Y-94156000D01*
X133340000Y-94156000D02*
X127340000Y-94156000D01*
X133340000Y-95836000D02*
X133340000Y-96696000D01*
X133340000Y-96696000D02*
X127340000Y-96696000D01*
X133340000Y-98376000D02*
X133340000Y-99236000D01*
X133340000Y-99236000D02*
X127340000Y-99236000D01*
X127340000Y-88216000D02*
X133340000Y-88216000D01*
X133340000Y-89076000D01*
X127340000Y-89076000D01*
X127340000Y-88216000D01*
G36*
X127340000Y-88216000D02*
G01*
X133340000Y-88216000D01*
X133340000Y-89076000D01*
X127340000Y-89076000D01*
X127340000Y-88216000D01*
G37*
%TO.C,C4*%
X108050420Y-45718000D02*
X108331580Y-45718000D01*
X108050420Y-46738000D02*
X108331580Y-46738000D01*
%TO.C,R1*%
X84153742Y-94473500D02*
X84628258Y-94473500D01*
X84153742Y-95518500D02*
X84628258Y-95518500D01*
%TO.C,D3*%
D15*
X87361500Y-105302000D02*
G75*
G02*
X87234500Y-105302000I-63500J0D01*
G01*
X87234500Y-105302000D02*
G75*
G02*
X87361500Y-105302000I63500J0D01*
G01*
D12*
%TO.C,R4*%
X93392258Y-93457500D02*
X92917742Y-93457500D01*
X93392258Y-94502500D02*
X92917742Y-94502500D01*
%TO.C,C8*%
X91438000Y-105523420D02*
X91438000Y-105804580D01*
X92458000Y-105523420D02*
X92458000Y-105804580D01*
%TD*%
M02*
