%TF.GenerationSoftware,KiCad,Pcbnew,9.0.4*%
%TF.CreationDate,2025-11-19T19:29:13-05:00*%
%TF.ProjectId,492Homework6,34393248-6f6d-4657-976f-726b362e6b69,1*%
%TF.SameCoordinates,Original*%
%TF.FileFunction,Copper,L2,Bot*%
%TF.FilePolarity,Positive*%
%FSLAX46Y46*%
G04 Gerber Fmt 4.6, Leading zero omitted, Abs format (unit mm)*
G04 Created by KiCad (PCBNEW 9.0.4) date 2025-11-19 19:29:13*
%MOMM*%
%LPD*%
G01*
G04 APERTURE LIST*
%TA.AperFunction,ComponentPad*%
%ADD10C,6.477000*%
%TD*%
%TA.AperFunction,ComponentPad*%
%ADD11C,3.000000*%
%TD*%
%TA.AperFunction,ComponentPad*%
%ADD12R,1.700000X1.700000*%
%TD*%
%TA.AperFunction,ComponentPad*%
%ADD13C,1.700000*%
%TD*%
%TA.AperFunction,ComponentPad*%
%ADD14O,3.500000X2.200000*%
%TD*%
%TA.AperFunction,ComponentPad*%
%ADD15R,2.500000X1.500000*%
%TD*%
%TA.AperFunction,ComponentPad*%
%ADD16O,2.500000X1.500000*%
%TD*%
%TA.AperFunction,ComponentPad*%
%ADD17R,1.000000X1.000000*%
%TD*%
%TA.AperFunction,ComponentPad*%
%ADD18C,1.000000*%
%TD*%
%TA.AperFunction,ViaPad*%
%ADD19C,0.600000*%
%TD*%
%TA.AperFunction,Conductor*%
%ADD20C,0.304800*%
%TD*%
%TA.AperFunction,Conductor*%
%ADD21C,0.200000*%
%TD*%
%TA.AperFunction,Conductor*%
%ADD22C,0.152400*%
%TD*%
%TA.AperFunction,Conductor*%
%ADD23C,0.381000*%
%TD*%
%TA.AperFunction,Conductor*%
%ADD24C,1.016000*%
%TD*%
%TA.AperFunction,Conductor*%
%ADD25C,0.508000*%
%TD*%
G04 APERTURE END LIST*
D10*
%TO.P,H4,1,1*%
%TO.N,unconnected-(H4-Pad1)*%
X68577200Y-43180000D03*
%TD*%
D11*
%TO.P,J11,1,1*%
%TO.N,Net-(J6-Pin_2)*%
X82804000Y-41910000D03*
%TD*%
%TO.P,J5,1,1*%
%TO.N,/PWR5A*%
X87884000Y-41910000D03*
%TD*%
D12*
%TO.P,J4,1,Pin_1*%
%TO.N,PWR3_3*%
X82296000Y-114046000D03*
D13*
%TO.P,J4,2,Pin_2*%
%TO.N,/Sheet2/Trig*%
X84836000Y-114046000D03*
%TO.P,J4,3,Pin_3*%
%TO.N,/Sheet2/Echo*%
X87376000Y-114046000D03*
%TO.P,J4,4,Pin_4*%
%TO.N,GND*%
X89916000Y-114046000D03*
%TD*%
D11*
%TO.P,J21,1,1*%
%TO.N,PWR3_3*%
X99060000Y-41910000D03*
%TD*%
D12*
%TO.P,J2,1,Pin_1*%
%TO.N,GND*%
X114300000Y-52578000D03*
D13*
%TO.P,J2,2,Pin_2*%
%TO.N,/RAW_BAT*%
X114300000Y-55118000D03*
%TD*%
D10*
%TO.P,H2,1,1*%
%TO.N,unconnected-(H2-Pad1)*%
X121920000Y-43180000D03*
%TD*%
D14*
%TO.P,SW1,*%
%TO.N,*%
X123698000Y-65096000D03*
X123698000Y-56896000D03*
D15*
%TO.P,SW1,1,A*%
%TO.N,/RAW_BAT*%
X123698000Y-62996000D03*
D16*
%TO.P,SW1,2,B*%
%TO.N,Net-(SW1-B)*%
X123698000Y-60996000D03*
%TO.P,SW1,3*%
%TO.N,N/C*%
X123698000Y-58996000D03*
%TD*%
D11*
%TO.P,J0,1,1*%
%TO.N,/RAW_BAT*%
X119126000Y-49784000D03*
%TD*%
D10*
%TO.P,H1,1,1*%
%TO.N,unconnected-(H1-Pad1)*%
X68580000Y-111760000D03*
%TD*%
D11*
%TO.P,J23,1,1*%
%TO.N,Net-(U1-FB)*%
X93472000Y-41910000D03*
%TD*%
D17*
%TO.P,J1,1,Pin_1*%
%TO.N,/Sheet2/TEST*%
X66040000Y-70104000D03*
D18*
%TO.P,J1,2,Pin_2*%
%TO.N,/Sheet2/RST*%
X66040000Y-71374000D03*
%TO.P,J1,3,Pin_3*%
%TO.N,/Sheet2/RXD*%
X66040000Y-72644000D03*
%TO.P,J1,4,Pin_4*%
%TO.N,/Sheet2/TXD*%
X66040000Y-73914000D03*
%TO.P,J1,5,Pin_5*%
%TO.N,GND*%
X66040000Y-75184000D03*
%TO.P,J1,6,Pin_6*%
%TO.N,PWR3_3*%
X66040000Y-76454000D03*
%TO.P,J1,7,Pin_7*%
%TO.N,unconnected-(J1-Pin_7-Pad7)*%
X66040000Y-77724000D03*
%TD*%
D10*
%TO.P,H3,1,1*%
%TO.N,unconnected-(H3-Pad1)*%
X121920000Y-111760000D03*
%TD*%
D12*
%TO.P,J6,1,Pin_1*%
%TO.N,PWR3_3*%
X112771000Y-43501000D03*
D13*
%TO.P,J6,2,Pin_2*%
%TO.N,Net-(J6-Pin_2)*%
X115311000Y-43501000D03*
%TD*%
D12*
%TO.P,J3,1,Pin_1*%
%TO.N,GND*%
X120650000Y-88646000D03*
D13*
%TO.P,J3,2,Pin_2*%
X123190000Y-88646000D03*
%TO.P,J3,3,Pin_3*%
%TO.N,/Sheet2/IOT_EN*%
X120650000Y-91186000D03*
%TO.P,J3,4,Pin_4*%
%TO.N,/Sheet2/IOT_BOOTA*%
X123190000Y-91186000D03*
%TO.P,J3,5,Pin_5*%
%TO.N,/Sheet2/CPU_TXDA*%
X120650000Y-93726000D03*
%TO.P,J3,6,Pin_6*%
%TO.N,/Sheet2/IOT_LINK*%
X123190000Y-93726000D03*
%TO.P,J3,7,Pin_7*%
%TO.N,/Sheet2/CPU_RXDA*%
X120650000Y-96266000D03*
%TO.P,J3,8,Pin_8*%
%TO.N,/Sheet2/IOT_RUN*%
X123190000Y-96266000D03*
%TO.P,J3,9,Pin_9*%
%TO.N,PWR3_3*%
X120650000Y-98806000D03*
%TO.P,J3,10,Pin_10*%
X123190000Y-98806000D03*
%TD*%
D19*
%TO.N,GND*%
X81280000Y-86106000D03*
X88138000Y-49022000D03*
X72136000Y-71882000D03*
X109220000Y-44196000D03*
X89408000Y-47752000D03*
X98806000Y-53594000D03*
X103378000Y-89154000D03*
X111506000Y-52324000D03*
X95745000Y-110236000D03*
X96012000Y-58674000D03*
X68326000Y-78740000D03*
X104902000Y-63246000D03*
X101346000Y-104394000D03*
X73914000Y-83312000D03*
X72136000Y-74422000D03*
X77724000Y-57404000D03*
X74676000Y-86614000D03*
X112268000Y-65278000D03*
X99314000Y-49022000D03*
X105664000Y-86868000D03*
X82550000Y-56896000D03*
X76708000Y-98298000D03*
X80518000Y-49276000D03*
%TO.N,/PWR5A*%
X81280000Y-53594000D03*
X110236000Y-55626000D03*
X104394000Y-50546000D03*
X85598000Y-53594000D03*
X100584000Y-50800000D03*
%TO.N,Net-(U1-FB)*%
X109474000Y-51308000D03*
X105410000Y-47752000D03*
%TO.N,/Sheet2/RST*%
X86106000Y-80264000D03*
X111506000Y-82550000D03*
%TO.N,/Sheet2/TXD*%
X68072000Y-75184000D03*
X100838000Y-88646000D03*
%TO.N,/Sheet2/RXD*%
X101600000Y-87122000D03*
X68580000Y-73406000D03*
%TO.N,unconnected-(U2-P2.6{slash}MCLK{slash}XOUT-Pad9)*%
X87630000Y-84582000D03*
%TO.N,unconnected-(U2-P4.0{slash}UCA1STE{slash}ISOTXD{slash}ISORXD-Pad26)*%
X100584000Y-85090000D03*
%TO.N,unconnected-(U2-P1.2{slash}UCB0SIMO{slash}UCB0SDA{slash}TB0TRG{slash}OA0-{slash}A2{slash}VEREF-Pad1)*%
X89154000Y-75692000D03*
%TO.N,unconnected-(U2-P3.3{slash}OA2+-Pad44)*%
X93726000Y-74168000D03*
%TO.N,unconnected-(U2-P5.0{slash}TB2.1{slash}MFM.RX{slash}A8-Pad43)*%
X94742000Y-74168000D03*
%TO.N,unconnected-(U2-P4.7{slash}UCB1SOMI{slash}UCB1SCL-Pad12)*%
X88900000Y-85090000D03*
%TO.N,unconnected-(U2-P3.1{slash}OA2O-Pad46)*%
X91440000Y-73914000D03*
%TO.N,/Sheet2/CPU_TXDA*%
X112014000Y-92710000D03*
X109220000Y-87376000D03*
%TO.N,unconnected-(U2-P5.2{slash}TB2CLK{slash}A10-Pad41)*%
X96774000Y-73660000D03*
%TO.N,unconnected-(U2-P2.5{slash}COMP1.0-Pad10)*%
X88138000Y-83566000D03*
%TO.N,/Sheet2/IOT_LINK*%
X105918000Y-77470000D03*
X115570000Y-82042000D03*
%TO.N,unconnected-(U2-P3.2{slash}OA2--Pad45)*%
X92456000Y-74168000D03*
%TO.N,unconnected-(U2-P2.3{slash}TB1TRG-Pad27)*%
X101854000Y-84582000D03*
%TO.N,unconnected-(U2-P2.2{slash}TB1CLK-Pad28)*%
X102616000Y-84074000D03*
%TO.N,unconnected-(U2-P2.0{slash}TB1.1{slash}COMP0.O-Pad30)*%
X102616000Y-82296000D03*
%TO.N,unconnected-(U2-P1.3{slash}UCB0SOMI{slash}UCB0SCL{slash}OA0+{slash}A3-Pad48)*%
X90678000Y-75438000D03*
%TO.N,unconnected-(U2-P5.1{slash}TB2.2{slash}MFM.TX{slash}A9-Pad42)*%
X96012000Y-73914000D03*
%TO.N,unconnected-(U2-P1.5{slash}UCA0CLK{slash}TMS{slash}OA1O{slash}A5-Pad33)*%
X101346000Y-79756000D03*
%TO.N,unconnected-(U2-P2.1{slash}TB1.2{slash}COMP1.O-Pad29)*%
X102870000Y-83058000D03*
%TO.N,/Sheet2/CPU_RXDA*%
X105918000Y-81534000D03*
X114808000Y-94996000D03*
%TO.N,unconnected-(U2-P3.4{slash}SMCLK-Pad38)*%
X98806000Y-74168000D03*
%TO.N,unconnected-(U2-P3.5{slash}OA3O-Pad37)*%
X98806000Y-75327549D03*
%TO.N,unconnected-(U2-P2.4{slash}COMP1.1-Pad11)*%
X88646000Y-84328000D03*
%TO.N,unconnected-(U2-P3.0{slash}MCLK-Pad47)*%
X90849806Y-74593806D03*
%TO.N,/Sheet2/IOT_RUN*%
X117856000Y-101600000D03*
X116840000Y-89154000D03*
X105918000Y-78994000D03*
%TO.N,PWR3_3*%
X68072000Y-76708000D03*
X81280000Y-85090000D03*
X78740000Y-80264000D03*
%TO.N,Net-(R8-Pad1)*%
X95504000Y-68326000D03*
X65532000Y-93980000D03*
%TO.N,/Sheet2/SW3*%
X83312000Y-73406000D03*
X99314000Y-111252000D03*
X88138000Y-76708000D03*
%TO.N,unconnected-(U2-P4.4{slash}UCB1STE-Pad15)*%
X92456000Y-87630000D03*
%TO.N,/Sheet2/IOT_EN*%
X104140000Y-88138000D03*
%TO.N,/Sheet2/Echo*%
X83820000Y-110998000D03*
X91694000Y-87122000D03*
%TO.N,/Sheet2/Trig*%
X90424000Y-87122000D03*
%TO.N,Net-(J6-Pin_2)*%
X101092000Y-44704000D03*
%TO.N,Net-(SW1-B)*%
X115570000Y-60960000D03*
%TD*%
D20*
%TO.N,GND*%
X99314000Y-49022000D02*
X97536000Y-50800000D01*
X77724000Y-57404000D02*
X78486000Y-57404000D01*
X70866000Y-77978000D02*
X78994000Y-86106000D01*
D21*
X87884000Y-48768000D02*
X88138000Y-49022000D01*
X99314000Y-53086000D02*
X98806000Y-53594000D01*
D20*
X81026000Y-56896000D02*
X82550000Y-56896000D01*
X111506000Y-61976000D02*
X112268000Y-62738000D01*
X68326000Y-78740000D02*
X69088000Y-77978000D01*
X96012000Y-58674000D02*
X99822000Y-58674000D01*
X78994000Y-86106000D02*
X81280000Y-86106000D01*
D22*
X103378000Y-89154000D02*
X104140000Y-89154000D01*
D20*
X89408000Y-48514000D02*
X89408000Y-47752000D01*
D22*
X105664000Y-87630000D02*
X105664000Y-86868000D01*
D20*
X104902000Y-63246000D02*
X110236000Y-63246000D01*
X78486000Y-57404000D02*
X80010000Y-55880000D01*
X104902000Y-63246000D02*
X104394000Y-63246000D01*
X97536000Y-50800000D02*
X91694000Y-50800000D01*
X80518000Y-49276000D02*
X81026000Y-48768000D01*
D22*
X104140000Y-89154000D02*
X105664000Y-87630000D01*
D20*
X111506000Y-61976000D02*
X111506000Y-52324000D01*
X80518000Y-49276000D02*
X80010000Y-49784000D01*
X110236000Y-63246000D02*
X111506000Y-61976000D01*
X99314000Y-49022000D02*
X99314000Y-53086000D01*
X80010000Y-55880000D02*
X81026000Y-56896000D01*
X80010000Y-49784000D02*
X80010000Y-55880000D01*
X91694000Y-50800000D02*
X89408000Y-48514000D01*
X112268000Y-62738000D02*
X112268000Y-65278000D01*
X88138000Y-49022000D02*
X89408000Y-47752000D01*
X99822000Y-58674000D02*
X104394000Y-63246000D01*
D23*
X74676000Y-86614000D02*
X74676000Y-84074000D01*
D20*
X69088000Y-77978000D02*
X70866000Y-77978000D01*
X81026000Y-48768000D02*
X87884000Y-48768000D01*
D23*
X74676000Y-84074000D02*
X73914000Y-83312000D01*
D24*
%TO.N,/PWR5A*%
X84582000Y-54610000D02*
X85598000Y-53594000D01*
X104394000Y-50546000D02*
X104394000Y-52070000D01*
X81280000Y-53594000D02*
X82296000Y-54610000D01*
X104394000Y-52070000D02*
X106172000Y-53848000D01*
X110236000Y-55626000D02*
X110236000Y-54102000D01*
X100838000Y-50546000D02*
X100584000Y-50800000D01*
X110236000Y-54102000D02*
X109982000Y-53848000D01*
X82296000Y-54610000D02*
X84582000Y-54610000D01*
X109982000Y-53848000D02*
X106172000Y-53848000D01*
X104394000Y-50546000D02*
X100838000Y-50546000D01*
D23*
%TO.N,Net-(U1-FB)*%
X109474000Y-51308000D02*
X109474000Y-48514000D01*
X109474000Y-48514000D02*
X108712000Y-47752000D01*
X108712000Y-47752000D02*
X105410000Y-47752000D01*
D21*
%TO.N,unconnected-(H1-Pad1)*%
X68580000Y-111760000D02*
X71502300Y-111760000D01*
%TO.N,unconnected-(H3-Pad1)*%
X121920000Y-111760000D02*
X120260300Y-113419700D01*
D20*
%TO.N,/Sheet2/RST*%
X100330000Y-89916000D02*
X99314000Y-88900000D01*
X104140000Y-89916000D02*
X100330000Y-89916000D01*
X99314000Y-88900000D02*
X87630000Y-88900000D01*
D25*
X111506000Y-82550000D02*
X104140000Y-89916000D01*
D20*
X86106000Y-87376000D02*
X86106000Y-80264000D01*
X87630000Y-88900000D02*
X86106000Y-87376000D01*
D25*
%TO.N,/Sheet2/TXD*%
X67818000Y-70612000D02*
X71882000Y-66548000D01*
X103632000Y-69596000D02*
X104902000Y-70866000D01*
D20*
X68072000Y-75184000D02*
X68072000Y-74422000D01*
D25*
X84074000Y-66548000D02*
X87122000Y-69596000D01*
X71882000Y-66548000D02*
X84074000Y-66548000D01*
X87122000Y-69596000D02*
X103632000Y-69596000D01*
X104902000Y-70866000D02*
X104902000Y-86106000D01*
X104902000Y-86106000D02*
X102362000Y-88646000D01*
D20*
X67818000Y-74168000D02*
X67818000Y-70612000D01*
X68072000Y-74422000D02*
X67818000Y-74168000D01*
D25*
X102362000Y-88646000D02*
X100838000Y-88646000D01*
%TO.N,/Sheet2/RXD*%
X102616000Y-70866000D02*
X103632000Y-71882000D01*
X82804000Y-70866000D02*
X102616000Y-70866000D01*
D20*
X69342000Y-72644000D02*
X81026000Y-72644000D01*
X81026000Y-72644000D02*
X82804000Y-70866000D01*
D25*
X103632000Y-85090000D02*
X101600000Y-87122000D01*
D20*
X68580000Y-73406000D02*
X69342000Y-72644000D01*
D25*
X103632000Y-71882000D02*
X103632000Y-85090000D01*
%TO.N,/Sheet2/CPU_TXDA*%
X112014000Y-92710000D02*
X109220000Y-89916000D01*
X109220000Y-89916000D02*
X109220000Y-87376000D01*
%TO.N,/Sheet2/IOT_LINK*%
X115570000Y-82042000D02*
X110998000Y-77470000D01*
X110998000Y-77470000D02*
X105918000Y-77470000D01*
D20*
%TO.N,/Sheet2/CPU_RXDA*%
X112014000Y-81534000D02*
X105918000Y-81534000D01*
X114046000Y-83566000D02*
X112014000Y-81534000D01*
D25*
X114808000Y-94996000D02*
X114046000Y-94234000D01*
X114046000Y-94234000D02*
X114046000Y-83566000D01*
%TO.N,/Sheet2/IOT_RUN*%
X116840000Y-100584000D02*
X116840000Y-89154000D01*
D20*
X117856000Y-101600000D02*
X116840000Y-100584000D01*
D24*
%TO.N,PWR3_3*%
X78232000Y-80772000D02*
X78740000Y-80264000D01*
X72644000Y-76708000D02*
X76708000Y-80772000D01*
X76708000Y-80772000D02*
X78232000Y-80772000D01*
X76708000Y-80772000D02*
X81026000Y-85090000D01*
X68072000Y-76708000D02*
X72644000Y-76708000D01*
D20*
X81026000Y-85090000D02*
X81280000Y-85090000D01*
%TO.N,Net-(R8-Pad1)*%
X64516000Y-68580000D02*
X67818000Y-65278000D01*
X65532000Y-93980000D02*
X65024000Y-93472000D01*
X64516000Y-80518000D02*
X64516000Y-68580000D01*
X65024000Y-93472000D02*
X65024000Y-81026000D01*
D25*
X84836000Y-65278000D02*
X87884000Y-68326000D01*
X67818000Y-65278000D02*
X84836000Y-65278000D01*
X95504000Y-68326000D02*
X87884000Y-68326000D01*
D20*
X65024000Y-81026000D02*
X64516000Y-80518000D01*
%TO.N,/Sheet2/SW3*%
X83312000Y-73406000D02*
X86614000Y-76708000D01*
D25*
X82296000Y-82550000D02*
X82296000Y-106426000D01*
X94742000Y-111252000D02*
X99314000Y-111252000D01*
X84836000Y-108966000D02*
X92456000Y-108966000D01*
X82296000Y-106426000D02*
X84836000Y-108966000D01*
X92456000Y-108966000D02*
X94742000Y-111252000D01*
X88138000Y-76708000D02*
X82296000Y-82550000D01*
D20*
X86614000Y-76708000D02*
X88138000Y-76708000D01*
D25*
%TO.N,/Sheet2/Echo*%
X83820000Y-110998000D02*
X85598000Y-110998000D01*
X85598000Y-110998000D02*
X87376000Y-112776000D01*
X87376000Y-112776000D02*
X87376000Y-114046000D01*
D20*
%TO.N,Net-(J6-Pin_2)*%
X85598000Y-44704000D02*
X82804000Y-41910000D01*
X101092000Y-44704000D02*
X85598000Y-44704000D01*
D22*
%TO.N,Net-(SW1-B)*%
X123662000Y-60960000D02*
X123698000Y-60996000D01*
D25*
X115570000Y-60960000D02*
X123662000Y-60960000D01*
%TD*%
%TA.AperFunction,Conductor*%
%TO.N,GND*%
G36*
X122724075Y-88838993D02*
G01*
X122789901Y-88953007D01*
X122882993Y-89046099D01*
X122997007Y-89111925D01*
X123060590Y-89128962D01*
X122428282Y-89761269D01*
X122428282Y-89761270D01*
X122482452Y-89800626D01*
X122482451Y-89800626D01*
X122491495Y-89805234D01*
X122542292Y-89853208D01*
X122559087Y-89921029D01*
X122536550Y-89987164D01*
X122491499Y-90026202D01*
X122482182Y-90030949D01*
X122310213Y-90155890D01*
X122159890Y-90306213D01*
X122034949Y-90478182D01*
X122030484Y-90486946D01*
X121982509Y-90537742D01*
X121914688Y-90554536D01*
X121848553Y-90531998D01*
X121809516Y-90486946D01*
X121805050Y-90478182D01*
X121680109Y-90306213D01*
X121566181Y-90192285D01*
X121532696Y-90130962D01*
X121537680Y-90061270D01*
X121579552Y-90005337D01*
X121610529Y-89988422D01*
X121742086Y-89939354D01*
X121742093Y-89939350D01*
X121857187Y-89853190D01*
X121857190Y-89853187D01*
X121943350Y-89738093D01*
X121943354Y-89738086D01*
X121993598Y-89603375D01*
X122002501Y-89520556D01*
X122005550Y-89520883D01*
X122004642Y-89503984D01*
X122037642Y-89444802D01*
X122707037Y-88775408D01*
X122724075Y-88838993D01*
G37*
%TD.AperFunction*%
%TA.AperFunction,Conductor*%
G36*
X126442539Y-38620185D02*
G01*
X126488294Y-38672989D01*
X126499500Y-38724500D01*
X126499500Y-116215500D01*
X126479815Y-116282539D01*
X126427011Y-116328294D01*
X126375500Y-116339500D01*
X64124500Y-116339500D01*
X64057461Y-116319815D01*
X64011706Y-116267011D01*
X64000500Y-116215500D01*
X64000500Y-111576315D01*
X64841000Y-111576315D01*
X64841000Y-111943685D01*
X64848687Y-112021735D01*
X64877007Y-112309276D01*
X64877010Y-112309293D01*
X64948673Y-112669577D01*
X64948676Y-112669588D01*
X65055322Y-113021155D01*
X65195909Y-113360558D01*
X65195911Y-113360563D01*
X65369078Y-113684536D01*
X65369089Y-113684554D01*
X65573179Y-113989997D01*
X65573189Y-113990011D01*
X65806247Y-114273992D01*
X66066007Y-114533752D01*
X66066012Y-114533756D01*
X66066013Y-114533757D01*
X66349994Y-114766815D01*
X66655452Y-114970915D01*
X66655461Y-114970920D01*
X66655463Y-114970921D01*
X66979436Y-115144088D01*
X66979438Y-115144088D01*
X66979444Y-115144092D01*
X67116948Y-115201048D01*
X67318844Y-115284677D01*
X67318848Y-115284678D01*
X67318850Y-115284679D01*
X67670402Y-115391321D01*
X67670408Y-115391322D01*
X67670411Y-115391323D01*
X67670422Y-115391326D01*
X67896351Y-115436264D01*
X68030713Y-115462991D01*
X68396315Y-115499000D01*
X68396318Y-115499000D01*
X68763682Y-115499000D01*
X68763685Y-115499000D01*
X69129287Y-115462991D01*
X69307629Y-115427516D01*
X69489577Y-115391326D01*
X69489588Y-115391323D01*
X69489588Y-115391322D01*
X69489598Y-115391321D01*
X69841150Y-115284679D01*
X70180556Y-115144092D01*
X70504548Y-114970915D01*
X70810006Y-114766815D01*
X71093987Y-114533757D01*
X71353757Y-114273987D01*
X71586815Y-113990006D01*
X71790915Y-113684548D01*
X71964092Y-113360556D01*
X72052080Y-113148135D01*
X80945500Y-113148135D01*
X80945500Y-114943870D01*
X80945501Y-114943876D01*
X80951908Y-115003483D01*
X81002202Y-115138328D01*
X81002206Y-115138335D01*
X81088452Y-115253544D01*
X81088455Y-115253547D01*
X81203664Y-115339793D01*
X81203671Y-115339797D01*
X81338517Y-115390091D01*
X81338516Y-115390091D01*
X81345444Y-115390835D01*
X81398127Y-115396500D01*
X83193872Y-115396499D01*
X83253483Y-115390091D01*
X83388331Y-115339796D01*
X83503546Y-115253546D01*
X83589796Y-115138331D01*
X83638810Y-115006916D01*
X83680681Y-114950984D01*
X83746145Y-114926566D01*
X83814418Y-114941417D01*
X83842673Y-114962569D01*
X83956213Y-115076109D01*
X84128179Y-115201048D01*
X84128181Y-115201049D01*
X84128184Y-115201051D01*
X84317588Y-115297557D01*
X84519757Y-115363246D01*
X84729713Y-115396500D01*
X84729714Y-115396500D01*
X84942286Y-115396500D01*
X84942287Y-115396500D01*
X85152243Y-115363246D01*
X85354412Y-115297557D01*
X85543816Y-115201051D01*
X85622217Y-115144090D01*
X85715786Y-115076109D01*
X85715788Y-115076106D01*
X85715792Y-115076104D01*
X85866104Y-114925792D01*
X85866106Y-114925788D01*
X85866109Y-114925786D01*
X85991048Y-114753820D01*
X85991047Y-114753820D01*
X85991051Y-114753816D01*
X85995514Y-114745054D01*
X86043488Y-114694259D01*
X86111308Y-114677463D01*
X86177444Y-114699999D01*
X86216486Y-114745056D01*
X86220951Y-114753820D01*
X86345890Y-114925786D01*
X86496213Y-115076109D01*
X86668179Y-115201048D01*
X86668181Y-115201049D01*
X86668184Y-115201051D01*
X86857588Y-115297557D01*
X87059757Y-115363246D01*
X87269713Y-115396500D01*
X87269714Y-115396500D01*
X87482286Y-115396500D01*
X87482287Y-115396500D01*
X87692243Y-115363246D01*
X87894412Y-115297557D01*
X88083816Y-115201051D01*
X88162217Y-115144090D01*
X88255786Y-115076109D01*
X88255788Y-115076106D01*
X88255792Y-115076104D01*
X88406104Y-114925792D01*
X88406106Y-114925788D01*
X88406109Y-114925786D01*
X88491890Y-114807717D01*
X88531051Y-114753816D01*
X88535793Y-114744508D01*
X88583763Y-114693711D01*
X88651583Y-114676911D01*
X88717719Y-114699445D01*
X88756763Y-114744500D01*
X88761373Y-114753547D01*
X88800728Y-114807716D01*
X89433037Y-114175408D01*
X89450075Y-114238993D01*
X89515901Y-114353007D01*
X89608993Y-114446099D01*
X89723007Y-114511925D01*
X89786590Y-114528962D01*
X89154282Y-115161269D01*
X89154282Y-115161270D01*
X89208449Y-115200624D01*
X89397782Y-115297095D01*
X89599870Y-115362757D01*
X89809754Y-115396000D01*
X90022246Y-115396000D01*
X90232127Y-115362757D01*
X90232130Y-115362757D01*
X90434217Y-115297095D01*
X90623554Y-115200622D01*
X90677716Y-115161270D01*
X90677717Y-115161270D01*
X90045408Y-114528962D01*
X90108993Y-114511925D01*
X90223007Y-114446099D01*
X90316099Y-114353007D01*
X90381925Y-114238993D01*
X90398962Y-114175408D01*
X91031270Y-114807717D01*
X91031270Y-114807716D01*
X91070622Y-114753554D01*
X91167095Y-114564217D01*
X91232757Y-114362130D01*
X91232757Y-114362127D01*
X91266000Y-114152246D01*
X91266000Y-113939753D01*
X91232757Y-113729872D01*
X91232757Y-113729869D01*
X91167095Y-113527782D01*
X91070624Y-113338449D01*
X91031270Y-113284282D01*
X91031269Y-113284282D01*
X90398962Y-113916590D01*
X90381925Y-113853007D01*
X90316099Y-113738993D01*
X90223007Y-113645901D01*
X90108993Y-113580075D01*
X90045409Y-113563037D01*
X90677716Y-112930728D01*
X90623550Y-112891375D01*
X90434217Y-112794904D01*
X90232129Y-112729242D01*
X90022246Y-112696000D01*
X89809754Y-112696000D01*
X89599872Y-112729242D01*
X89599869Y-112729242D01*
X89397782Y-112794904D01*
X89208439Y-112891380D01*
X89154282Y-112930727D01*
X89154282Y-112930728D01*
X89786591Y-113563037D01*
X89723007Y-113580075D01*
X89608993Y-113645901D01*
X89515901Y-113738993D01*
X89450075Y-113853007D01*
X89433037Y-113916591D01*
X88800728Y-113284282D01*
X88800727Y-113284282D01*
X88761380Y-113338440D01*
X88761376Y-113338446D01*
X88756760Y-113347505D01*
X88708781Y-113398297D01*
X88640959Y-113415087D01*
X88574826Y-113392543D01*
X88535794Y-113347493D01*
X88531051Y-113338184D01*
X88531049Y-113338181D01*
X88531048Y-113338179D01*
X88406109Y-113166213D01*
X88309420Y-113069524D01*
X88255792Y-113015896D01*
X88178130Y-112959471D01*
X88174842Y-112956715D01*
X88157762Y-112931071D01*
X88138949Y-112906673D01*
X88137942Y-112901312D01*
X88136111Y-112898563D01*
X88135985Y-112890892D01*
X88130500Y-112861685D01*
X88130500Y-112856446D01*
X88130501Y-112856425D01*
X88130501Y-112701685D01*
X88101506Y-112555926D01*
X88101505Y-112555925D01*
X88101505Y-112555921D01*
X88044630Y-112418611D01*
X88017230Y-112377605D01*
X87962059Y-112295034D01*
X87962057Y-112295032D01*
X87962055Y-112295029D01*
X87852647Y-112185621D01*
X87852624Y-112185600D01*
X86078969Y-110411943D01*
X86078968Y-110411942D01*
X85955392Y-110329372D01*
X85955391Y-110329371D01*
X85955389Y-110329370D01*
X85955386Y-110329368D01*
X85955381Y-110329366D01*
X85861519Y-110290488D01*
X85861517Y-110290487D01*
X85856975Y-110288606D01*
X85818080Y-110272495D01*
X85793894Y-110267684D01*
X85786776Y-110266268D01*
X85786773Y-110266267D01*
X85672314Y-110243499D01*
X85672312Y-110243499D01*
X85523688Y-110243499D01*
X85517574Y-110243499D01*
X85517554Y-110243500D01*
X84114947Y-110243500D01*
X84067498Y-110234062D01*
X84053497Y-110228263D01*
X84053493Y-110228262D01*
X84053488Y-110228260D01*
X83898845Y-110197500D01*
X83898842Y-110197500D01*
X83741158Y-110197500D01*
X83741155Y-110197500D01*
X83586510Y-110228261D01*
X83586498Y-110228264D01*
X83440827Y-110288602D01*
X83440814Y-110288609D01*
X83309711Y-110376210D01*
X83309707Y-110376213D01*
X83198213Y-110487707D01*
X83198210Y-110487711D01*
X83110609Y-110618814D01*
X83110602Y-110618827D01*
X83050264Y-110764498D01*
X83050261Y-110764510D01*
X83019500Y-110919153D01*
X83019500Y-111076846D01*
X83050261Y-111231489D01*
X83050264Y-111231501D01*
X83110602Y-111377172D01*
X83110609Y-111377185D01*
X83198210Y-111508288D01*
X83198213Y-111508292D01*
X83309707Y-111619786D01*
X83309711Y-111619789D01*
X83440814Y-111707390D01*
X83440827Y-111707397D01*
X83586498Y-111767735D01*
X83586503Y-111767737D01*
X83692489Y-111788819D01*
X83741153Y-111798499D01*
X83741156Y-111798500D01*
X83741158Y-111798500D01*
X83898844Y-111798500D01*
X83898845Y-111798499D01*
X84031136Y-111772185D01*
X84053488Y-111767739D01*
X84053489Y-111767738D01*
X84053497Y-111767737D01*
X84067498Y-111761937D01*
X84114947Y-111752500D01*
X85234113Y-111752500D01*
X85301152Y-111772185D01*
X85321794Y-111788819D01*
X86434858Y-112901882D01*
X86468343Y-112963205D01*
X86463359Y-113032897D01*
X86434859Y-113077243D01*
X86345894Y-113166209D01*
X86345890Y-113166213D01*
X86220949Y-113338182D01*
X86216484Y-113346946D01*
X86168509Y-113397742D01*
X86100688Y-113414536D01*
X86034553Y-113391998D01*
X85995516Y-113346946D01*
X85991050Y-113338182D01*
X85866109Y-113166213D01*
X85715786Y-113015890D01*
X85543820Y-112890951D01*
X85354414Y-112794444D01*
X85354413Y-112794443D01*
X85354412Y-112794443D01*
X85152243Y-112728754D01*
X85152241Y-112728753D01*
X85152240Y-112728753D01*
X84990957Y-112703208D01*
X84942287Y-112695500D01*
X84729713Y-112695500D01*
X84681042Y-112703208D01*
X84519760Y-112728753D01*
X84317585Y-112794444D01*
X84128179Y-112890951D01*
X83956215Y-113015889D01*
X83842673Y-113129431D01*
X83781350Y-113162915D01*
X83711658Y-113157931D01*
X83655725Y-113116059D01*
X83638810Y-113085082D01*
X83589797Y-112953671D01*
X83589793Y-112953664D01*
X83503547Y-112838455D01*
X83503544Y-112838452D01*
X83388335Y-112752206D01*
X83388328Y-112752202D01*
X83253482Y-112701908D01*
X83253483Y-112701908D01*
X83193883Y-112695501D01*
X83193881Y-112695500D01*
X83193873Y-112695500D01*
X83193864Y-112695500D01*
X81398129Y-112695500D01*
X81398123Y-112695501D01*
X81338516Y-112701908D01*
X81203671Y-112752202D01*
X81203664Y-112752206D01*
X81088455Y-112838452D01*
X81088452Y-112838455D01*
X81002206Y-112953664D01*
X81002202Y-112953671D01*
X80951908Y-113088517D01*
X80945501Y-113148116D01*
X80945500Y-113148135D01*
X72052080Y-113148135D01*
X72052088Y-113148116D01*
X72073115Y-113097353D01*
X72104677Y-113021155D01*
X72104679Y-113021150D01*
X72211321Y-112669598D01*
X72211323Y-112669588D01*
X72211326Y-112669577D01*
X72269401Y-112377607D01*
X72282991Y-112309287D01*
X72319000Y-111943685D01*
X72319000Y-111576315D01*
X72282991Y-111210713D01*
X72244757Y-111018498D01*
X72211326Y-110850422D01*
X72211323Y-110850411D01*
X72211322Y-110850408D01*
X72211321Y-110850402D01*
X72104679Y-110498850D01*
X72100210Y-110488062D01*
X72010919Y-110272495D01*
X71964092Y-110159444D01*
X71790915Y-109835452D01*
X71586815Y-109529994D01*
X71353757Y-109246013D01*
X71353756Y-109246012D01*
X71353752Y-109246007D01*
X71093992Y-108986247D01*
X70810011Y-108753189D01*
X70810010Y-108753188D01*
X70810006Y-108753185D01*
X70504548Y-108549085D01*
X70504543Y-108549082D01*
X70504536Y-108549078D01*
X70180563Y-108375911D01*
X70180558Y-108375909D01*
X69841155Y-108235322D01*
X69489588Y-108128676D01*
X69489577Y-108128673D01*
X69129293Y-108057010D01*
X69129276Y-108057007D01*
X68852806Y-108029777D01*
X68763685Y-108021000D01*
X68396315Y-108021000D01*
X68313891Y-108029118D01*
X68030723Y-108057007D01*
X68030706Y-108057010D01*
X67670422Y-108128673D01*
X67670411Y-108128676D01*
X67318844Y-108235322D01*
X66979441Y-108375909D01*
X66979436Y-108375911D01*
X66655463Y-108549078D01*
X66655445Y-108549089D01*
X66350002Y-108753179D01*
X66349988Y-108753189D01*
X66066007Y-108986247D01*
X65806247Y-109246007D01*
X65573189Y-109529988D01*
X65573179Y-109530002D01*
X65369089Y-109835445D01*
X65369078Y-109835463D01*
X65195911Y-110159436D01*
X65195909Y-110159441D01*
X65055322Y-110498844D01*
X64948676Y-110850411D01*
X64948673Y-110850422D01*
X64877010Y-111210706D01*
X64877007Y-111210723D01*
X64849946Y-111485489D01*
X64841000Y-111576315D01*
X64000500Y-111576315D01*
X64000500Y-81225202D01*
X64006738Y-81203956D01*
X64008318Y-81181868D01*
X64016390Y-81171084D01*
X64020185Y-81158163D01*
X64036918Y-81143663D01*
X64050190Y-81125935D01*
X64062810Y-81121227D01*
X64072989Y-81112408D01*
X64094906Y-81109256D01*
X64115654Y-81101518D01*
X64128814Y-81104380D01*
X64142147Y-81102464D01*
X64162290Y-81111663D01*
X64183927Y-81116370D01*
X64201652Y-81129638D01*
X64205703Y-81131489D01*
X64212181Y-81137521D01*
X64334781Y-81260121D01*
X64368266Y-81321444D01*
X64371100Y-81347802D01*
X64371100Y-93536305D01*
X64371100Y-93536307D01*
X64371099Y-93536307D01*
X64383933Y-93600821D01*
X64387691Y-93619713D01*
X64396191Y-93662444D01*
X64445408Y-93781264D01*
X64516859Y-93888200D01*
X64715828Y-94087168D01*
X64749312Y-94148489D01*
X64749763Y-94150657D01*
X64762261Y-94213489D01*
X64762264Y-94213501D01*
X64822602Y-94359172D01*
X64822609Y-94359185D01*
X64910210Y-94490288D01*
X64910213Y-94490292D01*
X65021707Y-94601786D01*
X65021711Y-94601789D01*
X65152814Y-94689390D01*
X65152827Y-94689397D01*
X65298498Y-94749735D01*
X65298503Y-94749737D01*
X65453153Y-94780499D01*
X65453156Y-94780500D01*
X65453158Y-94780500D01*
X65610844Y-94780500D01*
X65610845Y-94780499D01*
X65765497Y-94749737D01*
X65911179Y-94689394D01*
X66042289Y-94601789D01*
X66153789Y-94490289D01*
X66241394Y-94359179D01*
X66301737Y-94213497D01*
X66332500Y-94058842D01*
X66332500Y-93901158D01*
X66332500Y-93901155D01*
X66332499Y-93901153D01*
X66326325Y-93870113D01*
X66301737Y-93746503D01*
X66249220Y-93619714D01*
X66241397Y-93600827D01*
X66241390Y-93600814D01*
X66153789Y-93469711D01*
X66153786Y-93469707D01*
X66042292Y-93358213D01*
X66042288Y-93358210D01*
X65911185Y-93270609D01*
X65911172Y-93270602D01*
X65765494Y-93210261D01*
X65764889Y-93210078D01*
X65764611Y-93209895D01*
X65759870Y-93207932D01*
X65760242Y-93207032D01*
X65706456Y-93171773D01*
X65678007Y-93107957D01*
X65676900Y-93091422D01*
X65676900Y-80961692D01*
X65651810Y-80835561D01*
X65651809Y-80835560D01*
X65651809Y-80835556D01*
X65602592Y-80716736D01*
X65597051Y-80708444D01*
X65597050Y-80708442D01*
X65597049Y-80708440D01*
X65531138Y-80609797D01*
X65205219Y-80283878D01*
X65171734Y-80222555D01*
X65168900Y-80196197D01*
X65168900Y-78567184D01*
X65188585Y-78500145D01*
X65241389Y-78454390D01*
X65310547Y-78444446D01*
X65374103Y-78473471D01*
X65380581Y-78479503D01*
X65402214Y-78501136D01*
X65402218Y-78501139D01*
X65566079Y-78610628D01*
X65566092Y-78610635D01*
X65748160Y-78686049D01*
X65748165Y-78686051D01*
X65748169Y-78686051D01*
X65748170Y-78686052D01*
X65941456Y-78724500D01*
X65941459Y-78724500D01*
X66138543Y-78724500D01*
X66268582Y-78698632D01*
X66331835Y-78686051D01*
X66513914Y-78610632D01*
X66677782Y-78501139D01*
X66817139Y-78361782D01*
X66926632Y-78197914D01*
X67002051Y-78015835D01*
X67040500Y-77822541D01*
X67040500Y-77625459D01*
X67040500Y-77625456D01*
X67002052Y-77432170D01*
X67002051Y-77432169D01*
X67002051Y-77432165D01*
X67002049Y-77432160D01*
X66926635Y-77250092D01*
X66926633Y-77250088D01*
X66926632Y-77250086D01*
X66865029Y-77157891D01*
X66844151Y-77091214D01*
X66862635Y-77023834D01*
X66865029Y-77020110D01*
X66887175Y-76986966D01*
X66940787Y-76942160D01*
X67010112Y-76933453D01*
X67073139Y-76963607D01*
X67104838Y-77008403D01*
X67178277Y-77185700D01*
X67178282Y-77185710D01*
X67288646Y-77350880D01*
X67288649Y-77350884D01*
X67429115Y-77491350D01*
X67429119Y-77491353D01*
X67594289Y-77601717D01*
X67594295Y-77601720D01*
X67594296Y-77601721D01*
X67777831Y-77677744D01*
X67972666Y-77716499D01*
X67972670Y-77716500D01*
X67972671Y-77716500D01*
X72174904Y-77716500D01*
X72241943Y-77736185D01*
X72262585Y-77752819D01*
X75924647Y-81414881D01*
X80383115Y-85873350D01*
X80383119Y-85873353D01*
X80548289Y-85983717D01*
X80548295Y-85983720D01*
X80548296Y-85983721D01*
X80731831Y-86059744D01*
X80926666Y-86098499D01*
X80926670Y-86098500D01*
X80926671Y-86098500D01*
X81125331Y-86098500D01*
X81125332Y-86098499D01*
X81320168Y-86059744D01*
X81370048Y-86039082D01*
X81439516Y-86031614D01*
X81501995Y-86062889D01*
X81537648Y-86122978D01*
X81541500Y-86153644D01*
X81541500Y-106346552D01*
X81541499Y-106346578D01*
X81541499Y-106351688D01*
X81541499Y-106500312D01*
X81541499Y-106500314D01*
X81541498Y-106500314D01*
X81570493Y-106646073D01*
X81570496Y-106646083D01*
X81627366Y-106783381D01*
X81627372Y-106783392D01*
X81709942Y-106906968D01*
X81709943Y-106906969D01*
X84245600Y-109442624D01*
X84245621Y-109442647D01*
X84355028Y-109552054D01*
X84355035Y-109552060D01*
X84478608Y-109634628D01*
X84478609Y-109634628D01*
X84478610Y-109634629D01*
X84615920Y-109691505D01*
X84761683Y-109720499D01*
X84761687Y-109720500D01*
X84761688Y-109720500D01*
X84910312Y-109720500D01*
X92092113Y-109720500D01*
X92159152Y-109740185D01*
X92179794Y-109756819D01*
X94151600Y-111728624D01*
X94151621Y-111728647D01*
X94261028Y-111838054D01*
X94261035Y-111838060D01*
X94384608Y-111920628D01*
X94384609Y-111920628D01*
X94384610Y-111920629D01*
X94521920Y-111977505D01*
X94667683Y-112006499D01*
X94667687Y-112006500D01*
X94667688Y-112006500D01*
X94816312Y-112006500D01*
X99019053Y-112006500D01*
X99066501Y-112015937D01*
X99080503Y-112021737D01*
X99080508Y-112021738D01*
X99080511Y-112021739D01*
X99235153Y-112052499D01*
X99235156Y-112052500D01*
X99235158Y-112052500D01*
X99392844Y-112052500D01*
X99392845Y-112052499D01*
X99547497Y-112021737D01*
X99693179Y-111961394D01*
X99824289Y-111873789D01*
X99935789Y-111762289D01*
X100023394Y-111631179D01*
X100046119Y-111576315D01*
X118181000Y-111576315D01*
X118181000Y-111943685D01*
X118188687Y-112021735D01*
X118217007Y-112309276D01*
X118217010Y-112309293D01*
X118288673Y-112669577D01*
X118288676Y-112669588D01*
X118395322Y-113021155D01*
X118535909Y-113360558D01*
X118535911Y-113360563D01*
X118709078Y-113684536D01*
X118709089Y-113684554D01*
X118913179Y-113989997D01*
X118913189Y-113990011D01*
X119146247Y-114273992D01*
X119406007Y-114533752D01*
X119406012Y-114533756D01*
X119406013Y-114533757D01*
X119689994Y-114766815D01*
X119995452Y-114970915D01*
X119995461Y-114970920D01*
X119995463Y-114970921D01*
X120319436Y-115144088D01*
X120319438Y-115144088D01*
X120319444Y-115144092D01*
X120456948Y-115201048D01*
X120658844Y-115284677D01*
X120658848Y-115284678D01*
X120658850Y-115284679D01*
X121010402Y-115391321D01*
X121010408Y-115391322D01*
X121010411Y-115391323D01*
X121010422Y-115391326D01*
X121236351Y-115436264D01*
X121370713Y-115462991D01*
X121736315Y-115499000D01*
X121736318Y-115499000D01*
X122103682Y-115499000D01*
X122103685Y-115499000D01*
X122469287Y-115462991D01*
X122647629Y-115427516D01*
X122829577Y-115391326D01*
X122829588Y-115391323D01*
X122829588Y-115391322D01*
X122829598Y-115391321D01*
X123181150Y-115284679D01*
X123520556Y-115144092D01*
X123844548Y-114970915D01*
X124150006Y-114766815D01*
X124433987Y-114533757D01*
X124693757Y-114273987D01*
X124926815Y-113990006D01*
X125130915Y-113684548D01*
X125304092Y-113360556D01*
X125444679Y-113021150D01*
X125551321Y-112669598D01*
X125551323Y-112669588D01*
X125551326Y-112669577D01*
X125609401Y-112377607D01*
X125622991Y-112309287D01*
X125659000Y-111943685D01*
X125659000Y-111576315D01*
X125622991Y-111210713D01*
X125584757Y-111018498D01*
X125551326Y-110850422D01*
X125551323Y-110850411D01*
X125551322Y-110850408D01*
X125551321Y-110850402D01*
X125444679Y-110498850D01*
X125440210Y-110488062D01*
X125350919Y-110272495D01*
X125304092Y-110159444D01*
X125130915Y-109835452D01*
X124926815Y-109529994D01*
X124693757Y-109246013D01*
X124693756Y-109246012D01*
X124693752Y-109246007D01*
X124433992Y-108986247D01*
X124150011Y-108753189D01*
X124150010Y-108753188D01*
X124150006Y-108753185D01*
X123844548Y-108549085D01*
X123844543Y-108549082D01*
X123844536Y-108549078D01*
X123520563Y-108375911D01*
X123520558Y-108375909D01*
X123181155Y-108235322D01*
X122829588Y-108128676D01*
X122829577Y-108128673D01*
X122469293Y-108057010D01*
X122469276Y-108057007D01*
X122192806Y-108029777D01*
X122103685Y-108021000D01*
X121736315Y-108021000D01*
X121653891Y-108029118D01*
X121370723Y-108057007D01*
X121370706Y-108057010D01*
X121010422Y-108128673D01*
X121010411Y-108128676D01*
X120658844Y-108235322D01*
X120319441Y-108375909D01*
X120319436Y-108375911D01*
X119995463Y-108549078D01*
X119995445Y-108549089D01*
X119690002Y-108753179D01*
X119689988Y-108753189D01*
X119406007Y-108986247D01*
X119146247Y-109246007D01*
X118913189Y-109529988D01*
X118913179Y-109530002D01*
X118709089Y-109835445D01*
X118709078Y-109835463D01*
X118535911Y-110159436D01*
X118535909Y-110159441D01*
X118395322Y-110498844D01*
X118288676Y-110850411D01*
X118288673Y-110850422D01*
X118217010Y-111210706D01*
X118217007Y-111210723D01*
X118189946Y-111485489D01*
X118181000Y-111576315D01*
X100046119Y-111576315D01*
X100083737Y-111485497D01*
X100114500Y-111330842D01*
X100114500Y-111173158D01*
X100114500Y-111173155D01*
X100114499Y-111173153D01*
X100083738Y-111018510D01*
X100083737Y-111018503D01*
X100083735Y-111018498D01*
X100023397Y-110872827D01*
X100023390Y-110872814D01*
X99935789Y-110741711D01*
X99935786Y-110741707D01*
X99824292Y-110630213D01*
X99824288Y-110630210D01*
X99693185Y-110542609D01*
X99693172Y-110542602D01*
X99547501Y-110482264D01*
X99547489Y-110482261D01*
X99392845Y-110451500D01*
X99392842Y-110451500D01*
X99235158Y-110451500D01*
X99235155Y-110451500D01*
X99080511Y-110482260D01*
X99080506Y-110482262D01*
X99080504Y-110482262D01*
X99080503Y-110482263D01*
X99066501Y-110488062D01*
X99019053Y-110497500D01*
X95105886Y-110497500D01*
X95038847Y-110477815D01*
X95018205Y-110461181D01*
X92936969Y-108379943D01*
X92936968Y-108379942D01*
X92895773Y-108352417D01*
X92813389Y-108297370D01*
X92813386Y-108297368D01*
X92813385Y-108297368D01*
X92732955Y-108264053D01*
X92676080Y-108240495D01*
X92651894Y-108235684D01*
X92650069Y-108235321D01*
X92530314Y-108211499D01*
X92530312Y-108211499D01*
X92381688Y-108211499D01*
X92375574Y-108211499D01*
X92375554Y-108211500D01*
X85199886Y-108211500D01*
X85132847Y-108191815D01*
X85112205Y-108175181D01*
X83086819Y-106149794D01*
X83053334Y-106088471D01*
X83050500Y-106062113D01*
X83050500Y-82913885D01*
X83070185Y-82846846D01*
X83086814Y-82826209D01*
X85238994Y-80674028D01*
X85257474Y-80663937D01*
X85273139Y-80649863D01*
X85287523Y-80647529D01*
X85300315Y-80640545D01*
X85321319Y-80642047D01*
X85342107Y-80638675D01*
X85355470Y-80644489D01*
X85370007Y-80645529D01*
X85386865Y-80658149D01*
X85406175Y-80666551D01*
X85422791Y-80685043D01*
X85425940Y-80687401D01*
X85429764Y-80692804D01*
X85432191Y-80696435D01*
X85453080Y-80763109D01*
X85453100Y-80765342D01*
X85453100Y-87440308D01*
X85475149Y-87551155D01*
X85478190Y-87566440D01*
X85478192Y-87566447D01*
X85505465Y-87632289D01*
X85527408Y-87685264D01*
X85598859Y-87792200D01*
X85598862Y-87792204D01*
X85598863Y-87792205D01*
X87213794Y-89407135D01*
X87213797Y-89407138D01*
X87255548Y-89435035D01*
X87320729Y-89478588D01*
X87320735Y-89478591D01*
X87320736Y-89478592D01*
X87439556Y-89527809D01*
X87439560Y-89527809D01*
X87439561Y-89527810D01*
X87565692Y-89552900D01*
X87565695Y-89552900D01*
X98992197Y-89552900D01*
X99059236Y-89572585D01*
X99079878Y-89589219D01*
X99913794Y-90423136D01*
X99913795Y-90423137D01*
X99913798Y-90423139D01*
X99913800Y-90423141D01*
X100020736Y-90494592D01*
X100139556Y-90543809D01*
X100139560Y-90543809D01*
X100139561Y-90543810D01*
X100265692Y-90568900D01*
X100265695Y-90568900D01*
X103722122Y-90568900D01*
X103776854Y-90582609D01*
X103776983Y-90582299D01*
X103779076Y-90583166D01*
X103780573Y-90583541D01*
X103782607Y-90584627D01*
X103782611Y-90584630D01*
X103919921Y-90641505D01*
X103919925Y-90641505D01*
X103919926Y-90641506D01*
X104065685Y-90670501D01*
X104065688Y-90670501D01*
X104214314Y-90670501D01*
X104312373Y-90650994D01*
X104360079Y-90641505D01*
X104497389Y-90584630D01*
X104620966Y-90502059D01*
X108394423Y-86728601D01*
X108455745Y-86695117D01*
X108525437Y-86700101D01*
X108581370Y-86741973D01*
X108605787Y-86807437D01*
X108590935Y-86875710D01*
X108585205Y-86885173D01*
X108510612Y-86996809D01*
X108510602Y-86996827D01*
X108450264Y-87142498D01*
X108450261Y-87142510D01*
X108419500Y-87297153D01*
X108419500Y-87454846D01*
X108450261Y-87609489D01*
X108450263Y-87609497D01*
X108456061Y-87623494D01*
X108465500Y-87670947D01*
X108465500Y-89836552D01*
X108465499Y-89836578D01*
X108465499Y-89841688D01*
X108465499Y-89990312D01*
X108465499Y-89990314D01*
X108465498Y-89990314D01*
X108494493Y-90136073D01*
X108494496Y-90136083D01*
X108551366Y-90273381D01*
X108551372Y-90273392D01*
X108633942Y-90396968D01*
X108633943Y-90396969D01*
X111271926Y-93034950D01*
X111298805Y-93075176D01*
X111304604Y-93089175D01*
X111304607Y-93089181D01*
X111392207Y-93220284D01*
X111392213Y-93220292D01*
X111503707Y-93331786D01*
X111503711Y-93331789D01*
X111634814Y-93419390D01*
X111634827Y-93419397D01*
X111756288Y-93469707D01*
X111780503Y-93479737D01*
X111935153Y-93510499D01*
X111935156Y-93510500D01*
X111935158Y-93510500D01*
X112092844Y-93510500D01*
X112092845Y-93510499D01*
X112247497Y-93479737D01*
X112393179Y-93419394D01*
X112524289Y-93331789D01*
X112635789Y-93220289D01*
X112723394Y-93089179D01*
X112783737Y-92943497D01*
X112814500Y-92788842D01*
X112814500Y-92631158D01*
X112814500Y-92631155D01*
X112814499Y-92631153D01*
X112802524Y-92570951D01*
X112783737Y-92476503D01*
X112777445Y-92461312D01*
X112723397Y-92330827D01*
X112723390Y-92330814D01*
X112635789Y-92199711D01*
X112635786Y-92199707D01*
X112524292Y-92088213D01*
X112524284Y-92088207D01*
X112393181Y-92000607D01*
X112393175Y-92000604D01*
X112379176Y-91994805D01*
X112338950Y-91967926D01*
X110010819Y-89639794D01*
X109977334Y-89578471D01*
X109974500Y-89552113D01*
X109974500Y-87670947D01*
X109983939Y-87623494D01*
X109989737Y-87609497D01*
X110020500Y-87454842D01*
X110020500Y-87297158D01*
X110020500Y-87297155D01*
X110020499Y-87297153D01*
X110011283Y-87250821D01*
X109989737Y-87142503D01*
X109980295Y-87119707D01*
X109929397Y-86996827D01*
X109929390Y-86996814D01*
X109841789Y-86865711D01*
X109841786Y-86865707D01*
X109730292Y-86754213D01*
X109730288Y-86754210D01*
X109599185Y-86666609D01*
X109599172Y-86666602D01*
X109453501Y-86606264D01*
X109453489Y-86606261D01*
X109298845Y-86575500D01*
X109298842Y-86575500D01*
X109141158Y-86575500D01*
X109141155Y-86575500D01*
X108986510Y-86606261D01*
X108986498Y-86606264D01*
X108840827Y-86666602D01*
X108840809Y-86666612D01*
X108729173Y-86741205D01*
X108662496Y-86762083D01*
X108595116Y-86743598D01*
X108548426Y-86691619D01*
X108537250Y-86622649D01*
X108565136Y-86558586D01*
X108572602Y-86550422D01*
X110161845Y-84961179D01*
X111830954Y-83292069D01*
X111871182Y-83265191D01*
X111885179Y-83259394D01*
X112016289Y-83171789D01*
X112127789Y-83060289D01*
X112215394Y-82929179D01*
X112223586Y-82909400D01*
X112267425Y-82854997D01*
X112333719Y-82832930D01*
X112401419Y-82850208D01*
X112425829Y-82869170D01*
X113255181Y-83698521D01*
X113288666Y-83759844D01*
X113291500Y-83786202D01*
X113291500Y-94154552D01*
X113291499Y-94154578D01*
X113291499Y-94159688D01*
X113291499Y-94308312D01*
X113291499Y-94308314D01*
X113291498Y-94308314D01*
X113320493Y-94454073D01*
X113320496Y-94454083D01*
X113377366Y-94591381D01*
X113377372Y-94591392D01*
X113459942Y-94714968D01*
X113459943Y-94714969D01*
X114065927Y-95320952D01*
X114092805Y-95361176D01*
X114098605Y-95375177D01*
X114098607Y-95375181D01*
X114186207Y-95506284D01*
X114186213Y-95506292D01*
X114297707Y-95617786D01*
X114297711Y-95617789D01*
X114428814Y-95705390D01*
X114428827Y-95705397D01*
X114530687Y-95747588D01*
X114574503Y-95765737D01*
X114729153Y-95796499D01*
X114729156Y-95796500D01*
X114729158Y-95796500D01*
X114886844Y-95796500D01*
X114886845Y-95796499D01*
X115041497Y-95765737D01*
X115187179Y-95705394D01*
X115318289Y-95617789D01*
X115429789Y-95506289D01*
X115517394Y-95375179D01*
X115577737Y-95229497D01*
X115608500Y-95074842D01*
X115608500Y-94917158D01*
X115608500Y-94917155D01*
X115608499Y-94917153D01*
X115602206Y-94885516D01*
X115577737Y-94762503D01*
X115575089Y-94756109D01*
X115517397Y-94616827D01*
X115517390Y-94616814D01*
X115429789Y-94485711D01*
X115429786Y-94485707D01*
X115318292Y-94374213D01*
X115318284Y-94374207D01*
X115187181Y-94286607D01*
X115187177Y-94286605D01*
X115173176Y-94280805D01*
X115132952Y-94253927D01*
X114836819Y-93957794D01*
X114803334Y-93896471D01*
X114800500Y-93870113D01*
X114800500Y-89075153D01*
X116039500Y-89075153D01*
X116039500Y-89232846D01*
X116070261Y-89387489D01*
X116070263Y-89387497D01*
X116076061Y-89401494D01*
X116085500Y-89448947D01*
X116085500Y-100658316D01*
X116114493Y-100804072D01*
X116114495Y-100804080D01*
X116171371Y-100941391D01*
X116253939Y-101064964D01*
X116253945Y-101064971D01*
X116359028Y-101170054D01*
X116359035Y-101170060D01*
X116482608Y-101252628D01*
X116482609Y-101252628D01*
X116482610Y-101252629D01*
X116619920Y-101309505D01*
X116619926Y-101309506D01*
X116622117Y-101310171D01*
X116623434Y-101310960D01*
X116625548Y-101311836D01*
X116625418Y-101312149D01*
X116673812Y-101341153D01*
X117039827Y-101707168D01*
X117073312Y-101768491D01*
X117073763Y-101770658D01*
X117086261Y-101833489D01*
X117086264Y-101833501D01*
X117146602Y-101979172D01*
X117146609Y-101979185D01*
X117234210Y-102110288D01*
X117234213Y-102110292D01*
X117345707Y-102221786D01*
X117345711Y-102221789D01*
X117476814Y-102309390D01*
X117476827Y-102309397D01*
X117622498Y-102369735D01*
X117622503Y-102369737D01*
X117777153Y-102400499D01*
X117777156Y-102400500D01*
X117777158Y-102400500D01*
X117934844Y-102400500D01*
X117934845Y-102400499D01*
X118089497Y-102369737D01*
X118235179Y-102309394D01*
X118366289Y-102221789D01*
X118477789Y-102110289D01*
X118565394Y-101979179D01*
X118625737Y-101833497D01*
X118656500Y-101678842D01*
X118656500Y-101521158D01*
X118656500Y-101521155D01*
X118656499Y-101521153D01*
X118625738Y-101366510D01*
X118625737Y-101366503D01*
X118603223Y-101312149D01*
X118565397Y-101220827D01*
X118565390Y-101220814D01*
X118477789Y-101089711D01*
X118477786Y-101089707D01*
X118366292Y-100978213D01*
X118366288Y-100978210D01*
X118235185Y-100890609D01*
X118235172Y-100890602D01*
X118089501Y-100830264D01*
X118089489Y-100830261D01*
X118026658Y-100817763D01*
X117964747Y-100785378D01*
X117963168Y-100783827D01*
X117630819Y-100451478D01*
X117597334Y-100390155D01*
X117594500Y-100363797D01*
X117594500Y-91079713D01*
X119299500Y-91079713D01*
X119299500Y-91292286D01*
X119332753Y-91502239D01*
X119398444Y-91704414D01*
X119494951Y-91893820D01*
X119619890Y-92065786D01*
X119770213Y-92216109D01*
X119942182Y-92341050D01*
X119950946Y-92345516D01*
X120001742Y-92393491D01*
X120018536Y-92461312D01*
X119995998Y-92527447D01*
X119950946Y-92566484D01*
X119942182Y-92570949D01*
X119770213Y-92695890D01*
X119619890Y-92846213D01*
X119494951Y-93018179D01*
X119398444Y-93207585D01*
X119398443Y-93207587D01*
X119398443Y-93207588D01*
X119397574Y-93210263D01*
X119332753Y-93409760D01*
X119312710Y-93536307D01*
X119299500Y-93619713D01*
X119299500Y-93832287D01*
X119332754Y-94042243D01*
X119388399Y-94213501D01*
X119398444Y-94244414D01*
X119494951Y-94433820D01*
X119619890Y-94605786D01*
X119770213Y-94756109D01*
X119942182Y-94881050D01*
X119950946Y-94885516D01*
X120001742Y-94933491D01*
X120018536Y-95001312D01*
X119995998Y-95067447D01*
X119950946Y-95106484D01*
X119942182Y-95110949D01*
X119770213Y-95235890D01*
X119619890Y-95386213D01*
X119494951Y-95558179D01*
X119398444Y-95747585D01*
X119332753Y-95949760D01*
X119299500Y-96159713D01*
X119299500Y-96372286D01*
X119332753Y-96582239D01*
X119398444Y-96784414D01*
X119494951Y-96973820D01*
X119619890Y-97145786D01*
X119770213Y-97296109D01*
X119942182Y-97421050D01*
X119950946Y-97425516D01*
X120001742Y-97473491D01*
X120018536Y-97541312D01*
X119995998Y-97607447D01*
X119950946Y-97646484D01*
X119942182Y-97650949D01*
X119770213Y-97775890D01*
X119619890Y-97926213D01*
X119494951Y-98098179D01*
X119398444Y-98287585D01*
X119332753Y-98489760D01*
X119299500Y-98699713D01*
X119299500Y-98912286D01*
X119332753Y-99122239D01*
X119398444Y-99324414D01*
X119494951Y-99513820D01*
X119619890Y-99685786D01*
X119770213Y-99836109D01*
X119942179Y-99961048D01*
X119942181Y-99961049D01*
X119942184Y-99961051D01*
X120131588Y-100057557D01*
X120333757Y-100123246D01*
X120543713Y-100156500D01*
X120543714Y-100156500D01*
X120756286Y-100156500D01*
X120756287Y-100156500D01*
X120966243Y-100123246D01*
X121168412Y-100057557D01*
X121357816Y-99961051D01*
X121379789Y-99945086D01*
X121529786Y-99836109D01*
X121529788Y-99836106D01*
X121529792Y-99836104D01*
X121680104Y-99685792D01*
X121680106Y-99685788D01*
X121680109Y-99685786D01*
X121805048Y-99513820D01*
X121805047Y-99513820D01*
X121805051Y-99513816D01*
X121809514Y-99505054D01*
X121857488Y-99454259D01*
X121925308Y-99437463D01*
X121991444Y-99459999D01*
X122030486Y-99505056D01*
X122034951Y-99513820D01*
X122159890Y-99685786D01*
X122310213Y-99836109D01*
X122482179Y-99961048D01*
X122482181Y-99961049D01*
X122482184Y-99961051D01*
X122671588Y-100057557D01*
X122873757Y-100123246D01*
X123083713Y-100156500D01*
X123083714Y-100156500D01*
X123296286Y-100156500D01*
X123296287Y-100156500D01*
X123506243Y-100123246D01*
X123708412Y-100057557D01*
X123897816Y-99961051D01*
X123919789Y-99945086D01*
X124069786Y-99836109D01*
X124069788Y-99836106D01*
X124069792Y-99836104D01*
X124220104Y-99685792D01*
X124220106Y-99685788D01*
X124220109Y-99685786D01*
X124345048Y-99513820D01*
X124345047Y-99513820D01*
X124345051Y-99513816D01*
X124441557Y-99324412D01*
X124507246Y-99122243D01*
X124540500Y-98912287D01*
X124540500Y-98699713D01*
X124507246Y-98489757D01*
X124441557Y-98287588D01*
X124345051Y-98098184D01*
X124345049Y-98098181D01*
X124345048Y-98098179D01*
X124220109Y-97926213D01*
X124069786Y-97775890D01*
X123897820Y-97650951D01*
X123897115Y-97650591D01*
X123889054Y-97646485D01*
X123838259Y-97598512D01*
X123821463Y-97530692D01*
X123843999Y-97464556D01*
X123889054Y-97425515D01*
X123897816Y-97421051D01*
X123919789Y-97405086D01*
X124069786Y-97296109D01*
X124069788Y-97296106D01*
X124069792Y-97296104D01*
X124220104Y-97145792D01*
X124220106Y-97145788D01*
X124220109Y-97145786D01*
X124345048Y-96973820D01*
X124345047Y-96973820D01*
X124345051Y-96973816D01*
X124441557Y-96784412D01*
X124507246Y-96582243D01*
X124540500Y-96372287D01*
X124540500Y-96159713D01*
X124507246Y-95949757D01*
X124441557Y-95747588D01*
X124345051Y-95558184D01*
X124345049Y-95558181D01*
X124345048Y-95558179D01*
X124220109Y-95386213D01*
X124069786Y-95235890D01*
X123897820Y-95110951D01*
X123897115Y-95110591D01*
X123889054Y-95106485D01*
X123838259Y-95058512D01*
X123821463Y-94990692D01*
X123843999Y-94924556D01*
X123889054Y-94885515D01*
X123897816Y-94881051D01*
X124036214Y-94780500D01*
X124069786Y-94756109D01*
X124069788Y-94756106D01*
X124069792Y-94756104D01*
X124220104Y-94605792D01*
X124220106Y-94605788D01*
X124220109Y-94605786D01*
X124345048Y-94433820D01*
X124345047Y-94433820D01*
X124345051Y-94433816D01*
X124441557Y-94244412D01*
X124507246Y-94042243D01*
X124540500Y-93832287D01*
X124540500Y-93619713D01*
X124507246Y-93409757D01*
X124441557Y-93207588D01*
X124345051Y-93018184D01*
X124345049Y-93018181D01*
X124345048Y-93018179D01*
X124220109Y-92846213D01*
X124069786Y-92695890D01*
X123897820Y-92570951D01*
X123897115Y-92570591D01*
X123889054Y-92566485D01*
X123838259Y-92518512D01*
X123821463Y-92450692D01*
X123843999Y-92384556D01*
X123889054Y-92345515D01*
X123897816Y-92341051D01*
X123919789Y-92325086D01*
X124069786Y-92216109D01*
X124069788Y-92216106D01*
X124069792Y-92216104D01*
X124220104Y-92065792D01*
X124220106Y-92065788D01*
X124220109Y-92065786D01*
X124345048Y-91893820D01*
X124345047Y-91893820D01*
X124345051Y-91893816D01*
X124441557Y-91704412D01*
X124507246Y-91502243D01*
X124540500Y-91292287D01*
X124540500Y-91079713D01*
X124507246Y-90869757D01*
X124441557Y-90667588D01*
X124345051Y-90478184D01*
X124345049Y-90478181D01*
X124345048Y-90478179D01*
X124220109Y-90306213D01*
X124069786Y-90155890D01*
X123897817Y-90030949D01*
X123888504Y-90026204D01*
X123837707Y-89978230D01*
X123820912Y-89910409D01*
X123843449Y-89844274D01*
X123888507Y-89805232D01*
X123897555Y-89800622D01*
X123951716Y-89761270D01*
X123951717Y-89761270D01*
X123319408Y-89128962D01*
X123382993Y-89111925D01*
X123497007Y-89046099D01*
X123590099Y-88953007D01*
X123655925Y-88838993D01*
X123672962Y-88775408D01*
X124305270Y-89407717D01*
X124305270Y-89407716D01*
X124344622Y-89353554D01*
X124441095Y-89164217D01*
X124506757Y-88962130D01*
X124506757Y-88962127D01*
X124540000Y-88752246D01*
X124540000Y-88539753D01*
X124506757Y-88329872D01*
X124506757Y-88329869D01*
X124441095Y-88127782D01*
X124344624Y-87938449D01*
X124305270Y-87884282D01*
X124305269Y-87884282D01*
X123672962Y-88516590D01*
X123655925Y-88453007D01*
X123590099Y-88338993D01*
X123497007Y-88245901D01*
X123382993Y-88180075D01*
X123319409Y-88163037D01*
X123951716Y-87530728D01*
X123897550Y-87491375D01*
X123708217Y-87394904D01*
X123506129Y-87329242D01*
X123296246Y-87296000D01*
X123083754Y-87296000D01*
X122873872Y-87329242D01*
X122873869Y-87329242D01*
X122671782Y-87394904D01*
X122482439Y-87491380D01*
X122428282Y-87530727D01*
X122428282Y-87530728D01*
X123060591Y-88163037D01*
X122997007Y-88180075D01*
X122882993Y-88245901D01*
X122789901Y-88338993D01*
X122724075Y-88453007D01*
X122707037Y-88516591D01*
X122037642Y-87847196D01*
X122004319Y-87786609D01*
X121965527Y-87613364D01*
X121943354Y-87553913D01*
X121943350Y-87553906D01*
X121857190Y-87438812D01*
X121857187Y-87438809D01*
X121742093Y-87352649D01*
X121742086Y-87352645D01*
X121607379Y-87302403D01*
X121607372Y-87302401D01*
X121547844Y-87296000D01*
X120900000Y-87296000D01*
X120900000Y-88212988D01*
X120842993Y-88180075D01*
X120715826Y-88146000D01*
X120584174Y-88146000D01*
X120457007Y-88180075D01*
X120400000Y-88212988D01*
X120400000Y-87296000D01*
X119752155Y-87296000D01*
X119692627Y-87302401D01*
X119692620Y-87302403D01*
X119557913Y-87352645D01*
X119557906Y-87352649D01*
X119442812Y-87438809D01*
X119442809Y-87438812D01*
X119356649Y-87553906D01*
X119356645Y-87553913D01*
X119306403Y-87688620D01*
X119306401Y-87688627D01*
X119300000Y-87748155D01*
X119300000Y-88396000D01*
X120216988Y-88396000D01*
X120184075Y-88453007D01*
X120150000Y-88580174D01*
X120150000Y-88711826D01*
X120184075Y-88838993D01*
X120216988Y-88896000D01*
X119300000Y-88896000D01*
X119300000Y-89543844D01*
X119306401Y-89603372D01*
X119306403Y-89603379D01*
X119356645Y-89738086D01*
X119356649Y-89738093D01*
X119442809Y-89853187D01*
X119442812Y-89853190D01*
X119557906Y-89939350D01*
X119557913Y-89939354D01*
X119689470Y-89988422D01*
X119745404Y-90030293D01*
X119769821Y-90095758D01*
X119754969Y-90164031D01*
X119733819Y-90192285D01*
X119619889Y-90306215D01*
X119494951Y-90478179D01*
X119398444Y-90667585D01*
X119332753Y-90869760D01*
X119299500Y-91079713D01*
X117594500Y-91079713D01*
X117594500Y-89448947D01*
X117603939Y-89401494D01*
X117609737Y-89387497D01*
X117640500Y-89232842D01*
X117640500Y-89075158D01*
X117640500Y-89075155D01*
X117640499Y-89075153D01*
X117624279Y-88993611D01*
X117609737Y-88920503D01*
X117579456Y-88847397D01*
X117549397Y-88774827D01*
X117549390Y-88774814D01*
X117461789Y-88643711D01*
X117461786Y-88643707D01*
X117350292Y-88532213D01*
X117350288Y-88532210D01*
X117219185Y-88444609D01*
X117219172Y-88444602D01*
X117073501Y-88384264D01*
X117073489Y-88384261D01*
X116918845Y-88353500D01*
X116918842Y-88353500D01*
X116761158Y-88353500D01*
X116761155Y-88353500D01*
X116606510Y-88384261D01*
X116606498Y-88384264D01*
X116460827Y-88444602D01*
X116460814Y-88444609D01*
X116329711Y-88532210D01*
X116329707Y-88532213D01*
X116218213Y-88643707D01*
X116218210Y-88643711D01*
X116130609Y-88774814D01*
X116130602Y-88774827D01*
X116070264Y-88920498D01*
X116070261Y-88920510D01*
X116039500Y-89075153D01*
X114800500Y-89075153D01*
X114800500Y-83491687D01*
X114800499Y-83491683D01*
X114795071Y-83464393D01*
X114771505Y-83345920D01*
X114714629Y-83208610D01*
X114700074Y-83186827D01*
X114632060Y-83085035D01*
X114632054Y-83085028D01*
X114526971Y-82979945D01*
X114526964Y-82979939D01*
X114403391Y-82897371D01*
X114266078Y-82840494D01*
X114263865Y-82839823D01*
X114262540Y-82839029D01*
X114260452Y-82838164D01*
X114260580Y-82837854D01*
X114212185Y-82808845D01*
X112430205Y-81026863D01*
X112430204Y-81026862D01*
X112332673Y-80961695D01*
X112323264Y-80955408D01*
X112241859Y-80921689D01*
X112204444Y-80906191D01*
X112204438Y-80906189D01*
X112078307Y-80881100D01*
X112078305Y-80881100D01*
X106419343Y-80881100D01*
X106352304Y-80861415D01*
X106350501Y-80860235D01*
X106297179Y-80824606D01*
X106297172Y-80824602D01*
X106151501Y-80764264D01*
X106151489Y-80764261D01*
X105996845Y-80733500D01*
X105996842Y-80733500D01*
X105839158Y-80733500D01*
X105839153Y-80733500D01*
X105804691Y-80740355D01*
X105735099Y-80734128D01*
X105679922Y-80691264D01*
X105656678Y-80625374D01*
X105656500Y-80618738D01*
X105656500Y-79909261D01*
X105676185Y-79842222D01*
X105728989Y-79796467D01*
X105798147Y-79786523D01*
X105804677Y-79787641D01*
X105828409Y-79792361D01*
X105839157Y-79794500D01*
X105839158Y-79794500D01*
X105996844Y-79794500D01*
X105996845Y-79794499D01*
X106151497Y-79763737D01*
X106297179Y-79703394D01*
X106428289Y-79615789D01*
X106539789Y-79504289D01*
X106627394Y-79373179D01*
X106687737Y-79227497D01*
X106718500Y-79072842D01*
X106718500Y-78915158D01*
X106718500Y-78915155D01*
X106718499Y-78915153D01*
X106687738Y-78760510D01*
X106687737Y-78760503D01*
X106656899Y-78686052D01*
X106627397Y-78614827D01*
X106627390Y-78614814D01*
X106539789Y-78483711D01*
X106539786Y-78483707D01*
X106492260Y-78436181D01*
X106458775Y-78374858D01*
X106463759Y-78305166D01*
X106505631Y-78249233D01*
X106571095Y-78224816D01*
X106579941Y-78224500D01*
X110634113Y-78224500D01*
X110701152Y-78244185D01*
X110721794Y-78260819D01*
X114827926Y-82366950D01*
X114854805Y-82407176D01*
X114860604Y-82421175D01*
X114860607Y-82421181D01*
X114948207Y-82552284D01*
X114948213Y-82552292D01*
X115059707Y-82663786D01*
X115059711Y-82663789D01*
X115190814Y-82751390D01*
X115190827Y-82751397D01*
X115329521Y-82808845D01*
X115336503Y-82811737D01*
X115467801Y-82837854D01*
X115491153Y-82842499D01*
X115491156Y-82842500D01*
X115491158Y-82842500D01*
X115648844Y-82842500D01*
X115648845Y-82842499D01*
X115803497Y-82811737D01*
X115949179Y-82751394D01*
X116080289Y-82663789D01*
X116191789Y-82552289D01*
X116279394Y-82421179D01*
X116339737Y-82275497D01*
X116370500Y-82120842D01*
X116370500Y-81963158D01*
X116370500Y-81963155D01*
X116370499Y-81963153D01*
X116361283Y-81916821D01*
X116339737Y-81808503D01*
X116284112Y-81674211D01*
X116279397Y-81662827D01*
X116279390Y-81662814D01*
X116191789Y-81531711D01*
X116191786Y-81531707D01*
X116080292Y-81420213D01*
X116080284Y-81420207D01*
X115949181Y-81332607D01*
X115949175Y-81332604D01*
X115935176Y-81326805D01*
X115894950Y-81299926D01*
X111478969Y-76883943D01*
X111478968Y-76883942D01*
X111355392Y-76801372D01*
X111355391Y-76801371D01*
X111355389Y-76801370D01*
X111355386Y-76801368D01*
X111355381Y-76801366D01*
X111261519Y-76762488D01*
X111261517Y-76762487D01*
X111256975Y-76760606D01*
X111218080Y-76744495D01*
X111193894Y-76739684D01*
X111186776Y-76738268D01*
X111186773Y-76738267D01*
X111072314Y-76715499D01*
X111072312Y-76715499D01*
X110923688Y-76715499D01*
X110917574Y-76715499D01*
X110917554Y-76715500D01*
X106212947Y-76715500D01*
X106165498Y-76706062D01*
X106151497Y-76700263D01*
X106151493Y-76700262D01*
X106151488Y-76700260D01*
X105996845Y-76669500D01*
X105996842Y-76669500D01*
X105839158Y-76669500D01*
X105839153Y-76669500D01*
X105804691Y-76676355D01*
X105735099Y-76670128D01*
X105679922Y-76627264D01*
X105656678Y-76561374D01*
X105656500Y-76554738D01*
X105656500Y-70791687D01*
X105656499Y-70791683D01*
X105628624Y-70651547D01*
X105627505Y-70645920D01*
X105570629Y-70508610D01*
X105488059Y-70385034D01*
X105488054Y-70385028D01*
X105378647Y-70275621D01*
X105378624Y-70275600D01*
X104112969Y-69009943D01*
X104112968Y-69009942D01*
X103989392Y-68927372D01*
X103989391Y-68927371D01*
X103989389Y-68927370D01*
X103989386Y-68927368D01*
X103989381Y-68927366D01*
X103901615Y-68891013D01*
X103901612Y-68891012D01*
X103897392Y-68889264D01*
X103852080Y-68870495D01*
X103827894Y-68865684D01*
X103820432Y-68864199D01*
X103820427Y-68864198D01*
X103706314Y-68841499D01*
X103706312Y-68841499D01*
X103557688Y-68841499D01*
X103551574Y-68841499D01*
X103551554Y-68841500D01*
X96342507Y-68841500D01*
X96275468Y-68821815D01*
X96229713Y-68769011D01*
X96219769Y-68699853D01*
X96227946Y-68670048D01*
X96273735Y-68559501D01*
X96273737Y-68559497D01*
X96304500Y-68404842D01*
X96304500Y-68247158D01*
X96304500Y-68247155D01*
X96304499Y-68247153D01*
X96273738Y-68092510D01*
X96273737Y-68092503D01*
X96273735Y-68092498D01*
X96213397Y-67946827D01*
X96213390Y-67946814D01*
X96125789Y-67815711D01*
X96125786Y-67815707D01*
X96014292Y-67704213D01*
X96014288Y-67704210D01*
X95883185Y-67616609D01*
X95883172Y-67616602D01*
X95737501Y-67556264D01*
X95737489Y-67556261D01*
X95582845Y-67525500D01*
X95582842Y-67525500D01*
X95425158Y-67525500D01*
X95425155Y-67525500D01*
X95270511Y-67556260D01*
X95270506Y-67556262D01*
X95270504Y-67556262D01*
X95270503Y-67556263D01*
X95256501Y-67562062D01*
X95209053Y-67571500D01*
X88247887Y-67571500D01*
X88180848Y-67551815D01*
X88160206Y-67535181D01*
X85316969Y-64691943D01*
X85316968Y-64691942D01*
X85275773Y-64664417D01*
X85193389Y-64609370D01*
X85193386Y-64609368D01*
X85193385Y-64609368D01*
X85112955Y-64576053D01*
X85056080Y-64552495D01*
X85056070Y-64552493D01*
X85031894Y-64547684D01*
X84910314Y-64523499D01*
X84910312Y-64523499D01*
X84761688Y-64523499D01*
X84755574Y-64523499D01*
X84755554Y-64523500D01*
X67743683Y-64523500D01*
X67597927Y-64552493D01*
X67597919Y-64552495D01*
X67460608Y-64609371D01*
X67337035Y-64691939D01*
X67337028Y-64691945D01*
X67231945Y-64797028D01*
X67231939Y-64797035D01*
X67149371Y-64920608D01*
X67092494Y-65057920D01*
X67091822Y-65060137D01*
X67091027Y-65061462D01*
X67090164Y-65063547D01*
X67089854Y-65063418D01*
X67060845Y-65111813D01*
X64212181Y-67960477D01*
X64150858Y-67993962D01*
X64081166Y-67988978D01*
X64025233Y-67947106D01*
X64000816Y-67881642D01*
X64000500Y-67872796D01*
X64000500Y-60881153D01*
X114769500Y-60881153D01*
X114769500Y-61038846D01*
X114800261Y-61193489D01*
X114800264Y-61193501D01*
X114860602Y-61339172D01*
X114860609Y-61339185D01*
X114948210Y-61470288D01*
X114948213Y-61470292D01*
X115059707Y-61581786D01*
X115059711Y-61581789D01*
X115190814Y-61669390D01*
X115190827Y-61669397D01*
X115299717Y-61714500D01*
X115336503Y-61729737D01*
X115491153Y-61760499D01*
X115491156Y-61760500D01*
X115491158Y-61760500D01*
X115648844Y-61760500D01*
X115648845Y-61760499D01*
X115781136Y-61734185D01*
X115803488Y-61729739D01*
X115803489Y-61729738D01*
X115803497Y-61729737D01*
X115817498Y-61723937D01*
X115864947Y-61714500D01*
X121972954Y-61714500D01*
X122039993Y-61734185D01*
X122085748Y-61786989D01*
X122095692Y-61856147D01*
X122072220Y-61912811D01*
X122004206Y-62003664D01*
X122004202Y-62003671D01*
X121953908Y-62138517D01*
X121947501Y-62198116D01*
X121947501Y-62198123D01*
X121947500Y-62198135D01*
X121947500Y-63793870D01*
X121947501Y-63793876D01*
X121954669Y-63860555D01*
X121942262Y-63929314D01*
X121919061Y-63961488D01*
X121827205Y-64053345D01*
X121827201Y-64053350D01*
X121679132Y-64257151D01*
X121564760Y-64481616D01*
X121486910Y-64721214D01*
X121447500Y-64970038D01*
X121447500Y-65221961D01*
X121486910Y-65470785D01*
X121564760Y-65710383D01*
X121679132Y-65934848D01*
X121827201Y-66138649D01*
X121827205Y-66138654D01*
X122005345Y-66316794D01*
X122005350Y-66316798D01*
X122183117Y-66445952D01*
X122209155Y-66464870D01*
X122352184Y-66537747D01*
X122433616Y-66579239D01*
X122433618Y-66579239D01*
X122433621Y-66579241D01*
X122673215Y-66657090D01*
X122922038Y-66696500D01*
X122922039Y-66696500D01*
X124473961Y-66696500D01*
X124473962Y-66696500D01*
X124722785Y-66657090D01*
X124962379Y-66579241D01*
X125186845Y-66464870D01*
X125390656Y-66316793D01*
X125568793Y-66138656D01*
X125716870Y-65934845D01*
X125831241Y-65710379D01*
X125909090Y-65470785D01*
X125948500Y-65221962D01*
X125948500Y-64970038D01*
X125909090Y-64721215D01*
X125831241Y-64481621D01*
X125831239Y-64481618D01*
X125831239Y-64481616D01*
X125789747Y-64400184D01*
X125716870Y-64257155D01*
X125697952Y-64231117D01*
X125568798Y-64053350D01*
X125568794Y-64053345D01*
X125476939Y-63961490D01*
X125443454Y-63900167D01*
X125441331Y-63860554D01*
X125442818Y-63846716D01*
X125448500Y-63793873D01*
X125448499Y-62198128D01*
X125442091Y-62138517D01*
X125391796Y-62003669D01*
X125391795Y-62003668D01*
X125391793Y-62003664D01*
X125305548Y-61888456D01*
X125305546Y-61888455D01*
X125305546Y-61888454D01*
X125267220Y-61859763D01*
X125225351Y-61803829D01*
X125220368Y-61734137D01*
X125241214Y-61687616D01*
X125267524Y-61651405D01*
X125356884Y-61476025D01*
X125417709Y-61288826D01*
X125432807Y-61193501D01*
X125448500Y-61094422D01*
X125448500Y-60897577D01*
X125417709Y-60703173D01*
X125377954Y-60580821D01*
X125356884Y-60515975D01*
X125356882Y-60515972D01*
X125356882Y-60515970D01*
X125267523Y-60340594D01*
X125265791Y-60338210D01*
X125151828Y-60181354D01*
X125054155Y-60083681D01*
X125020670Y-60022358D01*
X125025654Y-59952666D01*
X125054155Y-59908319D01*
X125151828Y-59810646D01*
X125267524Y-59651405D01*
X125356884Y-59476025D01*
X125417709Y-59288826D01*
X125448500Y-59094422D01*
X125448500Y-58897577D01*
X125417709Y-58703173D01*
X125356882Y-58515970D01*
X125265647Y-58336912D01*
X125252751Y-58268243D01*
X125279027Y-58203502D01*
X125303248Y-58180298D01*
X125390652Y-58116796D01*
X125390652Y-58116795D01*
X125390656Y-58116793D01*
X125568793Y-57938656D01*
X125716870Y-57734845D01*
X125831241Y-57510379D01*
X125909090Y-57270785D01*
X125948500Y-57021962D01*
X125948500Y-56770038D01*
X125909090Y-56521215D01*
X125831241Y-56281621D01*
X125831239Y-56281618D01*
X125831239Y-56281616D01*
X125763213Y-56148109D01*
X125716870Y-56057155D01*
X125617344Y-55920169D01*
X125568798Y-55853350D01*
X125568794Y-55853345D01*
X125390654Y-55675205D01*
X125390649Y-55675201D01*
X125186848Y-55527132D01*
X125186847Y-55527131D01*
X125186845Y-55527130D01*
X125116747Y-55491413D01*
X124962383Y-55412760D01*
X124722785Y-55334910D01*
X124473962Y-55295500D01*
X122922038Y-55295500D01*
X122797626Y-55315205D01*
X122673214Y-55334910D01*
X122433616Y-55412760D01*
X122209151Y-55527132D01*
X122005350Y-55675201D01*
X122005345Y-55675205D01*
X121827205Y-55853345D01*
X121827201Y-55853350D01*
X121679132Y-56057151D01*
X121564760Y-56281616D01*
X121486910Y-56521214D01*
X121447500Y-56770038D01*
X121447500Y-57021961D01*
X121486910Y-57270785D01*
X121564760Y-57510383D01*
X121679132Y-57734848D01*
X121827201Y-57938649D01*
X121827205Y-57938654D01*
X122005349Y-58116798D01*
X122092752Y-58180299D01*
X122135418Y-58235628D01*
X122141397Y-58305242D01*
X122130352Y-58336911D01*
X122039118Y-58515967D01*
X121978290Y-58703173D01*
X121947500Y-58897577D01*
X121947500Y-59094422D01*
X121978290Y-59288826D01*
X122039117Y-59476029D01*
X122128476Y-59651405D01*
X122244172Y-59810646D01*
X122244174Y-59810648D01*
X122341845Y-59908319D01*
X122346183Y-59916264D01*
X122353431Y-59921690D01*
X122362665Y-59946449D01*
X122375330Y-59969642D01*
X122374684Y-59978671D01*
X122377848Y-59987154D01*
X122372231Y-60012974D01*
X122370346Y-60039334D01*
X122364527Y-60048387D01*
X122362996Y-60055427D01*
X122341845Y-60083681D01*
X122256345Y-60169181D01*
X122195022Y-60202666D01*
X122168664Y-60205500D01*
X115864947Y-60205500D01*
X115817498Y-60196062D01*
X115803497Y-60190263D01*
X115803493Y-60190262D01*
X115803488Y-60190260D01*
X115648845Y-60159500D01*
X115648842Y-60159500D01*
X115491158Y-60159500D01*
X115491155Y-60159500D01*
X115336510Y-60190261D01*
X115336498Y-60190264D01*
X115190827Y-60250602D01*
X115190814Y-60250609D01*
X115059711Y-60338210D01*
X115059707Y-60338213D01*
X114948213Y-60449707D01*
X114948210Y-60449711D01*
X114860609Y-60580814D01*
X114860602Y-60580827D01*
X114800264Y-60726498D01*
X114800261Y-60726510D01*
X114769500Y-60881153D01*
X64000500Y-60881153D01*
X64000500Y-53494666D01*
X80271500Y-53494666D01*
X80271500Y-53693333D01*
X80310254Y-53888160D01*
X80310256Y-53888168D01*
X80386277Y-54071701D01*
X80386282Y-54071710D01*
X80496646Y-54236880D01*
X80496649Y-54236884D01*
X81512647Y-55252881D01*
X81594676Y-55334910D01*
X81653120Y-55393354D01*
X81818289Y-55503717D01*
X81818295Y-55503720D01*
X81818296Y-55503721D01*
X82001831Y-55579744D01*
X82196666Y-55618499D01*
X82196670Y-55618500D01*
X82196671Y-55618500D01*
X84681330Y-55618500D01*
X84681331Y-55618499D01*
X84876169Y-55579744D01*
X85059704Y-55503721D01*
X85224881Y-55393353D01*
X85365353Y-55252881D01*
X86381353Y-54236881D01*
X86491721Y-54071704D01*
X86567744Y-53888168D01*
X86606500Y-53693329D01*
X86606500Y-53494671D01*
X86606500Y-53494668D01*
X86606499Y-53494666D01*
X86599428Y-53459119D01*
X86567744Y-53299832D01*
X86491721Y-53116296D01*
X86491720Y-53116295D01*
X86491717Y-53116289D01*
X86381353Y-52951119D01*
X86381350Y-52951115D01*
X86240884Y-52810649D01*
X86240880Y-52810646D01*
X86075710Y-52700282D01*
X86075701Y-52700277D01*
X85892168Y-52624256D01*
X85892160Y-52624254D01*
X85697332Y-52585500D01*
X85697329Y-52585500D01*
X85498671Y-52585500D01*
X85498668Y-52585500D01*
X85303839Y-52624254D01*
X85303831Y-52624256D01*
X85120298Y-52700277D01*
X85120289Y-52700282D01*
X84955119Y-52810646D01*
X84955115Y-52810649D01*
X84200585Y-53565181D01*
X84139262Y-53598666D01*
X84112904Y-53601500D01*
X82765096Y-53601500D01*
X82698057Y-53581815D01*
X82677415Y-53565181D01*
X81922884Y-52810649D01*
X81922880Y-52810646D01*
X81757710Y-52700282D01*
X81757701Y-52700277D01*
X81574168Y-52624256D01*
X81574160Y-52624254D01*
X81379332Y-52585500D01*
X81379329Y-52585500D01*
X81180671Y-52585500D01*
X81180668Y-52585500D01*
X80985839Y-52624254D01*
X80985831Y-52624256D01*
X80802298Y-52700277D01*
X80802289Y-52700282D01*
X80637119Y-52810646D01*
X80637115Y-52810649D01*
X80496649Y-52951115D01*
X80496646Y-52951119D01*
X80386282Y-53116289D01*
X80386277Y-53116298D01*
X80310256Y-53299831D01*
X80310254Y-53299839D01*
X80271500Y-53494666D01*
X64000500Y-53494666D01*
X64000500Y-50700666D01*
X99575500Y-50700666D01*
X99575500Y-50899333D01*
X99614254Y-51094160D01*
X99614256Y-51094168D01*
X99690277Y-51277701D01*
X99690282Y-51277710D01*
X99800646Y-51442880D01*
X99800649Y-51442884D01*
X99941115Y-51583350D01*
X99941119Y-51583353D01*
X100106289Y-51693717D01*
X100106295Y-51693720D01*
X100106296Y-51693721D01*
X100289832Y-51769744D01*
X100484666Y-51808499D01*
X100484669Y-51808500D01*
X100484671Y-51808500D01*
X100683331Y-51808500D01*
X100683332Y-51808499D01*
X100878168Y-51769744D01*
X101061704Y-51693721D01*
X101226881Y-51583353D01*
X101226885Y-51583348D01*
X101227744Y-51582645D01*
X101228284Y-51582415D01*
X101231946Y-51579969D01*
X101232409Y-51580663D01*
X101292055Y-51555333D01*
X101306407Y-51554500D01*
X103261500Y-51554500D01*
X103328539Y-51574185D01*
X103374294Y-51626989D01*
X103385500Y-51678500D01*
X103385500Y-52169333D01*
X103424254Y-52364160D01*
X103424256Y-52364168D01*
X103500277Y-52547701D01*
X103500282Y-52547710D01*
X103610646Y-52712880D01*
X103610649Y-52712884D01*
X105529115Y-54631351D01*
X105529123Y-54631357D01*
X105694286Y-54741715D01*
X105694289Y-54741716D01*
X105694297Y-54741722D01*
X105801809Y-54786254D01*
X105877831Y-54817744D01*
X106072666Y-54856499D01*
X106072670Y-54856500D01*
X106072671Y-54856500D01*
X109103500Y-54856500D01*
X109170539Y-54876185D01*
X109216294Y-54928989D01*
X109227500Y-54980500D01*
X109227500Y-55725333D01*
X109266254Y-55920161D01*
X109266256Y-55920169D01*
X109342277Y-56103701D01*
X109342282Y-56103710D01*
X109452646Y-56268880D01*
X109452649Y-56268884D01*
X109593115Y-56409350D01*
X109593119Y-56409353D01*
X109758289Y-56519717D01*
X109758298Y-56519722D01*
X109799874Y-56536943D01*
X109941831Y-56595744D01*
X110136666Y-56634499D01*
X110136670Y-56634500D01*
X110136671Y-56634500D01*
X110335330Y-56634500D01*
X110335331Y-56634499D01*
X110530169Y-56595744D01*
X110713704Y-56519721D01*
X110878881Y-56409353D01*
X111019353Y-56268881D01*
X111129721Y-56103704D01*
X111205744Y-55920169D01*
X111244500Y-55725329D01*
X111244500Y-55011713D01*
X112949500Y-55011713D01*
X112949500Y-55224286D01*
X112976277Y-55393353D01*
X112982754Y-55434243D01*
X113030030Y-55579744D01*
X113048444Y-55636414D01*
X113144951Y-55825820D01*
X113269890Y-55997786D01*
X113420213Y-56148109D01*
X113592179Y-56273048D01*
X113592181Y-56273049D01*
X113592184Y-56273051D01*
X113781588Y-56369557D01*
X113983757Y-56435246D01*
X114193713Y-56468500D01*
X114193714Y-56468500D01*
X114406286Y-56468500D01*
X114406287Y-56468500D01*
X114616243Y-56435246D01*
X114818412Y-56369557D01*
X115007816Y-56273051D01*
X115029789Y-56257086D01*
X115179786Y-56148109D01*
X115179788Y-56148106D01*
X115179792Y-56148104D01*
X115330104Y-55997792D01*
X115330106Y-55997788D01*
X115330109Y-55997786D01*
X115455048Y-55825820D01*
X115455047Y-55825820D01*
X115455051Y-55825816D01*
X115551557Y-55636412D01*
X115617246Y-55434243D01*
X115650500Y-55224287D01*
X115650500Y-55011713D01*
X115617246Y-54801757D01*
X115551557Y-54599588D01*
X115455051Y-54410184D01*
X115455049Y-54410181D01*
X115455048Y-54410179D01*
X115330109Y-54238213D01*
X115216181Y-54124285D01*
X115182696Y-54062962D01*
X115187680Y-53993270D01*
X115229552Y-53937337D01*
X115260529Y-53920422D01*
X115392086Y-53871354D01*
X115392093Y-53871350D01*
X115507187Y-53785190D01*
X115507190Y-53785187D01*
X115593350Y-53670093D01*
X115593354Y-53670086D01*
X115643596Y-53535379D01*
X115643598Y-53535372D01*
X115649999Y-53475844D01*
X115650000Y-53475827D01*
X115650000Y-52828000D01*
X114733012Y-52828000D01*
X114765925Y-52770993D01*
X114800000Y-52643826D01*
X114800000Y-52512174D01*
X114765925Y-52385007D01*
X114733012Y-52328000D01*
X115650000Y-52328000D01*
X115650000Y-51680172D01*
X115649999Y-51680155D01*
X115643598Y-51620627D01*
X115643596Y-51620620D01*
X115593354Y-51485913D01*
X115593350Y-51485906D01*
X115507190Y-51370812D01*
X115507187Y-51370809D01*
X115392093Y-51284649D01*
X115392086Y-51284645D01*
X115257379Y-51234403D01*
X115257372Y-51234401D01*
X115197844Y-51228000D01*
X114550000Y-51228000D01*
X114550000Y-52144988D01*
X114492993Y-52112075D01*
X114365826Y-52078000D01*
X114234174Y-52078000D01*
X114107007Y-52112075D01*
X114050000Y-52144988D01*
X114050000Y-51228000D01*
X113402155Y-51228000D01*
X113342627Y-51234401D01*
X113342620Y-51234403D01*
X113207913Y-51284645D01*
X113207906Y-51284649D01*
X113092812Y-51370809D01*
X113092809Y-51370812D01*
X113006649Y-51485906D01*
X113006645Y-51485913D01*
X112956403Y-51620620D01*
X112956401Y-51620627D01*
X112950000Y-51680155D01*
X112950000Y-52328000D01*
X113866988Y-52328000D01*
X113834075Y-52385007D01*
X113800000Y-52512174D01*
X113800000Y-52643826D01*
X113834075Y-52770993D01*
X113866988Y-52828000D01*
X112950000Y-52828000D01*
X112950000Y-53475844D01*
X112956401Y-53535372D01*
X112956403Y-53535379D01*
X113006645Y-53670086D01*
X113006649Y-53670093D01*
X113092809Y-53785187D01*
X113092812Y-53785190D01*
X113207906Y-53871350D01*
X113207913Y-53871354D01*
X113339470Y-53920422D01*
X113395404Y-53962293D01*
X113419821Y-54027758D01*
X113404969Y-54096031D01*
X113383819Y-54124285D01*
X113269889Y-54238215D01*
X113144951Y-54410179D01*
X113048444Y-54599585D01*
X112982753Y-54801760D01*
X112949500Y-55011713D01*
X111244500Y-55011713D01*
X111244500Y-54002671D01*
X111205744Y-53807831D01*
X111129721Y-53624296D01*
X111129720Y-53624295D01*
X111129717Y-53624289D01*
X111019354Y-53459120D01*
X111019353Y-53459119D01*
X110878881Y-53318647D01*
X110860065Y-53299831D01*
X110624884Y-53064649D01*
X110624880Y-53064646D01*
X110459710Y-52954282D01*
X110459703Y-52954278D01*
X110446692Y-52948889D01*
X110433681Y-52943500D01*
X110276169Y-52878256D01*
X110276161Y-52878254D01*
X110081333Y-52839500D01*
X110081329Y-52839500D01*
X106641097Y-52839500D01*
X106574058Y-52819815D01*
X106553416Y-52803181D01*
X105438819Y-51688584D01*
X105405334Y-51627261D01*
X105402500Y-51600903D01*
X105402500Y-50446670D01*
X105402499Y-50446666D01*
X105398869Y-50428418D01*
X105363744Y-50251831D01*
X105287721Y-50068296D01*
X105287720Y-50068295D01*
X105287717Y-50068289D01*
X105177353Y-49903119D01*
X105177350Y-49903115D01*
X105036884Y-49762649D01*
X105036880Y-49762646D01*
X104871710Y-49652282D01*
X104871701Y-49652277D01*
X104688169Y-49576256D01*
X104688161Y-49576254D01*
X104493333Y-49537500D01*
X104493329Y-49537500D01*
X100937329Y-49537500D01*
X100738671Y-49537500D01*
X100738666Y-49537500D01*
X100543838Y-49576254D01*
X100543830Y-49576256D01*
X100360298Y-49652277D01*
X100360289Y-49652282D01*
X100195119Y-49762646D01*
X100195115Y-49762649D01*
X99800649Y-50157115D01*
X99800646Y-50157119D01*
X99690282Y-50322289D01*
X99690277Y-50322298D01*
X99614256Y-50505831D01*
X99614254Y-50505839D01*
X99575500Y-50700666D01*
X64000500Y-50700666D01*
X64000500Y-47673153D01*
X104609500Y-47673153D01*
X104609500Y-47830846D01*
X104640261Y-47985489D01*
X104640264Y-47985501D01*
X104700602Y-48131172D01*
X104700609Y-48131185D01*
X104788210Y-48262288D01*
X104788213Y-48262292D01*
X104899707Y-48373786D01*
X104899711Y-48373789D01*
X105030814Y-48461390D01*
X105030827Y-48461397D01*
X105176498Y-48521735D01*
X105176503Y-48521737D01*
X105331153Y-48552499D01*
X105331156Y-48552500D01*
X105331158Y-48552500D01*
X105488844Y-48552500D01*
X105488845Y-48552499D01*
X105643497Y-48521737D01*
X105789179Y-48461394D01*
X105789188Y-48461387D01*
X105794553Y-48458521D01*
X105795705Y-48460676D01*
X105852131Y-48443019D01*
X105854323Y-48443000D01*
X108374416Y-48443000D01*
X108441455Y-48462685D01*
X108462097Y-48479319D01*
X108746681Y-48763902D01*
X108780166Y-48825225D01*
X108783000Y-48851583D01*
X108783000Y-50863677D01*
X108765724Y-50922509D01*
X108767479Y-50923447D01*
X108764602Y-50928828D01*
X108704264Y-51074498D01*
X108704261Y-51074510D01*
X108673500Y-51229153D01*
X108673500Y-51386846D01*
X108704261Y-51541489D01*
X108704264Y-51541501D01*
X108764602Y-51687172D01*
X108764609Y-51687185D01*
X108852210Y-51818288D01*
X108852213Y-51818292D01*
X108963707Y-51929786D01*
X108963711Y-51929789D01*
X109094814Y-52017390D01*
X109094827Y-52017397D01*
X109240498Y-52077735D01*
X109240503Y-52077737D01*
X109395153Y-52108499D01*
X109395156Y-52108500D01*
X109395158Y-52108500D01*
X109552844Y-52108500D01*
X109552845Y-52108499D01*
X109707497Y-52077737D01*
X109853179Y-52017394D01*
X109984289Y-51929789D01*
X110095789Y-51818289D01*
X110183394Y-51687179D01*
X110197856Y-51652265D01*
X110207328Y-51629398D01*
X110207328Y-51629396D01*
X110243737Y-51541497D01*
X110274500Y-51386842D01*
X110274500Y-51229158D01*
X110274500Y-51229155D01*
X110274499Y-51229153D01*
X110249974Y-51105860D01*
X110243737Y-51074503D01*
X110183394Y-50928821D01*
X110183390Y-50928815D01*
X110180521Y-50923447D01*
X110182676Y-50922294D01*
X110165019Y-50865869D01*
X110165000Y-50863677D01*
X110165000Y-49652872D01*
X117125500Y-49652872D01*
X117125500Y-49915127D01*
X117145667Y-50068298D01*
X117159730Y-50175116D01*
X117199165Y-50322289D01*
X117227602Y-50428418D01*
X117227605Y-50428428D01*
X117327953Y-50670690D01*
X117327958Y-50670700D01*
X117459075Y-50897803D01*
X117618718Y-51105851D01*
X117618726Y-51105860D01*
X117804140Y-51291274D01*
X117804148Y-51291281D01*
X118012196Y-51450924D01*
X118239299Y-51582041D01*
X118239309Y-51582046D01*
X118472170Y-51678500D01*
X118481581Y-51682398D01*
X118734884Y-51750270D01*
X118994880Y-51784500D01*
X118994887Y-51784500D01*
X119257113Y-51784500D01*
X119257120Y-51784500D01*
X119517116Y-51750270D01*
X119770419Y-51682398D01*
X119967165Y-51600903D01*
X120012690Y-51582046D01*
X120012691Y-51582045D01*
X120012697Y-51582043D01*
X120239803Y-51450924D01*
X120447851Y-51291282D01*
X120447855Y-51291277D01*
X120447860Y-51291274D01*
X120633274Y-51105860D01*
X120633277Y-51105855D01*
X120633282Y-51105851D01*
X120792924Y-50897803D01*
X120924043Y-50670697D01*
X121024398Y-50428419D01*
X121092270Y-50175116D01*
X121126500Y-49915120D01*
X121126500Y-49652880D01*
X121092270Y-49392884D01*
X121024398Y-49139581D01*
X121024394Y-49139571D01*
X120924046Y-48897309D01*
X120924041Y-48897299D01*
X120792924Y-48670196D01*
X120633281Y-48462148D01*
X120633274Y-48462140D01*
X120447860Y-48276726D01*
X120447851Y-48276718D01*
X120239803Y-48117075D01*
X120012700Y-47985958D01*
X120012690Y-47985953D01*
X119770428Y-47885605D01*
X119770421Y-47885603D01*
X119770419Y-47885602D01*
X119517116Y-47817730D01*
X119459339Y-47810123D01*
X119257127Y-47783500D01*
X119257120Y-47783500D01*
X118994880Y-47783500D01*
X118994872Y-47783500D01*
X118763772Y-47813926D01*
X118734884Y-47817730D01*
X118481581Y-47885602D01*
X118481571Y-47885605D01*
X118239309Y-47985953D01*
X118239299Y-47985958D01*
X118012196Y-48117075D01*
X117804148Y-48276718D01*
X117618718Y-48462148D01*
X117459075Y-48670196D01*
X117327958Y-48897299D01*
X117327953Y-48897309D01*
X117227605Y-49139571D01*
X117227602Y-49139581D01*
X117159730Y-49392885D01*
X117125500Y-49652872D01*
X110165000Y-49652872D01*
X110165000Y-48445939D01*
X110138446Y-48312448D01*
X110138445Y-48312447D01*
X110138445Y-48312443D01*
X110117670Y-48262288D01*
X110086359Y-48186695D01*
X110086352Y-48186682D01*
X110010735Y-48073514D01*
X110010734Y-48073513D01*
X109914487Y-47977266D01*
X109754951Y-47817730D01*
X109152492Y-47215269D01*
X109152485Y-47215263D01*
X109039312Y-47139644D01*
X109039309Y-47139642D01*
X108913561Y-47087556D01*
X108913551Y-47087553D01*
X108780060Y-47061000D01*
X108780058Y-47061000D01*
X105854323Y-47061000D01*
X105795490Y-47043724D01*
X105794553Y-47045479D01*
X105789181Y-47042607D01*
X105789179Y-47042606D01*
X105789176Y-47042605D01*
X105789171Y-47042602D01*
X105643501Y-46982264D01*
X105643489Y-46982261D01*
X105488845Y-46951500D01*
X105488842Y-46951500D01*
X105331158Y-46951500D01*
X105331155Y-46951500D01*
X105176510Y-46982261D01*
X105176498Y-46982264D01*
X105030827Y-47042602D01*
X105030814Y-47042609D01*
X104899711Y-47130210D01*
X104899707Y-47130213D01*
X104788213Y-47241707D01*
X104788210Y-47241711D01*
X104700609Y-47372814D01*
X104700602Y-47372827D01*
X104640264Y-47518498D01*
X104640261Y-47518510D01*
X104609500Y-47673153D01*
X64000500Y-47673153D01*
X64000500Y-42996318D01*
X64838200Y-42996318D01*
X64838200Y-43363681D01*
X64874207Y-43729276D01*
X64874210Y-43729293D01*
X64945873Y-44089577D01*
X64945876Y-44089588D01*
X65052522Y-44441155D01*
X65193109Y-44780558D01*
X65193111Y-44780563D01*
X65366278Y-45104536D01*
X65366289Y-45104554D01*
X65570379Y-45409997D01*
X65570389Y-45410011D01*
X65803447Y-45693992D01*
X66063207Y-45953752D01*
X66063212Y-45953756D01*
X66063213Y-45953757D01*
X66347194Y-46186815D01*
X66652652Y-46390915D01*
X66652661Y-46390920D01*
X66652663Y-46390921D01*
X66976636Y-46564088D01*
X66976638Y-46564088D01*
X66976644Y-46564092D01*
X67183497Y-46649773D01*
X67316044Y-46704677D01*
X67316048Y-46704678D01*
X67316050Y-46704679D01*
X67667602Y-46811321D01*
X67667608Y-46811322D01*
X67667611Y-46811323D01*
X67667622Y-46811326D01*
X67893551Y-46856264D01*
X68027913Y-46882991D01*
X68393515Y-46919000D01*
X68393518Y-46919000D01*
X68760882Y-46919000D01*
X68760885Y-46919000D01*
X69126487Y-46882991D01*
X69304829Y-46847516D01*
X69486777Y-46811326D01*
X69486788Y-46811323D01*
X69486788Y-46811322D01*
X69486798Y-46811321D01*
X69838350Y-46704679D01*
X70177756Y-46564092D01*
X70501748Y-46390915D01*
X70807206Y-46186815D01*
X71091187Y-45953757D01*
X71350957Y-45693987D01*
X71584015Y-45410006D01*
X71788115Y-45104548D01*
X71961292Y-44780556D01*
X72101879Y-44441150D01*
X72208521Y-44089598D01*
X72208523Y-44089588D01*
X72208526Y-44089577D01*
X72250954Y-43876270D01*
X72280191Y-43729287D01*
X72316200Y-43363685D01*
X72316200Y-42996315D01*
X72280191Y-42630713D01*
X72248400Y-42470889D01*
X72208526Y-42270422D01*
X72208523Y-42270411D01*
X72208522Y-42270408D01*
X72208521Y-42270402D01*
X72101879Y-41918850D01*
X72043898Y-41778872D01*
X80803500Y-41778872D01*
X80803500Y-42041127D01*
X80825366Y-42207202D01*
X80837730Y-42301116D01*
X80902681Y-42543517D01*
X80905602Y-42554418D01*
X80905605Y-42554428D01*
X81005953Y-42796690D01*
X81005958Y-42796700D01*
X81137075Y-43023803D01*
X81296718Y-43231851D01*
X81296726Y-43231860D01*
X81482140Y-43417274D01*
X81482148Y-43417281D01*
X81690196Y-43576924D01*
X81917299Y-43708041D01*
X81917309Y-43708046D01*
X82159571Y-43808394D01*
X82159581Y-43808398D01*
X82412884Y-43876270D01*
X82672880Y-43910500D01*
X82672887Y-43910500D01*
X82935113Y-43910500D01*
X82935120Y-43910500D01*
X83195116Y-43876270D01*
X83448419Y-43808398D01*
X83605671Y-43743261D01*
X83675136Y-43735793D01*
X83737615Y-43767067D01*
X83740801Y-43770142D01*
X85181798Y-45211139D01*
X85285554Y-45280466D01*
X85285552Y-45280468D01*
X85285565Y-45280473D01*
X85288736Y-45282592D01*
X85407556Y-45331809D01*
X85407560Y-45331809D01*
X85407561Y-45331810D01*
X85533692Y-45356900D01*
X85533695Y-45356900D01*
X100590657Y-45356900D01*
X100657696Y-45376585D01*
X100659498Y-45377764D01*
X100712821Y-45413394D01*
X100712823Y-45413395D01*
X100712827Y-45413397D01*
X100858498Y-45473735D01*
X100858503Y-45473737D01*
X101013153Y-45504499D01*
X101013156Y-45504500D01*
X101013158Y-45504500D01*
X101170844Y-45504500D01*
X101170845Y-45504499D01*
X101325497Y-45473737D01*
X101471179Y-45413394D01*
X101602289Y-45325789D01*
X101713789Y-45214289D01*
X101801394Y-45083179D01*
X101861737Y-44937497D01*
X101892500Y-44782842D01*
X101892500Y-44625158D01*
X101892500Y-44625155D01*
X101892499Y-44625153D01*
X101886169Y-44593331D01*
X101861737Y-44470503D01*
X101835013Y-44405984D01*
X101801397Y-44324827D01*
X101801390Y-44324814D01*
X101713789Y-44193711D01*
X101713786Y-44193707D01*
X101602292Y-44082213D01*
X101602288Y-44082210D01*
X101471185Y-43994609D01*
X101471172Y-43994602D01*
X101325501Y-43934264D01*
X101325489Y-43934261D01*
X101170845Y-43903500D01*
X101170842Y-43903500D01*
X101013158Y-43903500D01*
X101013155Y-43903500D01*
X100858510Y-43934261D01*
X100858498Y-43934264D01*
X100712827Y-43994602D01*
X100712820Y-43994606D01*
X100686497Y-44012195D01*
X100659547Y-44030202D01*
X100592871Y-44051080D01*
X100590657Y-44051100D01*
X99740498Y-44051100D01*
X99673459Y-44031415D01*
X99627704Y-43978611D01*
X99617760Y-43909453D01*
X99646785Y-43845897D01*
X99700649Y-43809678D01*
X99704409Y-43808400D01*
X99704419Y-43808398D01*
X99946697Y-43708043D01*
X100173803Y-43576924D01*
X100381851Y-43417282D01*
X100381855Y-43417277D01*
X100381860Y-43417274D01*
X100567274Y-43231860D01*
X100567277Y-43231855D01*
X100567282Y-43231851D01*
X100726924Y-43023803D01*
X100858043Y-42796697D01*
X100938219Y-42603135D01*
X111420500Y-42603135D01*
X111420500Y-44398870D01*
X111420501Y-44398876D01*
X111426908Y-44458483D01*
X111477202Y-44593328D01*
X111477206Y-44593335D01*
X111563452Y-44708544D01*
X111563455Y-44708547D01*
X111678664Y-44794793D01*
X111678671Y-44794797D01*
X111813517Y-44845091D01*
X111813516Y-44845091D01*
X111820444Y-44845835D01*
X111873127Y-44851500D01*
X113668872Y-44851499D01*
X113728483Y-44845091D01*
X113863331Y-44794796D01*
X113978546Y-44708546D01*
X114064796Y-44593331D01*
X114113810Y-44461916D01*
X114155681Y-44405984D01*
X114221145Y-44381566D01*
X114289418Y-44396417D01*
X114317673Y-44417569D01*
X114431213Y-44531109D01*
X114603179Y-44656048D01*
X114603181Y-44656049D01*
X114603184Y-44656051D01*
X114792588Y-44752557D01*
X114994757Y-44818246D01*
X115204713Y-44851500D01*
X115204714Y-44851500D01*
X115417286Y-44851500D01*
X115417287Y-44851500D01*
X115627243Y-44818246D01*
X115829412Y-44752557D01*
X116018816Y-44656051D01*
X116105138Y-44593335D01*
X116190786Y-44531109D01*
X116190788Y-44531106D01*
X116190792Y-44531104D01*
X116341104Y-44380792D01*
X116341106Y-44380788D01*
X116341109Y-44380786D01*
X116466048Y-44208820D01*
X116466047Y-44208820D01*
X116466051Y-44208816D01*
X116562557Y-44019412D01*
X116628246Y-43817243D01*
X116661500Y-43607287D01*
X116661500Y-43394713D01*
X116628246Y-43184757D01*
X116567018Y-42996318D01*
X118181000Y-42996318D01*
X118181000Y-43363681D01*
X118217007Y-43729276D01*
X118217010Y-43729293D01*
X118288673Y-44089577D01*
X118288676Y-44089588D01*
X118395322Y-44441155D01*
X118535909Y-44780558D01*
X118535911Y-44780563D01*
X118709078Y-45104536D01*
X118709089Y-45104554D01*
X118913179Y-45409997D01*
X118913189Y-45410011D01*
X119146247Y-45693992D01*
X119406007Y-45953752D01*
X119406012Y-45953756D01*
X119406013Y-45953757D01*
X119689994Y-46186815D01*
X119995452Y-46390915D01*
X119995461Y-46390920D01*
X119995463Y-46390921D01*
X120319436Y-46564088D01*
X120319438Y-46564088D01*
X120319444Y-46564092D01*
X120526297Y-46649773D01*
X120658844Y-46704677D01*
X120658848Y-46704678D01*
X120658850Y-46704679D01*
X121010402Y-46811321D01*
X121010408Y-46811322D01*
X121010411Y-46811323D01*
X121010422Y-46811326D01*
X121236351Y-46856264D01*
X121370713Y-46882991D01*
X121736315Y-46919000D01*
X121736318Y-46919000D01*
X122103682Y-46919000D01*
X122103685Y-46919000D01*
X122469287Y-46882991D01*
X122647629Y-46847516D01*
X122829577Y-46811326D01*
X122829588Y-46811323D01*
X122829588Y-46811322D01*
X122829598Y-46811321D01*
X123181150Y-46704679D01*
X123520556Y-46564092D01*
X123844548Y-46390915D01*
X124150006Y-46186815D01*
X124433987Y-45953757D01*
X124693757Y-45693987D01*
X124926815Y-45410006D01*
X125130915Y-45104548D01*
X125304092Y-44780556D01*
X125444679Y-44441150D01*
X125551321Y-44089598D01*
X125551323Y-44089588D01*
X125551326Y-44089577D01*
X125593754Y-43876270D01*
X125622991Y-43729287D01*
X125659000Y-43363685D01*
X125659000Y-42996315D01*
X125622991Y-42630713D01*
X125591200Y-42470889D01*
X125551326Y-42270422D01*
X125551323Y-42270411D01*
X125551322Y-42270408D01*
X125551321Y-42270402D01*
X125444679Y-41918850D01*
X125304092Y-41579444D01*
X125130915Y-41255452D01*
X124926815Y-40949994D01*
X124693757Y-40666013D01*
X124693756Y-40666012D01*
X124693752Y-40666007D01*
X124433992Y-40406247D01*
X124150011Y-40173189D01*
X124150010Y-40173188D01*
X124150006Y-40173185D01*
X123844548Y-39969085D01*
X123844543Y-39969082D01*
X123844536Y-39969078D01*
X123520563Y-39795911D01*
X123520558Y-39795909D01*
X123181155Y-39655322D01*
X122829588Y-39548676D01*
X122829577Y-39548673D01*
X122469293Y-39477010D01*
X122469276Y-39477007D01*
X122192806Y-39449777D01*
X122103685Y-39441000D01*
X121736315Y-39441000D01*
X121653891Y-39449118D01*
X121370723Y-39477007D01*
X121370706Y-39477010D01*
X121010422Y-39548673D01*
X121010411Y-39548676D01*
X120658844Y-39655322D01*
X120319441Y-39795909D01*
X120319436Y-39795911D01*
X119995463Y-39969078D01*
X119995445Y-39969089D01*
X119690002Y-40173179D01*
X119689988Y-40173189D01*
X119406007Y-40406247D01*
X119146247Y-40666007D01*
X118913189Y-40949988D01*
X118913179Y-40950002D01*
X118709089Y-41255445D01*
X118709078Y-41255463D01*
X118535911Y-41579436D01*
X118535909Y-41579441D01*
X118395322Y-41918844D01*
X118288676Y-42270411D01*
X118288673Y-42270422D01*
X118217010Y-42630706D01*
X118217007Y-42630723D01*
X118189118Y-42913891D01*
X118182353Y-42982585D01*
X118181000Y-42996318D01*
X116567018Y-42996318D01*
X116562557Y-42982588D01*
X116466051Y-42793184D01*
X116466049Y-42793181D01*
X116466048Y-42793179D01*
X116341109Y-42621213D01*
X116190786Y-42470890D01*
X116018820Y-42345951D01*
X115829414Y-42249444D01*
X115829413Y-42249443D01*
X115829412Y-42249443D01*
X115627243Y-42183754D01*
X115627241Y-42183753D01*
X115627240Y-42183753D01*
X115465957Y-42158208D01*
X115417287Y-42150500D01*
X115204713Y-42150500D01*
X115156042Y-42158208D01*
X114994760Y-42183753D01*
X114792585Y-42249444D01*
X114603179Y-42345951D01*
X114431215Y-42470889D01*
X114317673Y-42584431D01*
X114256350Y-42617915D01*
X114186658Y-42612931D01*
X114130725Y-42571059D01*
X114113810Y-42540082D01*
X114064797Y-42408671D01*
X114064793Y-42408664D01*
X113978547Y-42293455D01*
X113978544Y-42293452D01*
X113863335Y-42207206D01*
X113863328Y-42207202D01*
X113728482Y-42156908D01*
X113728483Y-42156908D01*
X113668883Y-42150501D01*
X113668881Y-42150500D01*
X113668873Y-42150500D01*
X113668864Y-42150500D01*
X111873129Y-42150500D01*
X111873123Y-42150501D01*
X111813516Y-42156908D01*
X111678671Y-42207202D01*
X111678664Y-42207206D01*
X111563455Y-42293452D01*
X111563452Y-42293455D01*
X111477206Y-42408664D01*
X111477202Y-42408671D01*
X111426908Y-42543517D01*
X111420501Y-42603116D01*
X111420500Y-42603135D01*
X100938219Y-42603135D01*
X100958398Y-42554419D01*
X101026270Y-42301116D01*
X101060500Y-42041120D01*
X101060500Y-41778880D01*
X101026270Y-41518884D01*
X100958398Y-41265581D01*
X100954207Y-41255463D01*
X100858046Y-41023309D01*
X100858041Y-41023299D01*
X100726924Y-40796196D01*
X100567281Y-40588148D01*
X100567274Y-40588140D01*
X100381860Y-40402726D01*
X100381851Y-40402718D01*
X100173803Y-40243075D01*
X99946700Y-40111958D01*
X99946690Y-40111953D01*
X99704428Y-40011605D01*
X99704421Y-40011603D01*
X99704419Y-40011602D01*
X99451116Y-39943730D01*
X99393339Y-39936123D01*
X99191127Y-39909500D01*
X99191120Y-39909500D01*
X98928880Y-39909500D01*
X98928872Y-39909500D01*
X98697772Y-39939926D01*
X98668884Y-39943730D01*
X98415581Y-40011602D01*
X98415571Y-40011605D01*
X98173309Y-40111953D01*
X98173299Y-40111958D01*
X97946196Y-40243075D01*
X97738148Y-40402718D01*
X97552718Y-40588148D01*
X97393075Y-40796196D01*
X97261958Y-41023299D01*
X97261953Y-41023309D01*
X97161605Y-41265571D01*
X97161602Y-41265581D01*
X97093730Y-41518885D01*
X97059500Y-41778872D01*
X97059500Y-42041127D01*
X97081366Y-42207202D01*
X97093730Y-42301116D01*
X97158681Y-42543517D01*
X97161602Y-42554418D01*
X97161605Y-42554428D01*
X97261953Y-42796690D01*
X97261958Y-42796700D01*
X97393075Y-43023803D01*
X97552718Y-43231851D01*
X97552726Y-43231860D01*
X97738140Y-43417274D01*
X97738148Y-43417281D01*
X97946196Y-43576924D01*
X98173299Y-43708041D01*
X98173309Y-43708046D01*
X98240297Y-43735793D01*
X98415581Y-43808398D01*
X98415585Y-43808399D01*
X98419351Y-43809678D01*
X98476509Y-43849862D01*
X98502867Y-43914569D01*
X98490058Y-43983255D01*
X98442148Y-44034111D01*
X98379502Y-44051100D01*
X94152498Y-44051100D01*
X94085459Y-44031415D01*
X94039704Y-43978611D01*
X94029760Y-43909453D01*
X94058785Y-43845897D01*
X94112649Y-43809678D01*
X94116409Y-43808400D01*
X94116419Y-43808398D01*
X94358697Y-43708043D01*
X94585803Y-43576924D01*
X94793851Y-43417282D01*
X94793855Y-43417277D01*
X94793860Y-43417274D01*
X94979274Y-43231860D01*
X94979277Y-43231855D01*
X94979282Y-43231851D01*
X95138924Y-43023803D01*
X95270043Y-42796697D01*
X95370398Y-42554419D01*
X95438270Y-42301116D01*
X95472500Y-42041120D01*
X95472500Y-41778880D01*
X95438270Y-41518884D01*
X95370398Y-41265581D01*
X95366207Y-41255463D01*
X95270046Y-41023309D01*
X95270041Y-41023299D01*
X95138924Y-40796196D01*
X94979281Y-40588148D01*
X94979274Y-40588140D01*
X94793860Y-40402726D01*
X94793851Y-40402718D01*
X94585803Y-40243075D01*
X94358700Y-40111958D01*
X94358690Y-40111953D01*
X94116428Y-40011605D01*
X94116421Y-40011603D01*
X94116419Y-40011602D01*
X93863116Y-39943730D01*
X93805339Y-39936123D01*
X93603127Y-39909500D01*
X93603120Y-39909500D01*
X93340880Y-39909500D01*
X93340872Y-39909500D01*
X93109772Y-39939926D01*
X93080884Y-39943730D01*
X92827581Y-40011602D01*
X92827571Y-40011605D01*
X92585309Y-40111953D01*
X92585299Y-40111958D01*
X92358196Y-40243075D01*
X92150148Y-40402718D01*
X91964718Y-40588148D01*
X91805075Y-40796196D01*
X91673958Y-41023299D01*
X91673953Y-41023309D01*
X91573605Y-41265571D01*
X91573602Y-41265581D01*
X91505730Y-41518885D01*
X91471500Y-41778872D01*
X91471500Y-42041127D01*
X91493366Y-42207202D01*
X91505730Y-42301116D01*
X91570681Y-42543517D01*
X91573602Y-42554418D01*
X91573605Y-42554428D01*
X91673953Y-42796690D01*
X91673958Y-42796700D01*
X91805075Y-43023803D01*
X91964718Y-43231851D01*
X91964726Y-43231860D01*
X92150140Y-43417274D01*
X92150148Y-43417281D01*
X92358196Y-43576924D01*
X92585299Y-43708041D01*
X92585309Y-43708046D01*
X92652297Y-43735793D01*
X92827581Y-43808398D01*
X92827585Y-43808399D01*
X92831351Y-43809678D01*
X92888509Y-43849862D01*
X92914867Y-43914569D01*
X92902058Y-43983255D01*
X92854148Y-44034111D01*
X92791502Y-44051100D01*
X88564498Y-44051100D01*
X88497459Y-44031415D01*
X88451704Y-43978611D01*
X88441760Y-43909453D01*
X88470785Y-43845897D01*
X88524649Y-43809678D01*
X88528409Y-43808400D01*
X88528419Y-43808398D01*
X88770697Y-43708043D01*
X88997803Y-43576924D01*
X89205851Y-43417282D01*
X89205855Y-43417277D01*
X89205860Y-43417274D01*
X89391274Y-43231860D01*
X89391277Y-43231855D01*
X89391282Y-43231851D01*
X89550924Y-43023803D01*
X89682043Y-42796697D01*
X89782398Y-42554419D01*
X89850270Y-42301116D01*
X89884500Y-42041120D01*
X89884500Y-41778880D01*
X89850270Y-41518884D01*
X89782398Y-41265581D01*
X89778207Y-41255463D01*
X89682046Y-41023309D01*
X89682041Y-41023299D01*
X89550924Y-40796196D01*
X89391281Y-40588148D01*
X89391274Y-40588140D01*
X89205860Y-40402726D01*
X89205851Y-40402718D01*
X88997803Y-40243075D01*
X88770700Y-40111958D01*
X88770690Y-40111953D01*
X88528428Y-40011605D01*
X88528421Y-40011603D01*
X88528419Y-40011602D01*
X88275116Y-39943730D01*
X88217339Y-39936123D01*
X88015127Y-39909500D01*
X88015120Y-39909500D01*
X87752880Y-39909500D01*
X87752872Y-39909500D01*
X87521772Y-39939926D01*
X87492884Y-39943730D01*
X87239581Y-40011602D01*
X87239571Y-40011605D01*
X86997309Y-40111953D01*
X86997299Y-40111958D01*
X86770196Y-40243075D01*
X86562148Y-40402718D01*
X86376718Y-40588148D01*
X86217075Y-40796196D01*
X86085958Y-41023299D01*
X86085953Y-41023309D01*
X85985605Y-41265571D01*
X85985602Y-41265581D01*
X85917730Y-41518885D01*
X85883500Y-41778872D01*
X85883500Y-42041127D01*
X85905366Y-42207202D01*
X85917730Y-42301116D01*
X85982681Y-42543517D01*
X85985602Y-42554418D01*
X85985605Y-42554428D01*
X86085953Y-42796690D01*
X86085958Y-42796700D01*
X86217075Y-43023803D01*
X86376718Y-43231851D01*
X86376726Y-43231860D01*
X86562140Y-43417274D01*
X86562148Y-43417281D01*
X86770196Y-43576924D01*
X86997299Y-43708041D01*
X86997309Y-43708046D01*
X87064297Y-43735793D01*
X87239581Y-43808398D01*
X87239585Y-43808399D01*
X87243351Y-43809678D01*
X87300509Y-43849862D01*
X87326867Y-43914569D01*
X87314058Y-43983255D01*
X87266148Y-44034111D01*
X87203502Y-44051100D01*
X85919802Y-44051100D01*
X85852763Y-44031415D01*
X85832121Y-44014781D01*
X84664142Y-42846801D01*
X84630657Y-42785478D01*
X84635641Y-42715786D01*
X84637227Y-42711752D01*
X84702398Y-42554419D01*
X84770270Y-42301116D01*
X84804500Y-42041120D01*
X84804500Y-41778880D01*
X84770270Y-41518884D01*
X84702398Y-41265581D01*
X84698207Y-41255463D01*
X84602046Y-41023309D01*
X84602041Y-41023299D01*
X84470924Y-40796196D01*
X84311281Y-40588148D01*
X84311274Y-40588140D01*
X84125860Y-40402726D01*
X84125851Y-40402718D01*
X83917803Y-40243075D01*
X83690700Y-40111958D01*
X83690690Y-40111953D01*
X83448428Y-40011605D01*
X83448421Y-40011603D01*
X83448419Y-40011602D01*
X83195116Y-39943730D01*
X83137339Y-39936123D01*
X82935127Y-39909500D01*
X82935120Y-39909500D01*
X82672880Y-39909500D01*
X82672872Y-39909500D01*
X82441772Y-39939926D01*
X82412884Y-39943730D01*
X82159581Y-40011602D01*
X82159571Y-40011605D01*
X81917309Y-40111953D01*
X81917299Y-40111958D01*
X81690196Y-40243075D01*
X81482148Y-40402718D01*
X81296718Y-40588148D01*
X81137075Y-40796196D01*
X81005958Y-41023299D01*
X81005953Y-41023309D01*
X80905605Y-41265571D01*
X80905602Y-41265581D01*
X80837730Y-41518885D01*
X80803500Y-41778872D01*
X72043898Y-41778872D01*
X71961292Y-41579444D01*
X71788115Y-41255452D01*
X71584015Y-40949994D01*
X71350957Y-40666013D01*
X71350956Y-40666012D01*
X71350952Y-40666007D01*
X71091192Y-40406247D01*
X70807211Y-40173189D01*
X70807210Y-40173188D01*
X70807206Y-40173185D01*
X70501748Y-39969085D01*
X70501743Y-39969082D01*
X70501736Y-39969078D01*
X70177763Y-39795911D01*
X70177758Y-39795909D01*
X69838355Y-39655322D01*
X69486788Y-39548676D01*
X69486777Y-39548673D01*
X69126493Y-39477010D01*
X69126476Y-39477007D01*
X68850006Y-39449777D01*
X68760885Y-39441000D01*
X68393515Y-39441000D01*
X68311091Y-39449118D01*
X68027923Y-39477007D01*
X68027906Y-39477010D01*
X67667622Y-39548673D01*
X67667611Y-39548676D01*
X67316044Y-39655322D01*
X66976641Y-39795909D01*
X66976636Y-39795911D01*
X66652663Y-39969078D01*
X66652645Y-39969089D01*
X66347202Y-40173179D01*
X66347188Y-40173189D01*
X66063207Y-40406247D01*
X65803447Y-40666007D01*
X65570389Y-40949988D01*
X65570379Y-40950002D01*
X65366289Y-41255445D01*
X65366278Y-41255463D01*
X65193111Y-41579436D01*
X65193109Y-41579441D01*
X65052522Y-41918844D01*
X64945876Y-42270411D01*
X64945873Y-42270422D01*
X64874210Y-42630706D01*
X64874207Y-42630723D01*
X64846318Y-42913891D01*
X64839553Y-42982585D01*
X64838200Y-42996318D01*
X64000500Y-42996318D01*
X64000500Y-38724500D01*
X64020185Y-38657461D01*
X64072989Y-38611706D01*
X64124500Y-38600500D01*
X126375500Y-38600500D01*
X126442539Y-38620185D01*
G37*
%TD.AperFunction*%
%TA.AperFunction,Conductor*%
G36*
X103515805Y-88661731D02*
G01*
X103560153Y-88690232D01*
X103629707Y-88759786D01*
X103629711Y-88759789D01*
X103760814Y-88847390D01*
X103760826Y-88847397D01*
X103858605Y-88887897D01*
X103884151Y-88908482D01*
X103910420Y-88928147D01*
X103911221Y-88930296D01*
X103913009Y-88931737D01*
X103923371Y-88962871D01*
X103934837Y-88993611D01*
X103934349Y-88995853D01*
X103935074Y-88998031D01*
X103926961Y-89029815D01*
X103919986Y-89061884D01*
X103918151Y-89064334D01*
X103917795Y-89065731D01*
X103898835Y-89090139D01*
X103858218Y-89130755D01*
X103762192Y-89226782D01*
X103700872Y-89260266D01*
X103674513Y-89263100D01*
X103111287Y-89263100D01*
X103044248Y-89243415D01*
X102998493Y-89190611D01*
X102988549Y-89121453D01*
X103017574Y-89057897D01*
X103023606Y-89051419D01*
X103112898Y-88962127D01*
X103384793Y-88690230D01*
X103446114Y-88656747D01*
X103515805Y-88661731D01*
G37*
%TD.AperFunction*%
%TA.AperFunction,Conductor*%
G36*
X102319152Y-71640185D02*
G01*
X102339794Y-71656819D01*
X102841181Y-72158206D01*
X102874666Y-72219529D01*
X102877500Y-72245887D01*
X102877500Y-81380738D01*
X102857815Y-81447777D01*
X102805011Y-81493532D01*
X102735853Y-81503476D01*
X102729309Y-81502355D01*
X102694846Y-81495500D01*
X102694842Y-81495500D01*
X102537158Y-81495500D01*
X102537155Y-81495500D01*
X102382510Y-81526261D01*
X102382498Y-81526264D01*
X102236827Y-81586602D01*
X102236814Y-81586609D01*
X102105711Y-81674210D01*
X102105707Y-81674213D01*
X101994213Y-81785707D01*
X101994210Y-81785711D01*
X101906609Y-81916814D01*
X101906602Y-81916827D01*
X101846264Y-82062498D01*
X101846261Y-82062510D01*
X101815500Y-82217153D01*
X101815500Y-82374846D01*
X101846261Y-82529489D01*
X101846264Y-82529501D01*
X101906602Y-82675172D01*
X101906609Y-82675185D01*
X101994210Y-82806288D01*
X101994213Y-82806292D01*
X102038821Y-82850899D01*
X102072307Y-82912222D01*
X102072759Y-82962768D01*
X102069500Y-82979154D01*
X102069500Y-83136846D01*
X102100261Y-83291489D01*
X102100263Y-83291497D01*
X102117224Y-83332444D01*
X102124692Y-83401914D01*
X102093416Y-83464393D01*
X102090344Y-83467577D01*
X101994210Y-83563711D01*
X101906609Y-83694815D01*
X101906607Y-83694818D01*
X101906606Y-83694821D01*
X101902409Y-83704951D01*
X101858572Y-83759354D01*
X101792279Y-83781421D01*
X101787849Y-83781500D01*
X101775155Y-83781500D01*
X101620510Y-83812261D01*
X101620498Y-83812264D01*
X101474827Y-83872602D01*
X101474814Y-83872609D01*
X101343711Y-83960210D01*
X101343707Y-83960213D01*
X101232213Y-84071707D01*
X101232210Y-84071711D01*
X101144609Y-84202814D01*
X101144602Y-84202827D01*
X101102633Y-84304152D01*
X101058792Y-84358556D01*
X100992498Y-84380621D01*
X100940620Y-84371261D01*
X100817501Y-84320264D01*
X100817489Y-84320261D01*
X100662845Y-84289500D01*
X100662842Y-84289500D01*
X100505158Y-84289500D01*
X100505155Y-84289500D01*
X100350510Y-84320261D01*
X100350498Y-84320264D01*
X100204827Y-84380602D01*
X100204814Y-84380609D01*
X100073711Y-84468210D01*
X100073707Y-84468213D01*
X99962213Y-84579707D01*
X99962210Y-84579711D01*
X99874609Y-84710814D01*
X99874602Y-84710827D01*
X99814264Y-84856498D01*
X99814261Y-84856510D01*
X99783500Y-85011153D01*
X99783500Y-85168846D01*
X99814261Y-85323489D01*
X99814264Y-85323501D01*
X99874602Y-85469172D01*
X99874609Y-85469185D01*
X99962210Y-85600288D01*
X99962213Y-85600292D01*
X100073707Y-85711786D01*
X100073711Y-85711789D01*
X100204814Y-85799390D01*
X100204827Y-85799397D01*
X100350498Y-85859735D01*
X100350503Y-85859737D01*
X100505153Y-85890499D01*
X100505156Y-85890500D01*
X100505158Y-85890500D01*
X100662844Y-85890500D01*
X100662845Y-85890499D01*
X100817497Y-85859737D01*
X100963179Y-85799394D01*
X101094289Y-85711789D01*
X101205789Y-85600289D01*
X101293394Y-85469179D01*
X101335367Y-85367844D01*
X101379206Y-85313444D01*
X101445499Y-85291378D01*
X101497379Y-85300738D01*
X101620498Y-85351735D01*
X101620503Y-85351737D01*
X101752113Y-85377916D01*
X101775153Y-85382499D01*
X101775156Y-85382500D01*
X101775158Y-85382500D01*
X101932842Y-85382500D01*
X101955886Y-85377916D01*
X102025475Y-85384142D01*
X102080654Y-85427004D01*
X102103900Y-85492893D01*
X102087834Y-85560890D01*
X102067759Y-85587214D01*
X101275045Y-86379928D01*
X101234822Y-86406806D01*
X101220819Y-86412606D01*
X101220818Y-86412607D01*
X101089715Y-86500207D01*
X101089707Y-86500213D01*
X100978213Y-86611707D01*
X100978210Y-86611711D01*
X100890609Y-86742814D01*
X100890602Y-86742827D01*
X100830264Y-86888498D01*
X100830261Y-86888510D01*
X100799500Y-87043153D01*
X100799500Y-87200846D01*
X100830261Y-87355489D01*
X100830264Y-87355501D01*
X100890602Y-87501172D01*
X100890609Y-87501185D01*
X100978210Y-87632288D01*
X100978213Y-87632292D01*
X100979740Y-87633819D01*
X100980284Y-87634815D01*
X100982076Y-87636999D01*
X100981661Y-87637338D01*
X101013225Y-87695142D01*
X101008241Y-87764834D01*
X100966369Y-87820767D01*
X100900905Y-87845184D01*
X100892059Y-87845500D01*
X100759155Y-87845500D01*
X100604510Y-87876261D01*
X100604498Y-87876264D01*
X100458827Y-87936602D01*
X100458814Y-87936609D01*
X100327711Y-88024210D01*
X100327707Y-88024213D01*
X100216213Y-88135707D01*
X100216210Y-88135711D01*
X100128609Y-88266814D01*
X100128602Y-88266827D01*
X100068264Y-88412498D01*
X100068262Y-88412505D01*
X100060691Y-88450565D01*
X100028304Y-88512475D01*
X99967588Y-88547048D01*
X99897818Y-88543307D01*
X99851394Y-88514053D01*
X99730200Y-88392859D01*
X99623264Y-88321408D01*
X99504444Y-88272191D01*
X99504438Y-88272189D01*
X99378307Y-88247100D01*
X99378305Y-88247100D01*
X93238408Y-88247100D01*
X93171369Y-88227415D01*
X93125614Y-88174611D01*
X93115670Y-88105453D01*
X93135305Y-88054209D01*
X93165394Y-88009179D01*
X93225737Y-87863497D01*
X93256500Y-87708842D01*
X93256500Y-87551158D01*
X93256500Y-87551155D01*
X93256499Y-87551153D01*
X93252436Y-87530727D01*
X93225737Y-87396503D01*
X93186759Y-87302401D01*
X93165397Y-87250827D01*
X93165390Y-87250814D01*
X93077789Y-87119711D01*
X93077786Y-87119707D01*
X92966292Y-87008213D01*
X92966288Y-87008210D01*
X92835185Y-86920609D01*
X92835172Y-86920602D01*
X92689501Y-86860264D01*
X92689489Y-86860261D01*
X92534845Y-86829500D01*
X92534842Y-86829500D01*
X92522151Y-86829500D01*
X92455112Y-86809815D01*
X92409357Y-86757011D01*
X92407610Y-86752999D01*
X92403394Y-86742821D01*
X92315789Y-86611711D01*
X92315786Y-86611707D01*
X92204292Y-86500213D01*
X92204288Y-86500210D01*
X92073185Y-86412609D01*
X92073172Y-86412602D01*
X91927501Y-86352264D01*
X91927489Y-86352261D01*
X91772845Y-86321500D01*
X91772842Y-86321500D01*
X91615158Y-86321500D01*
X91615155Y-86321500D01*
X91460510Y-86352261D01*
X91460498Y-86352264D01*
X91314827Y-86412602D01*
X91314814Y-86412609D01*
X91183711Y-86500210D01*
X91183707Y-86500213D01*
X91146681Y-86537240D01*
X91085358Y-86570725D01*
X91015666Y-86565741D01*
X90971319Y-86537240D01*
X90934292Y-86500213D01*
X90934288Y-86500210D01*
X90803185Y-86412609D01*
X90803172Y-86412602D01*
X90657501Y-86352264D01*
X90657489Y-86352261D01*
X90502845Y-86321500D01*
X90502842Y-86321500D01*
X90345158Y-86321500D01*
X90345155Y-86321500D01*
X90190510Y-86352261D01*
X90190498Y-86352264D01*
X90044827Y-86412602D01*
X90044814Y-86412609D01*
X89913711Y-86500210D01*
X89913707Y-86500213D01*
X89802213Y-86611707D01*
X89802210Y-86611711D01*
X89714609Y-86742814D01*
X89714602Y-86742827D01*
X89654264Y-86888498D01*
X89654261Y-86888510D01*
X89623500Y-87043153D01*
X89623500Y-87200846D01*
X89654261Y-87355489D01*
X89654264Y-87355501D01*
X89714602Y-87501172D01*
X89714609Y-87501185D01*
X89802210Y-87632288D01*
X89802213Y-87632292D01*
X89913707Y-87743786D01*
X89913711Y-87743789D01*
X90044814Y-87831390D01*
X90044827Y-87831397D01*
X90172505Y-87884282D01*
X90190503Y-87891737D01*
X90345153Y-87922499D01*
X90345156Y-87922500D01*
X90345158Y-87922500D01*
X90502844Y-87922500D01*
X90502845Y-87922499D01*
X90657497Y-87891737D01*
X90803179Y-87831394D01*
X90934289Y-87743789D01*
X90934292Y-87743786D01*
X90971319Y-87706760D01*
X91032642Y-87673275D01*
X91102334Y-87678259D01*
X91146681Y-87706760D01*
X91183707Y-87743786D01*
X91183711Y-87743789D01*
X91314814Y-87831390D01*
X91314827Y-87831397D01*
X91442505Y-87884282D01*
X91460503Y-87891737D01*
X91615153Y-87922499D01*
X91615156Y-87922500D01*
X91615158Y-87922500D01*
X91627849Y-87922500D01*
X91694888Y-87942185D01*
X91734311Y-87982924D01*
X91738945Y-87990685D01*
X91746606Y-88009179D01*
X91778443Y-88056827D01*
X91780054Y-88059524D01*
X91788035Y-88090428D01*
X91797572Y-88120886D01*
X91796711Y-88124023D01*
X91797525Y-88127174D01*
X91787532Y-88157482D01*
X91779088Y-88188266D01*
X91776666Y-88190440D01*
X91775648Y-88193531D01*
X91750857Y-88213624D01*
X91727109Y-88234957D01*
X91723539Y-88235766D01*
X91721369Y-88237526D01*
X91710498Y-88238725D01*
X91673592Y-88247100D01*
X87951802Y-88247100D01*
X87884763Y-88227415D01*
X87864121Y-88210781D01*
X86795219Y-87141878D01*
X86761734Y-87080555D01*
X86758900Y-87054197D01*
X86758900Y-85127942D01*
X86778585Y-85060903D01*
X86831389Y-85015148D01*
X86900547Y-85005204D01*
X86964103Y-85034229D01*
X86986003Y-85059052D01*
X87008212Y-85092291D01*
X87119707Y-85203786D01*
X87119711Y-85203789D01*
X87250814Y-85291390D01*
X87250827Y-85291397D01*
X87396498Y-85351735D01*
X87396503Y-85351737D01*
X87528113Y-85377916D01*
X87551153Y-85382499D01*
X87551156Y-85382500D01*
X87551158Y-85382500D01*
X87708844Y-85382500D01*
X87708845Y-85382499D01*
X87863497Y-85351737D01*
X87986620Y-85300737D01*
X88056089Y-85293269D01*
X88118568Y-85324544D01*
X88148633Y-85367847D01*
X88190602Y-85469172D01*
X88190609Y-85469185D01*
X88278210Y-85600288D01*
X88278213Y-85600292D01*
X88389707Y-85711786D01*
X88389711Y-85711789D01*
X88520814Y-85799390D01*
X88520827Y-85799397D01*
X88666498Y-85859735D01*
X88666503Y-85859737D01*
X88821153Y-85890499D01*
X88821156Y-85890500D01*
X88821158Y-85890500D01*
X88978844Y-85890500D01*
X88978845Y-85890499D01*
X89133497Y-85859737D01*
X89279179Y-85799394D01*
X89410289Y-85711789D01*
X89521789Y-85600289D01*
X89609394Y-85469179D01*
X89669737Y-85323497D01*
X89700500Y-85168842D01*
X89700500Y-85011158D01*
X89700500Y-85011155D01*
X89700499Y-85011153D01*
X89669738Y-84856510D01*
X89669737Y-84856503D01*
X89652752Y-84815497D01*
X89609397Y-84710827D01*
X89609390Y-84710814D01*
X89521789Y-84579711D01*
X89521786Y-84579707D01*
X89477177Y-84535098D01*
X89443692Y-84473775D01*
X89443241Y-84423225D01*
X89446500Y-84406842D01*
X89446500Y-84249158D01*
X89446500Y-84249155D01*
X89446499Y-84249153D01*
X89437283Y-84202821D01*
X89415737Y-84094503D01*
X89391528Y-84036057D01*
X89355397Y-83948827D01*
X89355390Y-83948814D01*
X89267789Y-83817711D01*
X89267786Y-83817707D01*
X89156292Y-83706213D01*
X89156288Y-83706210D01*
X89025185Y-83618609D01*
X89025177Y-83618605D01*
X89015041Y-83614406D01*
X88960640Y-83570562D01*
X88938579Y-83504266D01*
X88938500Y-83499847D01*
X88938500Y-83487155D01*
X88938499Y-83487153D01*
X88933972Y-83464393D01*
X88907737Y-83332503D01*
X88890749Y-83291489D01*
X88847397Y-83186827D01*
X88847390Y-83186814D01*
X88759789Y-83055711D01*
X88759786Y-83055707D01*
X88648292Y-82944213D01*
X88648288Y-82944210D01*
X88517185Y-82856609D01*
X88517172Y-82856602D01*
X88371501Y-82796264D01*
X88371489Y-82796261D01*
X88216845Y-82765500D01*
X88216842Y-82765500D01*
X88059158Y-82765500D01*
X88059155Y-82765500D01*
X87904510Y-82796261D01*
X87904498Y-82796264D01*
X87758827Y-82856602D01*
X87758814Y-82856609D01*
X87627711Y-82944210D01*
X87627707Y-82944213D01*
X87516213Y-83055707D01*
X87516210Y-83055711D01*
X87428609Y-83186814D01*
X87428602Y-83186827D01*
X87368264Y-83332498D01*
X87368261Y-83332510D01*
X87337500Y-83487153D01*
X87337500Y-83644840D01*
X87352905Y-83722289D01*
X87346677Y-83791881D01*
X87303813Y-83847058D01*
X87278741Y-83861041D01*
X87250821Y-83872606D01*
X87250814Y-83872609D01*
X87119711Y-83960210D01*
X87119707Y-83960213D01*
X87008213Y-84071707D01*
X87008210Y-84071711D01*
X86986002Y-84104948D01*
X86932389Y-84149753D01*
X86863064Y-84158460D01*
X86800037Y-84128305D01*
X86763318Y-84068862D01*
X86758900Y-84036057D01*
X86758900Y-80765343D01*
X86778585Y-80698304D01*
X86779764Y-80696501D01*
X86815394Y-80643179D01*
X86875737Y-80497497D01*
X86906500Y-80342842D01*
X86906500Y-80185158D01*
X86906500Y-80185155D01*
X86906499Y-80185153D01*
X86875738Y-80030510D01*
X86875737Y-80030503D01*
X86858749Y-79989489D01*
X86815397Y-79884827D01*
X86815390Y-79884814D01*
X86727792Y-79753716D01*
X86727789Y-79753711D01*
X86727784Y-79753706D01*
X86727781Y-79753702D01*
X86651232Y-79677153D01*
X100545500Y-79677153D01*
X100545500Y-79834846D01*
X100576261Y-79989489D01*
X100576264Y-79989501D01*
X100636602Y-80135172D01*
X100636609Y-80135185D01*
X100724210Y-80266288D01*
X100724213Y-80266292D01*
X100835707Y-80377786D01*
X100835711Y-80377789D01*
X100966814Y-80465390D01*
X100966827Y-80465397D01*
X101112498Y-80525735D01*
X101112503Y-80525737D01*
X101267153Y-80556499D01*
X101267156Y-80556500D01*
X101267158Y-80556500D01*
X101424844Y-80556500D01*
X101424845Y-80556499D01*
X101579497Y-80525737D01*
X101725179Y-80465394D01*
X101856289Y-80377789D01*
X101967789Y-80266289D01*
X102055394Y-80135179D01*
X102115737Y-79989497D01*
X102146500Y-79834842D01*
X102146500Y-79677158D01*
X102146500Y-79677155D01*
X102146499Y-79677153D01*
X102115737Y-79522503D01*
X102098400Y-79480647D01*
X102055397Y-79376827D01*
X102055390Y-79376814D01*
X101967789Y-79245711D01*
X101967786Y-79245707D01*
X101856292Y-79134213D01*
X101856288Y-79134210D01*
X101725185Y-79046609D01*
X101725172Y-79046602D01*
X101579501Y-78986264D01*
X101579489Y-78986261D01*
X101424845Y-78955500D01*
X101424842Y-78955500D01*
X101267158Y-78955500D01*
X101267155Y-78955500D01*
X101112510Y-78986261D01*
X101112498Y-78986264D01*
X100966827Y-79046602D01*
X100966814Y-79046609D01*
X100835711Y-79134210D01*
X100835707Y-79134213D01*
X100724213Y-79245707D01*
X100724210Y-79245711D01*
X100636609Y-79376814D01*
X100636602Y-79376827D01*
X100576264Y-79522498D01*
X100576261Y-79522510D01*
X100545500Y-79677153D01*
X86651232Y-79677153D01*
X86616289Y-79642210D01*
X86534820Y-79587775D01*
X86490015Y-79534163D01*
X86481308Y-79464838D01*
X86511462Y-79401811D01*
X86516011Y-79397011D01*
X88462953Y-77450069D01*
X88503176Y-77423193D01*
X88517179Y-77417394D01*
X88648289Y-77329789D01*
X88759789Y-77218289D01*
X88847394Y-77087179D01*
X88907737Y-76941497D01*
X88938500Y-76786842D01*
X88938500Y-76629158D01*
X88938499Y-76629153D01*
X88938380Y-76627946D01*
X88938500Y-76627312D01*
X88938500Y-76623066D01*
X88939305Y-76623066D01*
X88951393Y-76559299D01*
X88999454Y-76508585D01*
X89067304Y-76491905D01*
X89073946Y-76492380D01*
X89075153Y-76492499D01*
X89075158Y-76492500D01*
X89075163Y-76492500D01*
X89232844Y-76492500D01*
X89232845Y-76492499D01*
X89387497Y-76461737D01*
X89533179Y-76401394D01*
X89664289Y-76313789D01*
X89775789Y-76202289D01*
X89863394Y-76071179D01*
X89884844Y-76019391D01*
X89928684Y-75964991D01*
X89994978Y-75942925D01*
X90062677Y-75960204D01*
X90087086Y-75979165D01*
X90167707Y-76059786D01*
X90167711Y-76059789D01*
X90298814Y-76147390D01*
X90298827Y-76147397D01*
X90444498Y-76207735D01*
X90444503Y-76207737D01*
X90599153Y-76238499D01*
X90599156Y-76238500D01*
X90599158Y-76238500D01*
X90756844Y-76238500D01*
X90756845Y-76238499D01*
X90911497Y-76207737D01*
X91057179Y-76147394D01*
X91188289Y-76059789D01*
X91299789Y-75948289D01*
X91387394Y-75817179D01*
X91447737Y-75671497D01*
X91478500Y-75516842D01*
X91478500Y-75359158D01*
X91478500Y-75359155D01*
X91447757Y-75204604D01*
X91453984Y-75135012D01*
X91468901Y-75109621D01*
X91468211Y-75109160D01*
X91559196Y-74972991D01*
X91559196Y-74972990D01*
X91559200Y-74972985D01*
X91619543Y-74827303D01*
X91632888Y-74760206D01*
X91636568Y-74753171D01*
X91636852Y-74745238D01*
X91652530Y-74722657D01*
X91665273Y-74698296D01*
X91673187Y-74692905D01*
X91676700Y-74687846D01*
X91707054Y-74669837D01*
X91714444Y-74666776D01*
X91783913Y-74659307D01*
X91846392Y-74690582D01*
X91849577Y-74693656D01*
X91945707Y-74789786D01*
X91945711Y-74789789D01*
X92076814Y-74877390D01*
X92076827Y-74877397D01*
X92189184Y-74923936D01*
X92222503Y-74937737D01*
X92377153Y-74968499D01*
X92377156Y-74968500D01*
X92377158Y-74968500D01*
X92534844Y-74968500D01*
X92534845Y-74968499D01*
X92689497Y-74937737D01*
X92802166Y-74891067D01*
X92835172Y-74877397D01*
X92835172Y-74877396D01*
X92835179Y-74877394D01*
X92966289Y-74789789D01*
X92967881Y-74788197D01*
X93003319Y-74752760D01*
X93064642Y-74719275D01*
X93134334Y-74724259D01*
X93178681Y-74752760D01*
X93215707Y-74789786D01*
X93215711Y-74789789D01*
X93346814Y-74877390D01*
X93346827Y-74877397D01*
X93459184Y-74923936D01*
X93492503Y-74937737D01*
X93647153Y-74968499D01*
X93647156Y-74968500D01*
X93647158Y-74968500D01*
X93804844Y-74968500D01*
X93804845Y-74968499D01*
X93959497Y-74937737D01*
X94072166Y-74891067D01*
X94105172Y-74877397D01*
X94105172Y-74877396D01*
X94105179Y-74877394D01*
X94165109Y-74837349D01*
X94231786Y-74816472D01*
X94299166Y-74834956D01*
X94302874Y-74837338D01*
X94362821Y-74877394D01*
X94362823Y-74877395D01*
X94362827Y-74877397D01*
X94475184Y-74923936D01*
X94508503Y-74937737D01*
X94663153Y-74968499D01*
X94663156Y-74968500D01*
X94663158Y-74968500D01*
X94820844Y-74968500D01*
X94820845Y-74968499D01*
X94975497Y-74937737D01*
X95088166Y-74891067D01*
X95121172Y-74877397D01*
X95121172Y-74877396D01*
X95121179Y-74877394D01*
X95252289Y-74789789D01*
X95363789Y-74678289D01*
X95403296Y-74619161D01*
X95456906Y-74574359D01*
X95526231Y-74565650D01*
X95575288Y-74584952D01*
X95632814Y-74623390D01*
X95632827Y-74623397D01*
X95751741Y-74672652D01*
X95778503Y-74683737D01*
X95912149Y-74710321D01*
X95933153Y-74714499D01*
X95933156Y-74714500D01*
X95933158Y-74714500D01*
X96090844Y-74714500D01*
X96090845Y-74714499D01*
X96245497Y-74683737D01*
X96391179Y-74623394D01*
X96522289Y-74535789D01*
X96566900Y-74491177D01*
X96628222Y-74457692D01*
X96678774Y-74457241D01*
X96695157Y-74460500D01*
X96695158Y-74460500D01*
X96852844Y-74460500D01*
X96852845Y-74460499D01*
X97007497Y-74429737D01*
X97153179Y-74369394D01*
X97284289Y-74281789D01*
X97395789Y-74170289D01*
X97450002Y-74089153D01*
X98005500Y-74089153D01*
X98005500Y-74246846D01*
X98036261Y-74401489D01*
X98036264Y-74401501D01*
X98096602Y-74547172D01*
X98096609Y-74547185D01*
X98184607Y-74678883D01*
X98205485Y-74745561D01*
X98187000Y-74812941D01*
X98184608Y-74816664D01*
X98096608Y-74948365D01*
X98096602Y-74948376D01*
X98036264Y-75094047D01*
X98036261Y-75094059D01*
X98005500Y-75248702D01*
X98005500Y-75406395D01*
X98036261Y-75561038D01*
X98036264Y-75561050D01*
X98096602Y-75706721D01*
X98096609Y-75706734D01*
X98184210Y-75837837D01*
X98184213Y-75837841D01*
X98295707Y-75949335D01*
X98295711Y-75949338D01*
X98426814Y-76036939D01*
X98426827Y-76036946D01*
X98572498Y-76097284D01*
X98572503Y-76097286D01*
X98727153Y-76128048D01*
X98727156Y-76128049D01*
X98727158Y-76128049D01*
X98884844Y-76128049D01*
X98884845Y-76128048D01*
X99039497Y-76097286D01*
X99185179Y-76036943D01*
X99316289Y-75949338D01*
X99427789Y-75837838D01*
X99515394Y-75706728D01*
X99575737Y-75561046D01*
X99606500Y-75406391D01*
X99606500Y-75248707D01*
X99606500Y-75248704D01*
X99606499Y-75248702D01*
X99593793Y-75184825D01*
X99575737Y-75094052D01*
X99565862Y-75070211D01*
X99515397Y-74948376D01*
X99515390Y-74948363D01*
X99427392Y-74816665D01*
X99406514Y-74749987D01*
X99424999Y-74682607D01*
X99427392Y-74678883D01*
X99431556Y-74672652D01*
X99515394Y-74547179D01*
X99575737Y-74401497D01*
X99606500Y-74246842D01*
X99606500Y-74089158D01*
X99606500Y-74089155D01*
X99606499Y-74089153D01*
X99595850Y-74035616D01*
X99575737Y-73934503D01*
X99554988Y-73884410D01*
X99515397Y-73788827D01*
X99515390Y-73788814D01*
X99427789Y-73657711D01*
X99427786Y-73657707D01*
X99316292Y-73546213D01*
X99316288Y-73546210D01*
X99185185Y-73458609D01*
X99185172Y-73458602D01*
X99039501Y-73398264D01*
X99039489Y-73398261D01*
X98884845Y-73367500D01*
X98884842Y-73367500D01*
X98727158Y-73367500D01*
X98727155Y-73367500D01*
X98572510Y-73398261D01*
X98572498Y-73398264D01*
X98426827Y-73458602D01*
X98426814Y-73458609D01*
X98295711Y-73546210D01*
X98295707Y-73546213D01*
X98184213Y-73657707D01*
X98184210Y-73657711D01*
X98096609Y-73788814D01*
X98096602Y-73788827D01*
X98036264Y-73934498D01*
X98036261Y-73934510D01*
X98005500Y-74089153D01*
X97450002Y-74089153D01*
X97483394Y-74039179D01*
X97543737Y-73893497D01*
X97574500Y-73738842D01*
X97574500Y-73581158D01*
X97574500Y-73581155D01*
X97574499Y-73581153D01*
X97567549Y-73546213D01*
X97543737Y-73426503D01*
X97542158Y-73422691D01*
X97483397Y-73280827D01*
X97483390Y-73280814D01*
X97395789Y-73149711D01*
X97395786Y-73149707D01*
X97284292Y-73038213D01*
X97284288Y-73038210D01*
X97153185Y-72950609D01*
X97153172Y-72950602D01*
X97007501Y-72890264D01*
X97007489Y-72890261D01*
X96852845Y-72859500D01*
X96852842Y-72859500D01*
X96695158Y-72859500D01*
X96695155Y-72859500D01*
X96540510Y-72890261D01*
X96540498Y-72890264D01*
X96394827Y-72950602D01*
X96394814Y-72950609D01*
X96263714Y-73038208D01*
X96263708Y-73038212D01*
X96219096Y-73082824D01*
X96157773Y-73116308D01*
X96107228Y-73116759D01*
X96090842Y-73113500D01*
X95933158Y-73113500D01*
X95933155Y-73113500D01*
X95778510Y-73144261D01*
X95778498Y-73144264D01*
X95632827Y-73204602D01*
X95632814Y-73204609D01*
X95501711Y-73292210D01*
X95501707Y-73292213D01*
X95390213Y-73403707D01*
X95390210Y-73403711D01*
X95350704Y-73462836D01*
X95297091Y-73507641D01*
X95227766Y-73516348D01*
X95178711Y-73497047D01*
X95121185Y-73458609D01*
X95121172Y-73458602D01*
X94975501Y-73398264D01*
X94975489Y-73398261D01*
X94820845Y-73367500D01*
X94820842Y-73367500D01*
X94663158Y-73367500D01*
X94663155Y-73367500D01*
X94508510Y-73398261D01*
X94508498Y-73398264D01*
X94362828Y-73458602D01*
X94362815Y-73458609D01*
X94302891Y-73498650D01*
X94236213Y-73519528D01*
X94168833Y-73501043D01*
X94165109Y-73498650D01*
X94105184Y-73458609D01*
X94105181Y-73458607D01*
X94105179Y-73458606D01*
X94105176Y-73458604D01*
X94105171Y-73458602D01*
X93959501Y-73398264D01*
X93959489Y-73398261D01*
X93804845Y-73367500D01*
X93804842Y-73367500D01*
X93647158Y-73367500D01*
X93647155Y-73367500D01*
X93492510Y-73398261D01*
X93492498Y-73398264D01*
X93346827Y-73458602D01*
X93346814Y-73458609D01*
X93215711Y-73546210D01*
X93215707Y-73546213D01*
X93178681Y-73583240D01*
X93117358Y-73616725D01*
X93047666Y-73611741D01*
X93003319Y-73583240D01*
X92966292Y-73546213D01*
X92966288Y-73546210D01*
X92835185Y-73458609D01*
X92835172Y-73458602D01*
X92689501Y-73398264D01*
X92689489Y-73398261D01*
X92534845Y-73367500D01*
X92534842Y-73367500D01*
X92377158Y-73367500D01*
X92377155Y-73367500D01*
X92222511Y-73398260D01*
X92222501Y-73398263D01*
X92181553Y-73415224D01*
X92112083Y-73422691D01*
X92049605Y-73391415D01*
X92046422Y-73388343D01*
X91950292Y-73292213D01*
X91950288Y-73292210D01*
X91819185Y-73204609D01*
X91819172Y-73204602D01*
X91673501Y-73144264D01*
X91673489Y-73144261D01*
X91518845Y-73113500D01*
X91518842Y-73113500D01*
X91361158Y-73113500D01*
X91361155Y-73113500D01*
X91206510Y-73144261D01*
X91206498Y-73144264D01*
X91060827Y-73204602D01*
X91060814Y-73204609D01*
X90929711Y-73292210D01*
X90929707Y-73292213D01*
X90818213Y-73403707D01*
X90818210Y-73403711D01*
X90730609Y-73534814D01*
X90730602Y-73534827D01*
X90670264Y-73680498D01*
X90670261Y-73680508D01*
X90656916Y-73747599D01*
X90624531Y-73809510D01*
X90582752Y-73837968D01*
X90470630Y-73884410D01*
X90470620Y-73884415D01*
X90339517Y-73972016D01*
X90339513Y-73972019D01*
X90228019Y-74083513D01*
X90228016Y-74083517D01*
X90140415Y-74214620D01*
X90140408Y-74214633D01*
X90080070Y-74360304D01*
X90080067Y-74360316D01*
X90049306Y-74514959D01*
X90049306Y-74672652D01*
X90080048Y-74827202D01*
X90073821Y-74896793D01*
X90065030Y-74914739D01*
X90058947Y-74924974D01*
X90056211Y-74927711D01*
X89968606Y-75058821D01*
X89943748Y-75118833D01*
X89939193Y-75126499D01*
X89919870Y-75144463D01*
X89903313Y-75165010D01*
X89894682Y-75167882D01*
X89888023Y-75174074D01*
X89862054Y-75178741D01*
X89837018Y-75187074D01*
X89828207Y-75184825D01*
X89819256Y-75186434D01*
X89794883Y-75176319D01*
X89769319Y-75169794D01*
X89758032Y-75161025D01*
X89754722Y-75159652D01*
X89752922Y-75157056D01*
X89744913Y-75150834D01*
X89664292Y-75070213D01*
X89664288Y-75070210D01*
X89533185Y-74982609D01*
X89533172Y-74982602D01*
X89387501Y-74922264D01*
X89387489Y-74922261D01*
X89232845Y-74891500D01*
X89232842Y-74891500D01*
X89075158Y-74891500D01*
X89075155Y-74891500D01*
X88920510Y-74922261D01*
X88920498Y-74922264D01*
X88774827Y-74982602D01*
X88774814Y-74982609D01*
X88643711Y-75070210D01*
X88643707Y-75070213D01*
X88532213Y-75181707D01*
X88532210Y-75181711D01*
X88444609Y-75312814D01*
X88444602Y-75312827D01*
X88384264Y-75458498D01*
X88384261Y-75458510D01*
X88353500Y-75613153D01*
X88353500Y-75770849D01*
X88353620Y-75772068D01*
X88353500Y-75772700D01*
X88353500Y-75776934D01*
X88352697Y-75776934D01*
X88340599Y-75840714D01*
X88292532Y-75891422D01*
X88224680Y-75908093D01*
X88218068Y-75907620D01*
X88216849Y-75907500D01*
X88216842Y-75907500D01*
X88059158Y-75907500D01*
X88059155Y-75907500D01*
X87904510Y-75938261D01*
X87904498Y-75938264D01*
X87758827Y-75998602D01*
X87758820Y-75998606D01*
X87732497Y-76016195D01*
X87705547Y-76034202D01*
X87638871Y-76055080D01*
X87636657Y-76055100D01*
X86935802Y-76055100D01*
X86868763Y-76035415D01*
X86848121Y-76018781D01*
X85488647Y-74659307D01*
X84128172Y-73298831D01*
X84094687Y-73237508D01*
X84094250Y-73235415D01*
X84081737Y-73172503D01*
X84026113Y-73038213D01*
X84021397Y-73026827D01*
X84021390Y-73026814D01*
X83933789Y-72895711D01*
X83933786Y-72895707D01*
X83822292Y-72784213D01*
X83822288Y-72784210D01*
X83691185Y-72696609D01*
X83691172Y-72696602D01*
X83545501Y-72636264D01*
X83545489Y-72636261D01*
X83390845Y-72605500D01*
X83390842Y-72605500D01*
X83233158Y-72605500D01*
X83233155Y-72605500D01*
X83078510Y-72636261D01*
X83078498Y-72636264D01*
X82932827Y-72696602D01*
X82932814Y-72696609D01*
X82801711Y-72784210D01*
X82801707Y-72784213D01*
X82690213Y-72895707D01*
X82690210Y-72895711D01*
X82602609Y-73026814D01*
X82602602Y-73026827D01*
X82542264Y-73172498D01*
X82542261Y-73172510D01*
X82511500Y-73327153D01*
X82511500Y-73484846D01*
X82542261Y-73639489D01*
X82542264Y-73639501D01*
X82602602Y-73785172D01*
X82602609Y-73785185D01*
X82690210Y-73916288D01*
X82690213Y-73916292D01*
X82801707Y-74027786D01*
X82801711Y-74027789D01*
X82932814Y-74115390D01*
X82932827Y-74115397D01*
X83020230Y-74151599D01*
X83078503Y-74175737D01*
X83141342Y-74188236D01*
X83203252Y-74220620D01*
X83204831Y-74222172D01*
X86197797Y-77215138D01*
X86197800Y-77215140D01*
X86291592Y-77277809D01*
X86336396Y-77331420D01*
X86345104Y-77400745D01*
X86314950Y-77463773D01*
X86310382Y-77468592D01*
X81709943Y-82069030D01*
X81709942Y-82069031D01*
X81627372Y-82192607D01*
X81627366Y-82192617D01*
X81606335Y-82243394D01*
X81598596Y-82262079D01*
X81593037Y-82275501D01*
X81581341Y-82303737D01*
X81570495Y-82329919D01*
X81570493Y-82329925D01*
X81541499Y-82475685D01*
X81541499Y-82630425D01*
X81541500Y-82630446D01*
X81541500Y-83879904D01*
X81521815Y-83946943D01*
X81469011Y-83992698D01*
X81399853Y-84002642D01*
X81336297Y-83973617D01*
X81329819Y-83967585D01*
X78983915Y-81621681D01*
X78979576Y-81613735D01*
X78972329Y-81608310D01*
X78963094Y-81583550D01*
X78950430Y-81560358D01*
X78951075Y-81551328D01*
X78947912Y-81542846D01*
X78953528Y-81517025D01*
X78955414Y-81490666D01*
X78961232Y-81481612D01*
X78962764Y-81474573D01*
X78983915Y-81446319D01*
X79523350Y-80906884D01*
X79523353Y-80906881D01*
X79633721Y-80741704D01*
X79709744Y-80558169D01*
X79748499Y-80363329D01*
X79748499Y-80164672D01*
X79709744Y-79969832D01*
X79637119Y-79794500D01*
X79633722Y-79786299D01*
X79633717Y-79786290D01*
X79523353Y-79621119D01*
X79523350Y-79621115D01*
X79382884Y-79480649D01*
X79382880Y-79480646D01*
X79217709Y-79370282D01*
X79217700Y-79370277D01*
X79034170Y-79294257D01*
X79034171Y-79294257D01*
X79034168Y-79294256D01*
X79034164Y-79294255D01*
X79034160Y-79294254D01*
X78839332Y-79255501D01*
X78839328Y-79255501D01*
X78640671Y-79255501D01*
X78640666Y-79255501D01*
X78445838Y-79294254D01*
X78445828Y-79294257D01*
X78262298Y-79370277D01*
X78262289Y-79370282D01*
X78097119Y-79480646D01*
X78097115Y-79480649D01*
X77850585Y-79727181D01*
X77789262Y-79760666D01*
X77762904Y-79763500D01*
X77177096Y-79763500D01*
X77110057Y-79743815D01*
X77089415Y-79727181D01*
X73286884Y-75924649D01*
X73286880Y-75924646D01*
X73121710Y-75814282D01*
X73121701Y-75814277D01*
X73016838Y-75770842D01*
X72938169Y-75738256D01*
X72938161Y-75738254D01*
X72743333Y-75699500D01*
X72743329Y-75699500D01*
X68910507Y-75699500D01*
X68843468Y-75679815D01*
X68797713Y-75627011D01*
X68787769Y-75557853D01*
X68795946Y-75528048D01*
X68841735Y-75417501D01*
X68841737Y-75417497D01*
X68872500Y-75262842D01*
X68872500Y-75105158D01*
X68872500Y-75105155D01*
X68872499Y-75105153D01*
X68865549Y-75070213D01*
X68841737Y-74950503D01*
X68840856Y-74948376D01*
X68781397Y-74804828D01*
X68781396Y-74804827D01*
X68781394Y-74804821D01*
X68745796Y-74751545D01*
X68724920Y-74684868D01*
X68724900Y-74682656D01*
X68724900Y-74357693D01*
X68717647Y-74321233D01*
X68723874Y-74251641D01*
X68766736Y-74196463D01*
X68807971Y-74178518D01*
X68807664Y-74177506D01*
X68813486Y-74175739D01*
X68813497Y-74175737D01*
X68959179Y-74115394D01*
X69090289Y-74027789D01*
X69201789Y-73916289D01*
X69289394Y-73785179D01*
X69349737Y-73639497D01*
X69362236Y-73576655D01*
X69394619Y-73514746D01*
X69396055Y-73513284D01*
X69576122Y-73333216D01*
X69637445Y-73299734D01*
X69663802Y-73296900D01*
X81090307Y-73296900D01*
X81214312Y-73272233D01*
X81216444Y-73271809D01*
X81335264Y-73222592D01*
X81442200Y-73151141D01*
X82936521Y-71656818D01*
X82997844Y-71623334D01*
X83024202Y-71620500D01*
X102252113Y-71620500D01*
X102319152Y-71640185D01*
G37*
%TD.AperFunction*%
%TA.AperFunction,Conductor*%
G36*
X110569751Y-82206585D02*
G01*
X110615506Y-82259389D01*
X110625450Y-82328547D01*
X110596425Y-82392103D01*
X110590393Y-82398581D01*
X105092139Y-87896834D01*
X105030816Y-87930319D01*
X104961124Y-87925335D01*
X104905191Y-87883463D01*
X104889897Y-87856605D01*
X104849397Y-87758826D01*
X104849390Y-87758814D01*
X104761789Y-87627711D01*
X104761786Y-87627707D01*
X104692232Y-87558153D01*
X104658747Y-87496830D01*
X104663731Y-87427138D01*
X104692232Y-87382791D01*
X105031870Y-87043153D01*
X105382963Y-86692060D01*
X105382966Y-86692059D01*
X105488059Y-86586966D01*
X105570629Y-86463390D01*
X105627505Y-86326080D01*
X105656500Y-86180312D01*
X105656500Y-82449261D01*
X105676185Y-82382222D01*
X105728989Y-82336467D01*
X105798147Y-82326523D01*
X105804677Y-82327641D01*
X105828409Y-82332361D01*
X105839157Y-82334500D01*
X105839158Y-82334500D01*
X105996844Y-82334500D01*
X105996845Y-82334499D01*
X106151497Y-82303737D01*
X106297179Y-82243394D01*
X106350452Y-82207797D01*
X106417129Y-82186920D01*
X106419343Y-82186900D01*
X110502712Y-82186900D01*
X110569751Y-82206585D01*
G37*
%TD.AperFunction*%
%TA.AperFunction,Conductor*%
G36*
X83777152Y-67322185D02*
G01*
X83797794Y-67338819D01*
X86358794Y-69899819D01*
X86392279Y-69961142D01*
X86387295Y-70030834D01*
X86345423Y-70086767D01*
X86279959Y-70111184D01*
X86271113Y-70111500D01*
X82729683Y-70111500D01*
X82583927Y-70140493D01*
X82583919Y-70140495D01*
X82446608Y-70197371D01*
X82323035Y-70279939D01*
X82323028Y-70279945D01*
X82217945Y-70385028D01*
X82217939Y-70385035D01*
X82135371Y-70508608D01*
X82078494Y-70645920D01*
X82077822Y-70648137D01*
X82077027Y-70649462D01*
X82076164Y-70651547D01*
X82075854Y-70651418D01*
X82046845Y-70699813D01*
X80791878Y-71954781D01*
X80730555Y-71988266D01*
X80704197Y-71991100D01*
X69277693Y-71991100D01*
X69151561Y-72016189D01*
X69151555Y-72016191D01*
X69032736Y-72065407D01*
X68925798Y-72136860D01*
X68925795Y-72136863D01*
X68682581Y-72380078D01*
X68621258Y-72413563D01*
X68551566Y-72408579D01*
X68495633Y-72366707D01*
X68471216Y-72301243D01*
X68470900Y-72292397D01*
X68470900Y-71077486D01*
X68490585Y-71010447D01*
X68507219Y-70989805D01*
X72158205Y-67338819D01*
X72219528Y-67305334D01*
X72245886Y-67302500D01*
X83710113Y-67302500D01*
X83777152Y-67322185D01*
G37*
%TD.AperFunction*%
%TD*%
M02*
