M48
; DRILL file {KiCad 9.0.4} date 2025-11-19T19:29:19-0500
; FORMAT={-:-/ absolute / metric / decimal}
; #@! TF.CreationDate,2025-11-19T19:29:19-05:00
; #@! TF.GenerationSoftware,Kicad,Pcbnew,9.0.4
; #@! TF.FileFunction,Plated,1,2,PTH
FMAT,2
METRIC
; #@! TA.AperFunction,Plated,PTH,ViaDrill
T1C0.300
; #@! TA.AperFunction,Plated,PTH,ComponentDrill
T2C0.650
; #@! TA.AperFunction,Plated,PTH,ComponentDrill
T3C0.900
; #@! TA.AperFunction,Plated,PTH,ComponentDrill
T4C1.000
; #@! TA.AperFunction,Plated,PTH,ComponentDrill
T5C1.500
; #@! TA.AperFunction,Plated,PTH,ComponentDrill
T6C3.175
%
G90
G05
T1
X65.532Y-93.98
X68.072Y-75.184
X68.072Y-76.708
X68.326Y-78.74
X68.58Y-73.406
X72.136Y-71.882
X72.136Y-74.422
X73.914Y-83.312
X74.676Y-86.614
X76.708Y-98.298
X77.724Y-57.404
X78.74Y-80.264
X80.518Y-49.276
X81.28Y-53.594
X81.28Y-85.09
X81.28Y-86.106
X82.55Y-56.896
X83.312Y-73.406
X83.82Y-110.998
X85.598Y-53.594
X86.106Y-80.264
X87.63Y-84.582
X88.138Y-49.022
X88.138Y-76.708
X88.138Y-83.566
X88.646Y-84.328
X88.9Y-85.09
X89.154Y-75.692
X89.408Y-47.752
X90.424Y-87.122
X90.678Y-75.438
X90.85Y-74.594
X91.44Y-73.914
X91.694Y-87.122
X92.456Y-74.168
X92.456Y-87.63
X93.726Y-74.168
X94.742Y-74.168
X95.504Y-68.326
X95.745Y-110.236
X96.012Y-58.674
X96.012Y-73.914
X96.774Y-73.66
X98.806Y-53.594
X98.806Y-74.168
X98.806Y-75.328
X99.314Y-49.022
X99.314Y-111.252
X100.584Y-50.8
X100.584Y-85.09
X100.838Y-88.646
X101.092Y-44.704
X101.346Y-79.756
X101.346Y-104.394
X101.6Y-87.122
X101.854Y-84.582
X102.616Y-82.296
X102.616Y-84.074
X102.87Y-83.058
X103.378Y-89.154
X104.14Y-88.138
X104.394Y-50.546
X104.902Y-63.246
X105.41Y-47.752
X105.664Y-86.868
X105.918Y-77.47
X105.918Y-78.994
X105.918Y-81.534
X109.22Y-44.196
X109.22Y-87.376
X109.474Y-51.308
X110.236Y-55.626
X111.506Y-52.324
X111.506Y-82.55
X112.014Y-92.71
X112.268Y-65.278
X114.808Y-94.996
X115.57Y-60.96
X115.57Y-82.042
X116.84Y-89.154
X117.856Y-101.6
T2
X66.04Y-70.104
X66.04Y-71.374
X66.04Y-72.644
X66.04Y-73.914
X66.04Y-75.184
X66.04Y-76.454
X66.04Y-77.724
T3
X123.698Y-58.996
X123.698Y-60.996
X123.698Y-62.996
T4
X82.296Y-114.046
X84.836Y-114.046
X87.376Y-114.046
X89.916Y-114.046
X112.771Y-43.501
X114.3Y-52.578
X114.3Y-55.118
X115.311Y-43.501
X120.65Y-88.646
X120.65Y-91.186
X120.65Y-93.726
X120.65Y-96.266
X120.65Y-98.806
X123.19Y-88.646
X123.19Y-91.186
X123.19Y-93.726
X123.19Y-96.266
X123.19Y-98.806
T5
X82.804Y-41.91
X87.884Y-41.91
X93.472Y-41.91
X99.06Y-41.91
X119.126Y-49.784
X123.698Y-56.896
X123.698Y-65.096
T6
X68.577Y-43.18
X68.58Y-111.76
X121.92Y-43.18
X121.92Y-111.76
M30
