%TF.GenerationSoftware,KiCad,Pcbnew,9.0.4*%
%TF.CreationDate,2025-11-19T19:29:13-05:00*%
%TF.ProjectId,492Homework6,34393248-6f6d-4657-976f-726b362e6b69,1*%
%TF.SameCoordinates,Original*%
%TF.FileFunction,Paste,Top*%
%TF.FilePolarity,Positive*%
%FSLAX46Y46*%
G04 Gerber Fmt 4.6, Leading zero omitted, Abs format (unit mm)*
G04 Created by KiCad (PCBNEW 9.0.4) date 2025-11-19 19:29:13*
%MOMM*%
%LPD*%
G01*
G04 APERTURE LIST*
G04 Aperture macros list*
%AMRoundRect*
0 Rectangle with rounded corners*
0 $1 Rounding radius*
0 $2 $3 $4 $5 $6 $7 $8 $9 X,Y pos of 4 corners*
0 Add a 4 corners polygon primitive as box body*
4,1,4,$2,$3,$4,$5,$6,$7,$8,$9,$2,$3,0*
0 Add four circle primitives for the rounded corners*
1,1,$1+$1,$2,$3*
1,1,$1+$1,$4,$5*
1,1,$1+$1,$6,$7*
1,1,$1+$1,$8,$9*
0 Add four rect primitives between the rounded corners*
20,1,$1+$1,$2,$3,$4,$5,0*
20,1,$1+$1,$4,$5,$6,$7,0*
20,1,$1+$1,$6,$7,$8,$9,0*
20,1,$1+$1,$8,$9,$2,$3,0*%
G04 Aperture macros list end*
%ADD10C,0.010000*%
%ADD11RoundRect,0.225000X-0.225000X-0.250000X0.225000X-0.250000X0.225000X0.250000X-0.225000X0.250000X0*%
%ADD12RoundRect,0.200000X-0.275000X0.200000X-0.275000X-0.200000X0.275000X-0.200000X0.275000X0.200000X0*%
%ADD13R,0.508000X1.219200*%
%ADD14RoundRect,0.200000X-0.200000X-0.275000X0.200000X-0.275000X0.200000X0.275000X-0.200000X0.275000X0*%
%ADD15RoundRect,0.200000X0.275000X-0.200000X0.275000X0.200000X-0.275000X0.200000X-0.275000X-0.200000X0*%
%ADD16R,1.400000X3.600000*%
%ADD17R,3.600000X1.400000*%
%ADD18R,1.300000X1.550000*%
%ADD19RoundRect,0.225000X-0.250000X0.225000X-0.250000X-0.225000X0.250000X-0.225000X0.250000X0.225000X0*%
%ADD20RoundRect,0.225000X0.250000X-0.225000X0.250000X0.225000X-0.250000X0.225000X-0.250000X-0.225000X0*%
%ADD21RoundRect,0.225000X0.225000X0.250000X-0.225000X0.250000X-0.225000X-0.250000X0.225000X-0.250000X0*%
%ADD22RoundRect,0.200000X0.200000X0.275000X-0.200000X0.275000X-0.200000X-0.275000X0.200000X-0.275000X0*%
%ADD23R,1.550000X1.300000*%
%ADD24R,0.800000X0.800000*%
%ADD25R,4.622800X1.955800*%
%ADD26RoundRect,0.035000X-0.105000X-0.745000X0.105000X-0.745000X0.105000X0.745000X-0.105000X0.745000X0*%
%ADD27RoundRect,0.035000X-0.745000X-0.105000X0.745000X-0.105000X0.745000X0.105000X-0.745000X0.105000X0*%
%ADD28R,1.955800X3.505200*%
G04 APERTURE END LIST*
D10*
%TO.C,D1*%
X109662000Y-59868000D02*
X107762000Y-59868000D01*
X107762000Y-58668000D01*
X109662000Y-58668000D01*
X109662000Y-59868000D01*
G36*
X109662000Y-59868000D02*
G01*
X107762000Y-59868000D01*
X107762000Y-58668000D01*
X109662000Y-58668000D01*
X109662000Y-59868000D01*
G37*
X109662000Y-64268000D02*
X107762000Y-64268000D01*
X107762000Y-63068000D01*
X109662000Y-63068000D01*
X109662000Y-64268000D01*
G36*
X109662000Y-64268000D02*
G01*
X107762000Y-64268000D01*
X107762000Y-63068000D01*
X109662000Y-63068000D01*
X109662000Y-64268000D01*
G37*
%TO.C,D4*%
X90434000Y-66482000D02*
X89234000Y-66482000D01*
X89234000Y-64582000D01*
X90434000Y-64582000D01*
X90434000Y-66482000D01*
G36*
X90434000Y-66482000D02*
G01*
X89234000Y-66482000D01*
X89234000Y-64582000D01*
X90434000Y-64582000D01*
X90434000Y-66482000D01*
G37*
X94834000Y-66482000D02*
X93634000Y-66482000D01*
X93634000Y-64582000D01*
X94834000Y-64582000D01*
X94834000Y-66482000D01*
G36*
X94834000Y-66482000D02*
G01*
X93634000Y-66482000D01*
X93634000Y-64582000D01*
X94834000Y-64582000D01*
X94834000Y-66482000D01*
G37*
%TD*%
D11*
%TO.C,C9*%
X76428000Y-76708000D03*
X77978000Y-76708000D03*
%TD*%
D12*
%TO.C,R19*%
X104394000Y-57404000D03*
X104394000Y-59054000D03*
%TD*%
%TO.C,R3*%
X89916000Y-95441000D03*
X89916000Y-97091000D03*
%TD*%
D13*
%TO.C,U1*%
X106324400Y-51714400D03*
X107264200Y-51714400D03*
X108204000Y-51714400D03*
X108204000Y-49276000D03*
X106324400Y-49276000D03*
%TD*%
D14*
%TO.C,R6*%
X97918000Y-93726000D03*
X99568000Y-93726000D03*
%TD*%
D15*
%TO.C,R24*%
X83312000Y-52196000D03*
X83312000Y-50546000D03*
%TD*%
D16*
%TO.C,L1*%
X97780000Y-56632000D03*
D17*
X93980000Y-52832000D03*
D16*
X90180000Y-56632000D03*
D17*
X93980000Y-60432000D03*
%TD*%
D18*
%TO.C,SW2*%
X70612000Y-52324000D03*
X70612000Y-60274000D03*
X66112000Y-52324000D03*
X66112000Y-60274000D03*
%TD*%
D19*
%TO.C,C12*%
X109982000Y-98285000D03*
X109982000Y-99835000D03*
%TD*%
D20*
%TO.C,C16*%
X87376000Y-51842000D03*
X87376000Y-50292000D03*
%TD*%
D21*
%TO.C,C14*%
X102362000Y-47498000D03*
X100812000Y-47498000D03*
%TD*%
D20*
%TO.C,C10*%
X112522000Y-74181000D03*
X112522000Y-72631000D03*
%TD*%
D19*
%TO.C,C7*%
X115316000Y-98272000D03*
X115316000Y-99822000D03*
%TD*%
D15*
%TO.C,R9*%
X67564000Y-87476000D03*
X67564000Y-85826000D03*
%TD*%
D12*
%TO.C,R7*%
X101600000Y-94679000D03*
X101600000Y-96329000D03*
%TD*%
D22*
%TO.C,R2*%
X89408000Y-92456000D03*
X87758000Y-92456000D03*
%TD*%
D14*
%TO.C,R12*%
X75312000Y-91186000D03*
X76962000Y-91186000D03*
%TD*%
D19*
%TO.C,C3*%
X71120000Y-85826000D03*
X71120000Y-87376000D03*
%TD*%
D21*
%TO.C,C15*%
X102362000Y-63246000D03*
X100812000Y-63246000D03*
%TD*%
D23*
%TO.C,SW3*%
X102794000Y-110236000D03*
X110744000Y-110236000D03*
X102794000Y-114736000D03*
X110744000Y-114736000D03*
%TD*%
D24*
%TO.C,D8*%
X98552000Y-104648000D03*
X97052000Y-104648000D03*
%TD*%
D18*
%TO.C,SW4*%
X124460000Y-72314000D03*
X124460000Y-80264000D03*
X119960000Y-72314000D03*
X119960000Y-80264000D03*
%TD*%
D24*
%TO.C,D9*%
X102870000Y-101092000D03*
X101370000Y-101092000D03*
%TD*%
D25*
%TO.C,C19*%
X84836000Y-62464800D03*
X84836000Y-56267200D03*
%TD*%
D12*
%TO.C,R11*%
X74422000Y-68708000D03*
X74422000Y-70358000D03*
%TD*%
%TO.C,R5*%
X96012000Y-90552000D03*
X96012000Y-92202000D03*
%TD*%
D24*
%TO.C,D6*%
X93472000Y-101346000D03*
X91972000Y-101346000D03*
%TD*%
D19*
%TO.C,C6*%
X77470000Y-54102000D03*
X77470000Y-55652000D03*
%TD*%
D20*
%TO.C,C11*%
X76708000Y-102121000D03*
X76708000Y-100571000D03*
%TD*%
D24*
%TO.C,D10*%
X101878000Y-67310000D03*
X103378000Y-67310000D03*
%TD*%
D22*
%TO.C,R10*%
X79120000Y-70104000D03*
X77470000Y-70104000D03*
%TD*%
D19*
%TO.C,C2*%
X71120000Y-90906000D03*
X71120000Y-92456000D03*
%TD*%
D18*
%TO.C,SW5*%
X70358000Y-96012000D03*
X70358000Y-103962000D03*
X65858000Y-96012000D03*
X65858000Y-103962000D03*
%TD*%
D11*
%TO.C,C5*%
X107696000Y-66548000D03*
X109246000Y-66548000D03*
%TD*%
D15*
%TO.C,R8*%
X99060000Y-68389000D03*
X99060000Y-66739000D03*
%TD*%
D19*
%TO.C,C1*%
X67564000Y-90906000D03*
X67564000Y-92456000D03*
%TD*%
D24*
%TO.C,D7*%
X97028000Y-98818000D03*
X97028000Y-100318000D03*
%TD*%
D26*
%TO.C,U2*%
X96282000Y-77216000D03*
D27*
X90352000Y-78646000D03*
X90352000Y-79146000D03*
X90352000Y-79646000D03*
X90352000Y-80146000D03*
X90352000Y-80646000D03*
X90352000Y-81146000D03*
X90352000Y-81646000D03*
X90352000Y-82146000D03*
X90352000Y-82646000D03*
X90352000Y-83146000D03*
X90352000Y-83646000D03*
X90352000Y-84146000D03*
D26*
X91782000Y-85576000D03*
X92282000Y-85576000D03*
X92782000Y-85576000D03*
X93282000Y-85576000D03*
X93782000Y-85576000D03*
X94282000Y-85576000D03*
X94782000Y-85576000D03*
X95282000Y-85576000D03*
X95782000Y-85576000D03*
X96282000Y-85576000D03*
X96782000Y-85576000D03*
X97282000Y-85576000D03*
D27*
X98712000Y-84146000D03*
X98712000Y-83646000D03*
X98712000Y-83146000D03*
X98712000Y-82646000D03*
X98712000Y-82146000D03*
X98712000Y-81646000D03*
X98712000Y-81146000D03*
X98712000Y-80646000D03*
X98712000Y-80146000D03*
X98712000Y-79646000D03*
X98712000Y-79146000D03*
X98712000Y-78646000D03*
D26*
X97282000Y-77216000D03*
X96782000Y-77216000D03*
X95782000Y-77216000D03*
X95282000Y-77216000D03*
X94782000Y-77216000D03*
X94282000Y-77216000D03*
X93782000Y-77216000D03*
X93282000Y-77216000D03*
X92782000Y-77216000D03*
X92282000Y-77216000D03*
X91782000Y-77216000D03*
%TD*%
D24*
%TO.C,D2*%
X84074000Y-99568000D03*
X84074000Y-101068000D03*
%TD*%
D28*
%TO.C,C13*%
X91819600Y-48006000D03*
X97712400Y-48006000D03*
%TD*%
D14*
%TO.C,R26*%
X86488000Y-47498000D03*
X88138000Y-47498000D03*
%TD*%
D11*
%TO.C,C18*%
X77711000Y-44958000D03*
X79261000Y-44958000D03*
%TD*%
D20*
%TO.C,C17*%
X102108000Y-54382000D03*
X102108000Y-52832000D03*
%TD*%
D24*
%TO.C,D5*%
X88900000Y-100354000D03*
X88900000Y-101854000D03*
%TD*%
D11*
%TO.C,C4*%
X107416000Y-46228000D03*
X108966000Y-46228000D03*
%TD*%
D14*
%TO.C,R1*%
X83566000Y-94996000D03*
X85216000Y-94996000D03*
%TD*%
D24*
%TO.C,D3*%
X84848000Y-104902000D03*
X86348000Y-104902000D03*
%TD*%
D22*
%TO.C,R4*%
X93980000Y-93980000D03*
X92330000Y-93980000D03*
%TD*%
D19*
%TO.C,C8*%
X91948000Y-104889000D03*
X91948000Y-106439000D03*
%TD*%
M02*
